Present.ufo
<glyph name="exclam" format="1">
  <advance width="278"/>
  <unicode hex="0021"/>
  <outline>
    <contour>
      <point x="192" y="563" type="curve" smooth="yes"/>
      <point x="192" y="532"/>
      <point x="166" y="470"/>
      <point x="166" y="156" type="curve" smooth="yes"/>
      <point x="166" y="150"/>
      <point x="162" y="149"/>
      <point x="158" y="149" type="curve" smooth="yes"/>
      <point x="152" y="149"/>
      <point x="119" y="163"/>
      <point x="119" y="173" type="curve" smooth="yes"/>
      <point x="119" y="218"/>
      <point x="124" y="263"/>
      <point x="124" y="308" type="curve" smooth="yes"/>
      <point x="124" y="402"/>
      <point x="118" y="497"/>
      <point x="118" y="591" type="curve" smooth="yes"/>
      <point x="118" y="605"/>
      <point x="123" y="610"/>
      <point x="133" y="610" type="curve" smooth="yes"/>
      <point x="142" y="610"/>
      <point x="192" y="590"/>
    </contour>
    <contour>
      <point x="144" y="105" type="curve" smooth="yes"/>
      <point x="165" y="99" type="line" smooth="yes"/>
      <point x="172" y="97"/>
      <point x="172" y="95"/>
      <point x="172" y="33" type="curve" smooth="yes"/>
      <point x="172" y="-4"/>
      <point x="171" y="-6"/>
      <point x="162" y="-6" type="curve" smooth="yes"/>
      <point x="156" y="-6"/>
      <point x="113" y="-1"/>
      <point x="112" y="16" type="curve" smooth="yes"/>
      <point x="110" y="40"/>
      <point x="110" y="62"/>
      <point x="110" y="89" type="curve" smooth="yes"/>
      <point x="110" y="103"/>
      <point x="110" y="110"/>
      <point x="119" y="110" type="curve" smooth="yes"/>
      <point x="123" y="110"/>
      <point x="127" y="110"/>
    </contour>
  </outline>
</glyph>
<glyph name="quotedbl" format="1">
  <advance width="333"/>
  <unicode hex="0022"/>
  <outline>
    <contour>
      <point x="86" y="393" type="curve" smooth="yes"/>
      <point x="76" y="491" type="line" smooth="yes"/>
      <point x="73" y="522"/>
      <point x="68" y="552"/>
      <point x="68" y="583" type="curve" smooth="yes"/>
      <point x="68" y="609"/>
      <point x="81" y="624"/>
      <point x="99" y="624" type="curve" smooth="yes"/>
      <point x="117" y="624"/>
      <point x="130" y="609"/>
      <point x="130" y="583" type="curve" smooth="yes"/>
      <point x="130" y="552"/>
      <point x="125" y="522"/>
      <point x="122" y="491" type="curve" smooth="yes"/>
      <point x="112" y="393" type="line" smooth="yes"/>
      <point x="111" y="379"/>
      <point x="108" y="368"/>
      <point x="99" y="368" type="curve" smooth="yes"/>
      <point x="90" y="368"/>
      <point x="87" y="379"/>
    </contour>
    <contour>
      <point x="221" y="393" type="curve" smooth="yes"/>
      <point x="211" y="491" type="line" smooth="yes"/>
      <point x="208" y="522"/>
      <point x="203" y="552"/>
      <point x="203" y="583" type="curve" smooth="yes"/>
      <point x="203" y="609"/>
      <point x="216" y="624"/>
      <point x="234" y="624" type="curve" smooth="yes"/>
      <point x="252" y="624"/>
      <point x="265" y="609"/>
      <point x="265" y="583" type="curve" smooth="yes"/>
      <point x="265" y="552"/>
      <point x="260" y="522"/>
      <point x="257" y="491" type="curve" smooth="yes"/>
      <point x="247" y="393" type="line" smooth="yes"/>
      <point x="246" y="379"/>
      <point x="243" y="368"/>
      <point x="234" y="368" type="curve" smooth="yes"/>
      <point x="225" y="368"/>
      <point x="222" y="379"/>
    </contour>
  </outline>
</glyph>
<glyph name="numbersign" format="1">
  <advance width="556"/>
  <unicode hex="0023"/>
  <outline>
    <contour>
      <point x="497" y="223" type="line"/>
      <point x="497" y="187" type="line"/>
      <point x="387" y="187" type="line"/>
      <point x="355" y="0" type="line"/>
      <point x="305" y="0" type="line"/>
      <point x="337" y="187" type="line"/>
      <point x="197" y="187" type="line"/>
      <point x="165" y="0" type="line"/>
      <point x="115" y="0" type="line"/>
      <point x="147" y="187" type="line"/>
      <point x="31" y="187" type="line"/>
      <point x="31" y="223" type="line"/>
      <point x="153" y="223" type="line"/>
      <point x="175" y="350" type="line"/>
      <point x="63" y="350" type="line"/>
      <point x="63" y="386" type="line"/>
      <point x="181" y="386" type="line"/>
      <point x="213" y="573" type="line"/>
      <point x="263" y="573" type="line"/>
      <point x="231" y="386" type="line"/>
      <point x="371" y="386" type="line"/>
      <point x="403" y="573" type="line"/>
      <point x="453" y="573" type="line"/>
      <point x="421" y="386" type="line"/>
      <point x="525" y="386" type="line"/>
      <point x="525" y="350" type="line"/>
      <point x="415" y="350" type="line"/>
      <point x="393" y="223" type="line"/>
    </contour>
    <contour>
      <point x="365" y="350" type="line"/>
      <point x="225" y="350" type="line"/>
      <point x="203" y="223" type="line"/>
      <point x="343" y="223" type="line"/>
    </contour>
  </outline>
</glyph>
<glyph name="dollar" format="1">
  <advance width="556"/>
  <unicode hex="0024"/>
  <outline>
    <contour>
      <point x="314" y="280" type="curve"/>
      <point x="314" y="51" type="line"/>
      <point x="376" y="64"/>
      <point x="441" y="110"/>
      <point x="441" y="194" type="curve" smooth="yes"/>
      <point x="441" y="250"/>
      <point x="378" y="272"/>
    </contour>
    <contour>
      <point x="284" y="340" type="line"/>
      <point x="284" y="539" type="line"/>
      <point x="209" y="523"/>
      <point x="157" y="461"/>
      <point x="157" y="402" type="curve" smooth="yes"/>
      <point x="157" y="381"/>
      <point x="167" y="360"/>
      <point x="198" y="355" type="curve" smooth="yes"/>
    </contour>
    <contour>
      <point x="284" y="45" type="curve"/>
      <point x="284" y="285" type="line"/>
      <point x="198" y="298" type="line" smooth="yes"/>
      <point x="142" y="306"/>
      <point x="101" y="322"/>
      <point x="101" y="377" type="curve" smooth="yes"/>
      <point x="101" y="460"/>
      <point x="191" y="530"/>
      <point x="284" y="564" type="curve"/>
      <point x="284" y="612" type="line" smooth="yes"/>
      <point x="284" y="620"/>
      <point x="301" y="624"/>
      <point x="306" y="624" type="curve" smooth="yes"/>
      <point x="311" y="624"/>
      <point x="314" y="622"/>
      <point x="314" y="618" type="curve" smooth="yes"/>
      <point x="314" y="571" type="line"/>
      <point x="331" y="576"/>
      <point x="347" y="578"/>
      <point x="358" y="578" type="curve" smooth="yes"/>
      <point x="413" y="578"/>
      <point x="486" y="559"/>
      <point x="486" y="491" type="curve" smooth="yes"/>
      <point x="486" y="481"/>
      <point x="483" y="474"/>
      <point x="480" y="474" type="curve" smooth="yes"/>
      <point x="474" y="474"/>
      <point x="430" y="542"/>
      <point x="321" y="542" type="curve" smooth="yes"/>
      <point x="314" y="542" type="line"/>
      <point x="314" y="336" type="line"/>
      <point x="391" y="321" type="line" smooth="yes"/>
      <point x="451" y="309"/>
      <point x="503" y="292"/>
      <point x="503" y="232" type="curve" smooth="yes"/>
      <point x="503" y="145"/>
      <point x="405" y="52"/>
      <point x="314" y="12" type="curve"/>
      <point x="314" y="-60" type="line" smooth="yes"/>
      <point x="314" y="-70"/>
      <point x="295" y="-76"/>
      <point x="289" y="-76" type="curve" smooth="yes"/>
      <point x="284" y="-76"/>
      <point x="284" y="-72"/>
      <point x="284" y="-61" type="curve" smooth="yes"/>
      <point x="284" y="1" type="line"/>
      <point x="255" y="-10"/>
      <point x="201" y="-14"/>
      <point x="181" y="-14" type="curve" smooth="yes"/>
      <point x="121" y="-14"/>
      <point x="53" y="5"/>
      <point x="53" y="87" type="curve" smooth="yes"/>
      <point x="53" y="92"/>
      <point x="53" y="97"/>
      <point x="56" y="97" type="curve" smooth="yes"/>
      <point x="60" y="97"/>
      <point x="74" y="42"/>
      <point x="244" y="42" type="curve" smooth="yes"/>
      <point x="256" y="42"/>
      <point x="270" y="43"/>
    </contour>
  </outline>
</glyph>
<glyph name="percent" format="1">
  <advance width="889"/>
  <unicode hex="0025"/>
  <outline>
    <contour>
      <point x="124" y="372" type="curve" smooth="yes"/>
      <point x="124" y="294"/>
      <point x="143" y="222"/>
      <point x="231" y="222" type="curve" smooth="yes"/>
      <point x="308" y="222"/>
      <point x="329" y="291"/>
      <point x="329" y="355" type="curve" smooth="yes"/>
      <point x="329" y="427"/>
      <point x="318" y="503"/>
      <point x="224" y="503" type="curve" smooth="yes"/>
      <point x="152" y="503"/>
      <point x="124" y="433"/>
    </contour>
    <contour>
      <point x="258" y="-26" type="curve" smooth="yes"/>
      <point x="258" y="-20"/>
      <point x="258" y="-16"/>
      <point x="289" y="29" type="curve" smooth="yes"/>
      <point x="380" y="164"/>
      <point x="590" y="534"/>
      <point x="605" y="553" type="curve" smooth="yes"/>
      <point x="610" y="560"/>
      <point x="612" y="560"/>
      <point x="614" y="560" type="curve" smooth="yes"/>
      <point x="617" y="560"/>
      <point x="637" y="548"/>
      <point x="637" y="535" type="curve" smooth="yes"/>
      <point x="637" y="523"/>
      <point x="502" y="321"/>
      <point x="451" y="236" type="curve" smooth="yes"/>
      <point x="433" y="206"/>
      <point x="308" y="-9"/>
      <point x="284" y="-41" type="curve" smooth="yes"/>
      <point x="281" y="-45"/>
      <point x="278" y="-46"/>
      <point x="275" y="-46" type="curve" smooth="yes"/>
      <point x="269" y="-45"/>
      <point x="258" y="-33"/>
    </contour>
    <contour>
      <point x="504" y="126" type="curve" smooth="yes"/>
      <point x="504" y="228"/>
      <point x="561" y="315"/>
      <point x="672" y="315" type="curve" smooth="yes"/>
      <point x="777" y="315"/>
      <point x="821" y="269"/>
      <point x="821" y="162" type="curve" smooth="yes"/>
      <point x="821" y="50"/>
      <point x="740" y="-14"/>
      <point x="632" y="-14" type="curve" smooth="yes"/>
      <point x="546" y="-14"/>
      <point x="504" y="44"/>
    </contour>
    <contour>
      <point x="560" y="160" type="curve" smooth="yes"/>
      <point x="560" y="82"/>
      <point x="579" y="10"/>
      <point x="667" y="10" type="curve" smooth="yes"/>
      <point x="744" y="10"/>
      <point x="765" y="79"/>
      <point x="765" y="143" type="curve" smooth="yes"/>
      <point x="765" y="215"/>
      <point x="754" y="291"/>
      <point x="663" y="291" type="curve" smooth="yes"/>
      <point x="588" y="291"/>
      <point x="560" y="221"/>
    </contour>
    <contour>
      <point x="68" y="338" type="curve" smooth="yes"/>
      <point x="68" y="440"/>
      <point x="125" y="527"/>
      <point x="236" y="527" type="curve" smooth="yes"/>
      <point x="341" y="527"/>
      <point x="385" y="481"/>
      <point x="385" y="374" type="curve" smooth="yes"/>
      <point x="385" y="262"/>
      <point x="304" y="198"/>
      <point x="196" y="198" type="curve" smooth="yes"/>
      <point x="110" y="198"/>
      <point x="68" y="256"/>
    </contour>
  </outline>
</glyph>
<glyph name="ampersand" format="1">
  <advance width="722"/>
  <unicode hex="0026"/>
  <outline>
    <contour>
      <point x="631" y="288" type="curve" smooth="yes"/>
      <point x="631" y="229"/>
      <point x="574" y="165"/>
      <point x="532" y="129" type="curve"/>
      <point x="550" y="113" type="line" smooth="yes"/>
      <point x="604" y="65"/>
      <point x="646" y="33"/>
      <point x="681" y="33" type="curve" smooth="yes"/>
      <point x="688" y="33"/>
      <point x="692" y="30"/>
      <point x="692" y="25" type="curve" smooth="yes"/>
      <point x="692" y="9"/>
      <point x="666" y="-23"/>
      <point x="641" y="-23" type="curve" smooth="yes"/>
      <point x="629" y="-23"/>
      <point x="594" y="-11"/>
      <point x="479" y="90" type="curve"/>
      <point x="406" y="30"/>
      <point x="284" y="-7"/>
      <point x="188" y="-7" type="curve" smooth="yes"/>
      <point x="103" y="-7"/>
      <point x="58" y="29"/>
      <point x="58" y="86" type="curve" smooth="yes"/>
      <point x="58" y="155"/>
      <point x="92" y="196"/>
      <point x="274" y="311" type="curve"/>
      <point x="206" y="398"/>
      <point x="204" y="418"/>
      <point x="204" y="446" type="curve" smooth="yes"/>
      <point x="204" y="533"/>
      <point x="346" y="600"/>
      <point x="430" y="600" type="curve" smooth="yes"/>
      <point x="470" y="600"/>
      <point x="536" y="591"/>
      <point x="536" y="538" type="curve" smooth="yes"/>
      <point x="536" y="480"/>
      <point x="498" y="434"/>
      <point x="348" y="329" type="curve"/>
      <point x="371" y="294"/>
      <point x="477" y="179"/>
      <point x="513" y="148" type="curve"/>
      <point x="570" y="206"/>
      <point x="581" y="274"/>
      <point x="581" y="296" type="curve" smooth="yes"/>
      <point x="581" y="311"/>
      <point x="577" y="327"/>
      <point x="577" y="334" type="curve" smooth="yes"/>
      <point x="577" y="337"/>
      <point x="578" y="339"/>
      <point x="582" y="339" type="curve" smooth="yes"/>
      <point x="608" y="339"/>
      <point x="631" y="319"/>
    </contour>
    <contour>
      <point x="138" y="113" type="curve" smooth="yes"/>
      <point x="138" y="52"/>
      <point x="188" y="29"/>
      <point x="242" y="29" type="curve" smooth="yes"/>
      <point x="323" y="29"/>
      <point x="398" y="57"/>
      <point x="462" y="107" type="curve"/>
      <point x="398" y="168"/>
      <point x="342" y="228"/>
      <point x="286" y="294" type="curve"/>
      <point x="202" y="240"/>
      <point x="138" y="162"/>
    </contour>
    <contour>
      <point x="278" y="455" type="curve" smooth="yes"/>
      <point x="278" y="434"/>
      <point x="292" y="402"/>
      <point x="333" y="348" type="curve"/>
      <point x="440" y="424"/>
      <point x="462" y="466"/>
      <point x="462" y="517" type="curve" smooth="yes"/>
      <point x="462" y="554"/>
      <point x="436" y="576"/>
      <point x="402" y="576" type="curve" smooth="yes"/>
      <point x="346" y="576"/>
      <point x="278" y="513"/>
    </contour>
  </outline>
</glyph>
<glyph name="quotesingle" format="1">
  <advance width="278"/>
  <unicode hex="0027"/>
  <outline>
    <contour>
      <point x="126" y="393" type="curve" smooth="yes"/>
      <point x="116" y="491" type="line" smooth="yes"/>
      <point x="113" y="522"/>
      <point x="108" y="552"/>
      <point x="108" y="583" type="curve" smooth="yes"/>
      <point x="108" y="609"/>
      <point x="121" y="624"/>
      <point x="139" y="624" type="curve" smooth="yes"/>
      <point x="157" y="624"/>
      <point x="170" y="609"/>
      <point x="170" y="583" type="curve" smooth="yes"/>
      <point x="170" y="552"/>
      <point x="165" y="522"/>
      <point x="162" y="491" type="curve" smooth="yes"/>
      <point x="152" y="393" type="line" smooth="yes"/>
      <point x="151" y="379"/>
      <point x="148" y="368"/>
      <point x="139" y="368" type="curve" smooth="yes"/>
      <point x="130" y="368"/>
      <point x="127" y="379"/>
    </contour>
  </outline>
</glyph>
<glyph name="parenleft" format="1">
  <advance width="278"/>
  <unicode hex="0028"/>
  <outline>
    <contour>
      <point x="248" y="-131" type="curve"/>
      <point x="227" y="-147" type="line"/>
      <point x="138" y="-60"/>
      <point x="56" y="85"/>
      <point x="56" y="238" type="curve" smooth="yes"/>
      <point x="56" y="370"/>
      <point x="151" y="528"/>
      <point x="254" y="637" type="curve"/>
      <point x="268" y="619" type="line"/>
      <point x="163" y="503"/>
      <point x="106" y="373"/>
      <point x="106" y="245" type="curve" smooth="yes"/>
      <point x="106" y="69"/>
      <point x="156" y="-24"/>
    </contour>
  </outline>
</glyph>
<glyph name="parenright" format="1">
  <advance width="278"/>
  <unicode hex="0029"/>
  <outline>
    <contour>
      <point x="30" y="621" type="curve"/>
      <point x="51" y="637" type="line"/>
      <point x="140" y="550"/>
      <point x="222" y="405"/>
      <point x="222" y="252" type="curve" smooth="yes"/>
      <point x="222" y="120"/>
      <point x="127" y="-38"/>
      <point x="24" y="-147" type="curve"/>
      <point x="10" y="-129" type="line"/>
      <point x="115" y="-13"/>
      <point x="172" y="117"/>
      <point x="172" y="245" type="curve" smooth="yes"/>
      <point x="172" y="421"/>
      <point x="122" y="514"/>
    </contour>
  </outline>
</glyph>
<glyph name="asterisk" format="1">
  <advance width="390"/>
  <unicode hex="002A"/>
  <outline>
    <contour>
      <point x="77" y="418" type="curve" smooth="yes"/>
      <point x="165" y="467" type="line"/>
      <point x="77" y="517" type="line" smooth="yes"/>
      <point x="70" y="521"/>
      <point x="68" y="525"/>
      <point x="68" y="529" type="curve" smooth="yes"/>
      <point x="68" y="536"/>
      <point x="82" y="559"/>
      <point x="93" y="559" type="curve" smooth="yes"/>
      <point x="96" y="559"/>
      <point x="100" y="557"/>
      <point x="104" y="554" type="curve" smooth="yes"/>
      <point x="183" y="491" type="line"/>
      <point x="172" y="563"/>
      <point x="170" y="578"/>
      <point x="170" y="592" type="curve" smooth="yes"/>
      <point x="170" y="609"/>
      <point x="178" y="610"/>
      <point x="195" y="610" type="curve" smooth="yes"/>
      <point x="212" y="610"/>
      <point x="220" y="609"/>
      <point x="220" y="592" type="curve" smooth="yes"/>
      <point x="220" y="578"/>
      <point x="218" y="563"/>
      <point x="207" y="491" type="curve"/>
      <point x="286" y="554" type="line" smooth="yes"/>
      <point x="290" y="557"/>
      <point x="294" y="559"/>
      <point x="297" y="559" type="curve" smooth="yes"/>
      <point x="308" y="559"/>
      <point x="322" y="536"/>
      <point x="322" y="529" type="curve" smooth="yes"/>
      <point x="322" y="525"/>
      <point x="320" y="521"/>
      <point x="313" y="517" type="curve" smooth="yes"/>
      <point x="225" y="467" type="line"/>
      <point x="313" y="418" type="line" smooth="yes"/>
      <point x="320" y="414"/>
      <point x="322" y="410"/>
      <point x="322" y="406" type="curve" smooth="yes"/>
      <point x="322" y="399"/>
      <point x="308" y="376"/>
      <point x="297" y="376" type="curve" smooth="yes"/>
      <point x="294" y="376"/>
      <point x="290" y="378"/>
      <point x="286" y="381" type="curve" smooth="yes"/>
      <point x="207" y="444" type="line"/>
      <point x="218" y="372"/>
      <point x="220" y="358"/>
      <point x="220" y="342" type="curve" smooth="yes"/>
      <point x="220" y="326"/>
      <point x="212" y="325"/>
      <point x="195" y="325" type="curve" smooth="yes"/>
      <point x="178" y="325"/>
      <point x="170" y="326"/>
      <point x="170" y="343" type="curve" smooth="yes"/>
      <point x="170" y="357"/>
      <point x="172" y="372"/>
      <point x="183" y="444" type="curve"/>
      <point x="104" y="381" type="line" smooth="yes"/>
      <point x="100" y="378"/>
      <point x="96" y="376"/>
      <point x="93" y="376" type="curve" smooth="yes"/>
      <point x="82" y="376"/>
      <point x="68" y="399"/>
      <point x="68" y="406" type="curve" smooth="yes"/>
      <point x="68" y="410"/>
      <point x="70" y="414"/>
    </contour>
  </outline>
</glyph>
<glyph name="plus" format="1">
  <advance width="600"/>
  <unicode hex="002B"/>
  <outline>
    <contour>
      <point x="275" y="278" type="line"/>
      <point x="275" y="506" type="line"/>
      <point x="325" y="506" type="line"/>
      <point x="325" y="278" type="line"/>
      <point x="553" y="278" type="line"/>
      <point x="553" y="228" type="line"/>
      <point x="325" y="228" type="line"/>
      <point x="325" y="0" type="line"/>
      <point x="275" y="0" type="line"/>
      <point x="275" y="228" type="line"/>
      <point x="47" y="228" type="line"/>
      <point x="47" y="278" type="line"/>
    </contour>
  </outline>
</glyph>
<glyph name="comma" format="1">
  <advance width="278"/>
  <unicode hex="002C"/>
  <outline>
    <contour>
      <point x="-20" y="-148" type="curve" smooth="yes"/>
      <point x="-20" y="-146"/>
      <point x="-19" y="-143"/>
      <point x="-4" y="-127" type="curve" smooth="yes"/>
      <point x="45" y="-75"/>
      <point x="125" y="62"/>
      <point x="125" y="147" type="curve" smooth="yes"/>
      <point x="125" y="154"/>
      <point x="128" y="157"/>
      <point x="135" y="157" type="curve" smooth="yes"/>
      <point x="151" y="157"/>
      <point x="181" y="136"/>
      <point x="181" y="106" type="curve" smooth="yes"/>
      <point x="181" y="36"/>
      <point x="52" y="-101"/>
      <point x="12" y="-141" type="curve" smooth="yes"/>
      <point x="5" y="-148"/>
      <point x="-4" y="-153"/>
      <point x="-9" y="-153" type="curve" smooth="yes"/>
      <point x="-15" y="-153"/>
      <point x="-20" y="-151"/>
    </contour>
  </outline>
</glyph>
<glyph name="hyphen" format="1">
  <advance width="389"/>
  <unicode hex="002D"/>
  <outline>
    <contour>
      <point x="37" y="190" type="curve" smooth="yes"/>
      <point x="45" y="190"/>
      <point x="106" y="187"/>
      <point x="177" y="187" type="curve" smooth="yes"/>
      <point x="274" y="187"/>
      <point x="315" y="190"/>
      <point x="341" y="190" type="curve" smooth="yes"/>
      <point x="348" y="190"/>
      <point x="358" y="163"/>
      <point x="358" y="154" type="curve" smooth="yes"/>
      <point x="358" y="149"/>
      <point x="357" y="143"/>
      <point x="74" y="143" type="curve" smooth="yes"/>
      <point x="44" y="143"/>
      <point x="31" y="171"/>
      <point x="31" y="181" type="curve" smooth="yes"/>
      <point x="31" y="186"/>
      <point x="33" y="190"/>
    </contour>
  </outline>
</glyph>
<glyph name="period" format="1">
  <advance width="278"/>
  <unicode hex="002E"/>
  <outline>
    <contour>
      <point x="102" y="22" type="curve" smooth="yes"/>
      <point x="102" y="107" type="line" smooth="yes"/>
      <point x="102" y="116"/>
      <point x="107" y="119"/>
      <point x="113" y="119" type="curve" smooth="yes"/>
      <point x="122" y="119"/>
      <point x="176" y="113"/>
      <point x="176" y="90" type="curve" smooth="yes"/>
      <point x="176" y="8" type="line" smooth="yes"/>
      <point x="176" y="-4"/>
      <point x="173" y="-7"/>
      <point x="165" y="-7" type="curve" smooth="yes"/>
      <point x="156" y="-7"/>
      <point x="102" y="-1"/>
    </contour>
  </outline>
</glyph>
<glyph name="slash" format="1">
  <advance width="389"/>
  <unicode hex="002F"/>
  <outline>
    <contour>
      <point x="360" y="613" type="curve" smooth="yes"/>
      <point x="360" y="592"/>
      <point x="285" y="462"/>
      <point x="216" y="306" type="curve" smooth="yes"/>
      <point x="148" y="152"/>
      <point x="75" y="-14"/>
      <point x="60" y="-14" type="curve" smooth="yes"/>
      <point x="44" y="-14"/>
      <point x="29" y="9"/>
      <point x="29" y="18" type="curve" smooth="yes"/>
      <point x="29" y="28"/>
      <point x="83" y="110"/>
      <point x="179" y="325" type="curve" smooth="yes"/>
      <point x="244" y="470"/>
      <point x="308" y="640"/>
      <point x="327" y="640" type="curve" smooth="yes"/>
      <point x="343" y="640"/>
      <point x="360" y="626"/>
    </contour>
  </outline>
</glyph>
<glyph name="zero" format="1">
  <advance width="556"/>
  <unicode hex="0030"/>
  <outline>
    <contour>
      <point x="110" y="243" type="curve" smooth="yes"/>
      <point x="110" y="128"/>
      <point x="159" y="16"/>
      <point x="285" y="16" type="curve" smooth="yes"/>
      <point x="415" y="16"/>
      <point x="446" y="133"/>
      <point x="446" y="249" type="curve" smooth="yes"/>
      <point x="446" y="351"/>
      <point x="416" y="503"/>
      <point x="288" y="503" type="curve" smooth="yes"/>
      <point x="147" y="503"/>
      <point x="110" y="359"/>
    </contour>
    <contour>
      <point x="48" y="242" type="curve" smooth="yes"/>
      <point x="48" y="397"/>
      <point x="152" y="527"/>
      <point x="314" y="527" type="curve" smooth="yes"/>
      <point x="459" y="527"/>
      <point x="508" y="425"/>
      <point x="508" y="258" type="curve" smooth="yes"/>
      <point x="508" y="83"/>
      <point x="375" y="-14"/>
      <point x="233" y="-14" type="curve" smooth="yes"/>
      <point x="116" y="-14"/>
      <point x="48" y="68"/>
    </contour>
  </outline>
</glyph>
<glyph name="one" format="1">
  <advance width="556"/>
  <unicode hex="0031"/>
  <outline>
    <contour>
      <point x="397" y="92" type="curve" smooth="yes"/>
      <point x="397" y="12"/>
      <point x="404" y="1"/>
      <point x="404" y="-7" type="curve" smooth="yes"/>
      <point x="404" y="-12"/>
      <point x="400" y="-14"/>
      <point x="396" y="-14" type="curve" smooth="yes"/>
      <point x="389" y="-14"/>
      <point x="329" y="-3"/>
      <point x="329" y="16" type="curve" smooth="yes"/>
      <point x="329" y="34"/>
      <point x="351" y="337"/>
      <point x="353" y="466" type="curve"/>
      <point x="259" y="395" type="line" smooth="yes"/>
      <point x="237" y="379"/>
      <point x="157" y="310"/>
      <point x="130" y="310" type="curve" smooth="yes"/>
      <point x="115" y="310"/>
      <point x="81" y="331"/>
      <point x="81" y="341" type="curve" smooth="yes"/>
      <point x="81" y="346"/>
      <point x="121" y="354"/>
      <point x="172" y="382" type="curve" smooth="yes"/>
      <point x="402" y="509"/>
      <point x="407" y="535"/>
      <point x="417" y="535" type="curve" smooth="yes"/>
      <point x="420" y="535"/>
      <point x="421" y="532"/>
      <point x="421" y="529" type="curve" smooth="yes"/>
      <point x="421" y="515"/>
      <point x="397" y="467"/>
    </contour>
  </outline>
</glyph>
<glyph name="two" format="1">
  <advance width="556"/>
  <unicode hex="0032"/>
  <outline>
    <contour>
      <point x="74" y="323" type="curve" smooth="yes"/>
      <point x="74" y="449"/>
      <point x="209" y="527"/>
      <point x="322" y="527" type="curve" smooth="yes"/>
      <point x="420" y="527"/>
      <point x="493" y="483"/>
      <point x="493" y="382" type="curve" smooth="yes"/>
      <point x="493" y="205"/>
      <point x="139" y="77"/>
      <point x="139" y="52" type="curve" smooth="yes"/>
      <point x="139" y="39"/>
      <point x="218" y="37"/>
      <point x="294" y="37" type="curve" smooth="yes"/>
      <point x="420" y="37"/>
      <point x="509" y="51"/>
      <point x="515" y="51" type="curve" smooth="yes"/>
      <point x="519" y="51"/>
      <point x="521" y="49"/>
      <point x="521" y="43" type="curve" smooth="yes"/>
      <point x="521" y="5"/>
      <point x="213" y="-7"/>
      <point x="91" y="-7" type="curve" smooth="yes"/>
      <point x="44" y="-7"/>
      <point x="35" y="22"/>
      <point x="35" y="33" type="curve" smooth="yes"/>
      <point x="35" y="39"/>
      <point x="36" y="43"/>
      <point x="70" y="58" type="curve" smooth="yes"/>
      <point x="266" y="144"/>
      <point x="419" y="236"/>
      <point x="419" y="362" type="curve" smooth="yes"/>
      <point x="419" y="441"/>
      <point x="376" y="503"/>
      <point x="295" y="503" type="curve" smooth="yes"/>
      <point x="217" y="503"/>
      <point x="136" y="432"/>
      <point x="136" y="349" type="curve" smooth="yes"/>
      <point x="136" y="295"/>
      <point x="169" y="279"/>
      <point x="214" y="279" type="curve" smooth="yes"/>
      <point x="217" y="279"/>
      <point x="219" y="278"/>
      <point x="219" y="275" type="curve" smooth="yes"/>
      <point x="219" y="263"/>
      <point x="176" y="243"/>
      <point x="151" y="243" type="curve" smooth="yes"/>
      <point x="107" y="243"/>
      <point x="74" y="278"/>
    </contour>
  </outline>
</glyph>
<glyph name="three" format="1">
  <advance width="556"/>
  <unicode hex="0033"/>
  <outline>
    <contour>
      <point x="74" y="405" type="curve" smooth="yes"/>
      <point x="74" y="446"/>
      <point x="192" y="527"/>
      <point x="301" y="527" type="curve" smooth="yes"/>
      <point x="369" y="527"/>
      <point x="471" y="504"/>
      <point x="471" y="419" type="curve" smooth="yes"/>
      <point x="471" y="330"/>
      <point x="383" y="297"/>
      <point x="308" y="273" type="curve"/>
      <point x="308" y="274" type="line"/>
      <point x="308" y="272" type="line"/>
      <point x="378" y="268"/>
      <point x="477" y="266"/>
      <point x="477" y="172" type="curve" smooth="yes"/>
      <point x="477" y="35"/>
      <point x="254" y="-71"/>
      <point x="140" y="-71" type="curve" smooth="yes"/>
      <point x="70" y="-71"/>
      <point x="21" y="-33"/>
      <point x="21" y="4" type="curve" smooth="yes"/>
      <point x="21" y="12"/>
      <point x="23" y="16"/>
      <point x="27" y="16" type="curve" smooth="yes"/>
      <point x="43" y="16"/>
      <point x="88" y="-27"/>
      <point x="193" y="-27" type="curve" smooth="yes"/>
      <point x="312" y="-27"/>
      <point x="403" y="46"/>
      <point x="403" y="161" type="curve" smooth="yes"/>
      <point x="403" y="214"/>
      <point x="373" y="248"/>
      <point x="291" y="248" type="curve" smooth="yes"/>
      <point x="260" y="248"/>
      <point x="202" y="238"/>
      <point x="155" y="228" type="curve"/>
      <point x="143" y="237"/>
      <point x="139" y="248"/>
      <point x="139" y="260" type="curve" smooth="yes"/>
      <point x="139" y="264"/>
      <point x="140" y="269"/>
      <point x="142" y="273" type="curve"/>
      <point x="233" y="275"/>
      <point x="403" y="279"/>
      <point x="403" y="415" type="curve" smooth="yes"/>
      <point x="403" y="472"/>
      <point x="370" y="503"/>
      <point x="304" y="503" type="curve" smooth="yes"/>
      <point x="170" y="503"/>
      <point x="140" y="371"/>
      <point x="106" y="371" type="curve" smooth="yes"/>
      <point x="88" y="371"/>
      <point x="74" y="385"/>
    </contour>
  </outline>
</glyph>
<glyph name="four" format="1">
  <advance width="556"/>
  <unicode hex="0034"/>
  <outline>
    <contour>
      <point x="421" y="184" type="curve"/>
      <point x="431" y="184" type="line" smooth="yes"/>
      <point x="498" y="184"/>
      <point x="533" y="193"/>
      <point x="539" y="193" type="curve" smooth="yes"/>
      <point x="541" y="193"/>
      <point x="543" y="191"/>
      <point x="543" y="187" type="curve" smooth="yes"/>
      <point x="543" y="161"/>
      <point x="480" y="157"/>
      <point x="421" y="152" type="curve"/>
      <point x="421" y="3" type="line" smooth="yes"/>
      <point x="421" y="-8"/>
      <point x="416" y="-14"/>
      <point x="409" y="-14" type="curve" smooth="yes"/>
      <point x="402" y="-14"/>
      <point x="359" y="-5"/>
      <point x="359" y="12" type="curve" smooth="yes"/>
      <point x="359" y="28"/>
      <point x="362" y="93"/>
      <point x="365" y="149" type="curve"/>
      <point x="298" y="145"/>
      <point x="217" y="140"/>
      <point x="162" y="140" type="curve" smooth="yes"/>
      <point x="103" y="140"/>
      <point x="62" y="154"/>
      <point x="62" y="189" type="curve" smooth="yes"/>
      <point x="62" y="200"/>
      <point x="65" y="205"/>
      <point x="85" y="243" type="curve" smooth="yes"/>
      <point x="239" y="531" type="line" smooth="yes"/>
      <point x="244" y="540"/>
      <point x="247" y="544"/>
      <point x="253" y="544" type="curve" smooth="yes"/>
      <point x="261" y="544"/>
      <point x="289" y="523"/>
      <point x="289" y="497" type="curve" smooth="yes"/>
      <point x="289" y="485"/>
      <point x="284" y="473"/>
      <point x="278" y="464" type="curve" smooth="yes"/>
      <point x="127" y="252" type="line" smooth="yes"/>
      <point x="113" y="232"/>
      <point x="106" y="222"/>
      <point x="106" y="214" type="curve" smooth="yes"/>
      <point x="106" y="198"/>
      <point x="132" y="187"/>
      <point x="366" y="184" type="curve"/>
      <point x="371" y="390" type="line" smooth="yes"/>
      <point x="371" y="403"/>
      <point x="376" y="403"/>
      <point x="382" y="403" type="curve" smooth="yes"/>
      <point x="389" y="403"/>
      <point x="433" y="391"/>
      <point x="433" y="367" type="curve" smooth="yes"/>
      <point x="433" y="342"/>
      <point x="423" y="279"/>
    </contour>
  </outline>
</glyph>
<glyph name="five" format="1">
  <advance width="556"/>
  <unicode hex="0035"/>
  <outline>
    <contour>
      <point x="181" y="480" type="curve"/>
      <point x="171" y="295" type="line"/>
      <point x="220" y="317"/>
      <point x="275" y="330"/>
      <point x="331" y="330" type="curve" smooth="yes"/>
      <point x="422" y="330"/>
      <point x="492" y="295"/>
      <point x="492" y="199" type="curve" smooth="yes"/>
      <point x="492" y="72"/>
      <point x="272" y="-61"/>
      <point x="139" y="-61" type="curve" smooth="yes"/>
      <point x="66" y="-61"/>
      <point x="15" y="-12"/>
      <point x="15" y="0" type="curve" smooth="yes"/>
      <point x="15" y="4"/>
      <point x="17" y="6"/>
      <point x="21" y="6" type="curve" smooth="yes"/>
      <point x="27" y="6"/>
      <point x="77" y="-17"/>
      <point x="175" y="-17" type="curve" smooth="yes"/>
      <point x="356" y="-17"/>
      <point x="424" y="102"/>
      <point x="424" y="197" type="curve" smooth="yes"/>
      <point x="424" y="267"/>
      <point x="374" y="306"/>
      <point x="304" y="306" type="curve" smooth="yes"/>
      <point x="201" y="306"/>
      <point x="126" y="233"/>
      <point x="109" y="233" type="curve" smooth="yes"/>
      <point x="103" y="233"/>
      <point x="102" y="237"/>
      <point x="102" y="246" type="curve" smooth="yes"/>
      <point x="102" y="260"/>
      <point x="116" y="380"/>
      <point x="116" y="513" type="curve"/>
      <point x="177" y="504"/>
      <point x="232" y="501"/>
      <point x="280" y="501" type="curve" smooth="yes"/>
      <point x="360" y="501"/>
      <point x="433" y="513"/>
      <point x="485" y="527" type="curve"/>
      <point x="487" y="525"/>
      <point x="488" y="522"/>
      <point x="488" y="517" type="curve" smooth="yes"/>
      <point x="488" y="510"/>
      <point x="477" y="465"/>
      <point x="417" y="465" type="curve" smooth="yes"/>
      <point x="342" y="465"/>
      <point x="269" y="471"/>
    </contour>
  </outline>
</glyph>
<glyph name="six" format="1">
  <advance width="556"/>
  <unicode hex="0036"/>
  <outline>
    <contour>
      <point x="440" y="197" type="curve" smooth="yes"/>
      <point x="440" y="284"/>
      <point x="386" y="326"/>
      <point x="294" y="326" type="curve" smooth="yes"/>
      <point x="196" y="326"/>
      <point x="93" y="278"/>
      <point x="93" y="154" type="curve" smooth="yes"/>
      <point x="93" y="74"/>
      <point x="162" y="22"/>
      <point x="248" y="22" type="curve" smooth="yes"/>
      <point x="351" y="22"/>
      <point x="440" y="91"/>
    </contour>
    <contour>
      <point x="502" y="234" type="curve" smooth="yes"/>
      <point x="502" y="88"/>
      <point x="338" y="-14"/>
      <point x="205" y="-14" type="curve" smooth="yes"/>
      <point x="119" y="-14"/>
      <point x="31" y="18"/>
      <point x="31" y="112" type="curve" smooth="yes"/>
      <point x="31" y="271"/>
      <point x="354" y="572"/>
      <point x="394" y="572" type="curve" smooth="yes"/>
      <point x="414" y="572"/>
      <point x="434" y="537"/>
      <point x="434" y="514" type="curve" smooth="yes"/>
      <point x="434" y="508"/>
      <point x="430" y="505"/>
      <point x="427" y="505" type="curve" smooth="yes"/>
      <point x="421" y="505"/>
      <point x="417" y="510"/>
      <point x="408" y="510" type="curve" smooth="yes"/>
      <point x="361" y="510"/>
      <point x="186" y="347"/>
      <point x="153" y="311" type="curve"/>
      <point x="155" y="309" type="line"/>
      <point x="212" y="340"/>
      <point x="290" y="350"/>
      <point x="326" y="350" type="curve" smooth="yes"/>
      <point x="412" y="350"/>
      <point x="502" y="330"/>
    </contour>
  </outline>
</glyph>
<glyph name="seven" format="1">
  <advance width="556"/>
  <unicode hex="0037"/>
  <outline>
    <contour>
      <point x="145" y="27" type="curve" smooth="yes"/>
      <point x="145" y="98"/>
      <point x="346" y="380"/>
      <point x="470" y="479" type="curve"/>
      <point x="470" y="481" type="line"/>
      <point x="367" y="459"/>
      <point x="202" y="451"/>
      <point x="116" y="451" type="curve" smooth="yes"/>
      <point x="49" y="451"/>
      <point x="44" y="519"/>
      <point x="44" y="523" type="curve" smooth="yes"/>
      <point x="44" y="526"/>
      <point x="45" y="527"/>
      <point x="46" y="527" type="curve" smooth="yes"/>
      <point x="54" y="527"/>
      <point x="58" y="501"/>
      <point x="344" y="501" type="curve" smooth="yes"/>
      <point x="476" y="501"/>
      <point x="484" y="507"/>
      <point x="493" y="507" type="curve" smooth="yes"/>
      <point x="506" y="507"/>
      <point x="512" y="480"/>
      <point x="512" y="475" type="curve" smooth="yes"/>
      <point x="512" y="471"/>
      <point x="509" y="469"/>
      <point x="503" y="465" type="curve" smooth="yes"/>
      <point x="357" y="365"/>
      <point x="237" y="119"/>
      <point x="200" y="-46" type="curve" smooth="yes"/>
      <point x="199" y="-49"/>
      <point x="196" y="-52"/>
      <point x="191" y="-52" type="curve" smooth="yes"/>
      <point x="162" y="-52"/>
      <point x="145" y="1"/>
    </contour>
  </outline>
</glyph>
<glyph name="eight" format="1">
  <advance width="556"/>
  <unicode hex="0038"/>
  <outline>
    <contour>
      <point x="33" y="113" type="curve" smooth="yes"/>
      <point x="33" y="215"/>
      <point x="133" y="260"/>
      <point x="201" y="279" type="curve"/>
      <point x="201" y="281" type="line"/>
      <point x="139" y="283"/>
      <point x="87" y="314"/>
      <point x="87" y="383" type="curve" smooth="yes"/>
      <point x="87" y="453"/>
      <point x="168" y="527"/>
      <point x="318" y="527" type="curve" smooth="yes"/>
      <point x="387" y="527"/>
      <point x="470" y="512"/>
      <point x="470" y="422" type="curve" smooth="yes"/>
      <point x="470" y="343"/>
      <point x="400" y="300"/>
      <point x="333" y="288" type="curve"/>
      <point x="333" y="286" type="line"/>
      <point x="413" y="286"/>
      <point x="502" y="256"/>
      <point x="502" y="174" type="curve" smooth="yes"/>
      <point x="502" y="52"/>
      <point x="362" y="-14"/>
      <point x="232" y="-14" type="curve" smooth="yes"/>
      <point x="138" y="-14"/>
      <point x="33" y="15"/>
    </contour>
    <contour>
      <point x="101" y="140" type="curve" smooth="yes"/>
      <point x="101" y="55"/>
      <point x="189" y="16"/>
      <point x="264" y="16" type="curve" smooth="yes"/>
      <point x="344" y="16"/>
      <point x="434" y="63"/>
      <point x="434" y="153" type="curve" smooth="yes"/>
      <point x="434" y="250"/>
      <point x="361" y="271"/>
      <point x="275" y="271" type="curve" smooth="yes"/>
      <point x="197" y="271"/>
      <point x="101" y="230"/>
    </contour>
    <contour>
      <point x="155" y="389" type="curve" smooth="yes"/>
      <point x="155" y="322"/>
      <point x="222" y="295"/>
      <point x="271" y="295" type="curve" smooth="yes"/>
      <point x="343" y="295"/>
      <point x="408" y="336"/>
      <point x="408" y="406" type="curve" smooth="yes"/>
      <point x="408" y="478"/>
      <point x="341" y="503"/>
      <point x="287" y="503" type="curve" smooth="yes"/>
      <point x="220" y="503"/>
      <point x="155" y="463"/>
    </contour>
  </outline>
</glyph>
<glyph name="nine" format="1">
  <advance width="556"/>
  <unicode hex="0039"/>
  <outline>
    <contour>
      <point x="118" y="320" type="curve" smooth="yes"/>
      <point x="118" y="242"/>
      <point x="172" y="191"/>
      <point x="251" y="191" type="curve" smooth="yes"/>
      <point x="347" y="191"/>
      <point x="460" y="250"/>
      <point x="460" y="362" type="curve" smooth="yes"/>
      <point x="460" y="452"/>
      <point x="399" y="497"/>
      <point x="316" y="497" type="curve" smooth="yes"/>
      <point x="214" y="497"/>
      <point x="118" y="427"/>
    </contour>
    <contour>
      <point x="50" y="294" type="curve" smooth="yes"/>
      <point x="50" y="397"/>
      <point x="176" y="527"/>
      <point x="351" y="527" type="curve" smooth="yes"/>
      <point x="434" y="527"/>
      <point x="522" y="496"/>
      <point x="522" y="396" type="curve" smooth="yes"/>
      <point x="522" y="256"/>
      <point x="240" y="-77"/>
      <point x="141" y="-77" type="curve" smooth="yes"/>
      <point x="116" y="-77"/>
      <point x="96" y="-44"/>
      <point x="96" y="-32" type="curve" smooth="yes"/>
      <point x="96" y="-29"/>
      <point x="97" y="-27"/>
      <point x="101" y="-27" type="curve" smooth="yes"/>
      <point x="112" y="-27" type="line"/>
      <point x="187" y="-28"/>
      <point x="372" y="144"/>
      <point x="425" y="228" type="curve"/>
      <point x="423" y="230" type="line"/>
      <point x="422" y="229" type="line"/>
      <point x="361" y="188"/>
      <point x="285" y="161"/>
      <point x="208" y="161" type="curve" smooth="yes"/>
      <point x="123" y="161"/>
      <point x="50" y="202"/>
    </contour>
  </outline>
</glyph>
<glyph name="colon" format="1">
  <advance width="278"/>
  <unicode hex="003A"/>
  <outline>
    <contour>
      <point x="142" y="282" type="curve" smooth="yes"/>
      <point x="163" y="276" type="line" smooth="yes"/>
      <point x="170" y="274"/>
      <point x="170" y="272"/>
      <point x="170" y="210" type="curve" smooth="yes"/>
      <point x="170" y="173"/>
      <point x="169" y="171"/>
      <point x="160" y="171" type="curve" smooth="yes"/>
      <point x="154" y="171"/>
      <point x="111" y="176"/>
      <point x="110" y="193" type="curve" smooth="yes"/>
      <point x="108" y="217"/>
      <point x="108" y="239"/>
      <point x="108" y="266" type="curve" smooth="yes"/>
      <point x="108" y="280"/>
      <point x="108" y="287"/>
      <point x="117" y="287" type="curve" smooth="yes"/>
      <point x="121" y="287"/>
      <point x="125" y="287"/>
    </contour>
    <contour>
      <point x="142" y="105" type="curve" smooth="yes"/>
      <point x="163" y="99" type="line" smooth="yes"/>
      <point x="170" y="97"/>
      <point x="170" y="95"/>
      <point x="170" y="33" type="curve" smooth="yes"/>
      <point x="170" y="-4"/>
      <point x="169" y="-6"/>
      <point x="160" y="-6" type="curve" smooth="yes"/>
      <point x="154" y="-6"/>
      <point x="111" y="-1"/>
      <point x="110" y="16" type="curve" smooth="yes"/>
      <point x="108" y="40"/>
      <point x="108" y="62"/>
      <point x="108" y="89" type="curve" smooth="yes"/>
      <point x="108" y="103"/>
      <point x="108" y="110"/>
      <point x="117" y="110" type="curve" smooth="yes"/>
      <point x="121" y="110"/>
      <point x="125" y="110"/>
    </contour>
  </outline>
</glyph>
<glyph name="semicolon" format="1">
  <advance width="278"/>
  <unicode hex="003B"/>
  <outline>
    <contour>
      <point x="158" y="93" type="curve" smooth="yes"/>
      <point x="158" y="48"/>
      <point x="4" y="-139"/>
      <point x="-19" y="-139" type="curve" smooth="yes"/>
      <point x="-23" y="-139"/>
      <point x="-26" y="-136"/>
      <point x="-26" y="-132" type="curve" smooth="yes"/>
      <point x="-26" y="-130"/>
      <point x="-26" y="-128"/>
      <point x="-19" y="-120" type="curve" smooth="yes"/>
      <point x="21" y="-74"/>
      <point x="75" y="9"/>
      <point x="97" y="122" type="curve" smooth="yes"/>
      <point x="100" y="135"/>
      <point x="104" y="137"/>
      <point x="108" y="137" type="curve" smooth="yes"/>
      <point x="115" y="137"/>
      <point x="158" y="121"/>
    </contour>
    <contour>
      <point x="142" y="282" type="curve" smooth="yes"/>
      <point x="163" y="276" type="line" smooth="yes"/>
      <point x="170" y="274"/>
      <point x="170" y="272"/>
      <point x="170" y="210" type="curve" smooth="yes"/>
      <point x="170" y="173"/>
      <point x="169" y="171"/>
      <point x="160" y="171" type="curve" smooth="yes"/>
      <point x="154" y="171"/>
      <point x="111" y="176"/>
      <point x="110" y="193" type="curve" smooth="yes"/>
      <point x="108" y="217"/>
      <point x="108" y="239"/>
      <point x="108" y="266" type="curve" smooth="yes"/>
      <point x="108" y="280"/>
      <point x="108" y="287"/>
      <point x="117" y="287" type="curve" smooth="yes"/>
      <point x="121" y="287"/>
      <point x="125" y="287"/>
    </contour>
  </outline>
</glyph>
<glyph name="less" format="1">
  <advance width="600"/>
  <unicode hex="003C"/>
  <outline>
    <contour>
      <point x="553" y="48" type="line"/>
      <point x="553" y="-7" type="line"/>
      <point x="47" y="226" type="line"/>
      <point x="47" y="280" type="line"/>
      <point x="553" y="513" type="line"/>
      <point x="553" y="458" type="line"/>
      <point x="109" y="253" type="line"/>
    </contour>
  </outline>
</glyph>
<glyph name="equal" format="1">
  <advance width="600"/>
  <unicode hex="003D"/>
  <outline>
    <contour>
      <point x="553" y="375" type="line"/>
      <point x="553" y="325" type="line"/>
      <point x="47" y="325" type="line"/>
      <point x="47" y="375" type="line"/>
    </contour>
    <contour>
      <point x="553" y="181" type="line"/>
      <point x="553" y="131" type="line"/>
      <point x="47" y="131" type="line"/>
      <point x="47" y="181" type="line"/>
    </contour>
  </outline>
</glyph>
<glyph name="greater" format="1">
  <advance width="600"/>
  <unicode hex="003E"/>
  <outline>
    <contour>
      <point x="47" y="458" type="line"/>
      <point x="47" y="513" type="line"/>
      <point x="553" y="280" type="line"/>
      <point x="553" y="226" type="line"/>
      <point x="47" y="-7" type="line"/>
      <point x="47" y="48" type="line"/>
      <point x="491" y="253" type="line"/>
    </contour>
  </outline>
</glyph>
<glyph name="question" format="1">
  <advance width="444"/>
  <unicode hex="003F"/>
  <outline>
    <contour>
      <point x="402" y="497" type="curve" smooth="yes"/>
      <point x="402" y="355"/>
      <point x="141" y="384"/>
      <point x="141" y="262" type="curve" smooth="yes"/>
      <point x="141" y="206"/>
      <point x="171" y="182"/>
      <point x="224" y="182" type="curve" smooth="yes"/>
      <point x="269" y="182"/>
      <point x="307" y="208"/>
      <point x="307" y="256" type="curve" smooth="yes"/>
      <point x="307" y="263"/>
      <point x="308" y="266"/>
      <point x="314" y="266" type="curve" smooth="yes"/>
      <point x="319" y="266"/>
      <point x="357" y="259"/>
      <point x="357" y="226" type="curve" smooth="yes"/>
      <point x="357" y="172"/>
      <point x="248" y="158"/>
      <point x="209" y="158" type="curve" smooth="yes"/>
      <point x="146" y="158"/>
      <point x="73" y="175"/>
      <point x="73" y="254" type="curve" smooth="yes"/>
      <point x="73" y="371"/>
      <point x="334" y="356"/>
      <point x="334" y="491" type="curve" smooth="yes"/>
      <point x="334" y="555"/>
      <point x="299" y="586"/>
      <point x="233" y="586" type="curve" smooth="yes"/>
      <point x="104" y="586"/>
      <point x="77" y="450"/>
      <point x="54" y="450" type="curve" smooth="yes"/>
      <point x="44" y="450"/>
      <point x="23" y="467"/>
      <point x="23" y="487" type="curve" smooth="yes"/>
      <point x="23" y="555"/>
      <point x="157" y="610"/>
      <point x="241" y="610" type="curve" smooth="yes"/>
      <point x="319" y="610"/>
      <point x="402" y="589"/>
    </contour>
    <contour>
      <point x="213" y="105" type="curve" smooth="yes"/>
      <point x="234" y="99" type="line" smooth="yes"/>
      <point x="241" y="97"/>
      <point x="241" y="95"/>
      <point x="241" y="33" type="curve" smooth="yes"/>
      <point x="241" y="-4"/>
      <point x="240" y="-6"/>
      <point x="231" y="-6" type="curve" smooth="yes"/>
      <point x="225" y="-6"/>
      <point x="182" y="-1"/>
      <point x="181" y="16" type="curve" smooth="yes"/>
      <point x="179" y="40"/>
      <point x="179" y="62"/>
      <point x="179" y="89" type="curve" smooth="yes"/>
      <point x="179" y="103"/>
      <point x="179" y="110"/>
      <point x="188" y="110" type="curve" smooth="yes"/>
      <point x="192" y="110"/>
      <point x="196" y="110"/>
    </contour>
  </outline>
</glyph>
<glyph name="at" format="1">
  <advance width="800"/>
  <unicode hex="0040"/>
  <outline>
    <contour>
      <point x="331" y="243" type="curve" smooth="yes"/>
      <point x="331" y="190"/>
      <point x="357" y="170"/>
      <point x="394" y="170" type="curve" smooth="yes"/>
      <point x="431" y="170"/>
      <point x="506" y="250"/>
      <point x="506" y="372" type="curve" smooth="yes"/>
      <point x="506" y="414"/>
      <point x="488" y="436"/>
      <point x="464" y="436" type="curve" smooth="yes"/>
      <point x="417" y="436"/>
      <point x="331" y="368"/>
    </contour>
    <contour>
      <point x="590" y="455" type="line"/>
      <point x="532" y="228" type="line" smooth="yes"/>
      <point x="528" y="214"/>
      <point x="526" y="199"/>
      <point x="526" y="193" type="curve" smooth="yes"/>
      <point x="526" y="172"/>
      <point x="536" y="156"/>
      <point x="564" y="156" type="curve" smooth="yes"/>
      <point x="652" y="156"/>
      <point x="697" y="269"/>
      <point x="697" y="350" type="curve" smooth="yes"/>
      <point x="697" y="455"/>
      <point x="595" y="600"/>
      <point x="416" y="600" type="curve" smooth="yes"/>
      <point x="259" y="600"/>
      <point x="141" y="483"/>
      <point x="141" y="280" type="curve" smooth="yes"/>
      <point x="141" y="146"/>
      <point x="248" y="10"/>
      <point x="428" y="10" type="curve" smooth="yes"/>
      <point x="488" y="10"/>
      <point x="552" y="26"/>
      <point x="608" y="56" type="curve"/>
      <point x="621" y="37" type="line"/>
      <point x="562" y="3"/>
      <point x="490" y="-14"/>
      <point x="426" y="-14" type="curve" smooth="yes"/>
      <point x="185" y="-14"/>
      <point x="79" y="166"/>
      <point x="79" y="290" type="curve" smooth="yes"/>
      <point x="79" y="490"/>
      <point x="234" y="624"/>
      <point x="416" y="624" type="curve" smooth="yes"/>
      <point x="588" y="624"/>
      <point x="721" y="508"/>
      <point x="721" y="351" type="curve" smooth="yes"/>
      <point x="721" y="257"/>
      <point x="660" y="132"/>
      <point x="549" y="132" type="curve" smooth="yes"/>
      <point x="471" y="132"/>
      <point x="470" y="184"/>
      <point x="470" y="196" type="curve"/>
      <point x="468" y="196" type="line"/>
      <point x="439" y="159"/>
      <point x="400" y="132"/>
      <point x="358" y="132" type="curve" smooth="yes"/>
      <point x="336" y="132"/>
      <point x="269" y="144"/>
      <point x="269" y="232" type="curve" smooth="yes"/>
      <point x="269" y="318"/>
      <point x="338" y="466"/>
      <point x="446" y="466" type="curve" smooth="yes"/>
      <point x="496" y="466"/>
      <point x="515" y="440"/>
      <point x="518" y="418" type="curve"/>
      <point x="520" y="418" type="line"/>
      <point x="528" y="455" type="line"/>
    </contour>
  </outline>
</glyph>
<glyph name="B" format="1">
  <advance width="778"/>
  <unicode hex="0042"/>
  <outline>
    <contour>
      <point x="638" y="210" type="curve" smooth="yes"/>
      <point x="638" y="304"/>
      <point x="546" y="321"/>
      <point x="464" y="321" type="curve" smooth="yes"/>
      <point x="324" y="321"/>
      <point x="279" y="303"/>
      <point x="269" y="303" type="curve" smooth="yes"/>
      <point x="266" y="303"/>
      <point x="264" y="306"/>
      <point x="264" y="311" type="curve" smooth="yes"/>
      <point x="264" y="347"/>
      <point x="286" y="351"/>
      <point x="300" y="351" type="curve" smooth="yes"/>
      <point x="410" y="351"/>
      <point x="575" y="356"/>
      <point x="575" y="471" type="curve" smooth="yes"/>
      <point x="575" y="585"/>
      <point x="395" y="586"/>
      <point x="351" y="586" type="curve" smooth="yes"/>
      <point x="329" y="586"/>
      <point x="289" y="583"/>
      <point x="256" y="578" type="curve"/>
      <point x="230" y="350"/>
      <point x="226" y="194"/>
      <point x="212" y="42" type="curve"/>
      <point x="264" y="34"/>
      <point x="337" y="30"/>
      <point x="362" y="30" type="curve" smooth="yes"/>
      <point x="487" y="30"/>
      <point x="638" y="54"/>
    </contour>
    <contour>
      <point x="175" y="599" type="curve"/>
      <point x="175" y="619" type="line" smooth="yes"/>
      <point x="175" y="630"/>
      <point x="177" y="640"/>
      <point x="184" y="640" type="curve" smooth="yes"/>
      <point x="198" y="640"/>
      <point x="256" y="617"/>
      <point x="256" y="605" type="curve"/>
      <point x="288" y="608"/>
      <point x="323" y="610"/>
      <point x="352" y="610" type="curve" smooth="yes"/>
      <point x="492" y="610"/>
      <point x="655" y="604"/>
      <point x="655" y="488" type="curve" smooth="yes"/>
      <point x="655" y="419"/>
      <point x="528" y="357"/>
      <point x="470" y="347" type="curve"/>
      <point x="470" y="345" type="line"/>
      <point x="557" y="345"/>
      <point x="724" y="336"/>
      <point x="724" y="215" type="curve" smooth="yes"/>
      <point x="724" y="35"/>
      <point x="370" y="-14"/>
      <point x="265" y="-14" type="curve" smooth="yes"/>
      <point x="217" y="-14"/>
      <point x="63" y="-14"/>
      <point x="63" y="57" type="curve" smooth="yes"/>
      <point x="63" y="61"/>
      <point x="63" y="66"/>
      <point x="68" y="66" type="curve" smooth="yes"/>
      <point x="72" y="66"/>
      <point x="129" y="51"/>
      <point x="160" y="48" type="curve"/>
      <point x="176" y="216"/>
      <point x="175" y="361"/>
      <point x="176" y="566" type="curve"/>
      <point x="90" y="543"/>
      <point x="75" y="518"/>
      <point x="50" y="518" type="curve" smooth="yes"/>
      <point x="38" y="518"/>
      <point x="17" y="535"/>
      <point x="17" y="548" type="curve" smooth="yes"/>
      <point x="17" y="575"/>
      <point x="96" y="588"/>
    </contour>
  </outline>
</glyph>
<glyph name="C" format="1">
  <advance width="778"/>
  <unicode hex="0043"/>
  <outline>
    <contour>
      <point x="137" y="180" type="curve" smooth="yes"/>
      <point x="137" y="46"/>
      <point x="261" y="36"/>
      <point x="368" y="36" type="curve" smooth="yes"/>
      <point x="612" y="36"/>
      <point x="762" y="143"/>
      <point x="779" y="143" type="curve" smooth="yes"/>
      <point x="787" y="143"/>
      <point x="793" y="136"/>
      <point x="793" y="128" type="curve" smooth="yes"/>
      <point x="793" y="105"/>
      <point x="510" y="-14"/>
      <point x="302" y="-14" type="curve" smooth="yes"/>
      <point x="224" y="-14"/>
      <point x="45" y="-6"/>
      <point x="45" y="146" type="curve" smooth="yes"/>
      <point x="45" y="296"/>
      <point x="310" y="610"/>
      <point x="554" y="610" type="curve" smooth="yes"/>
      <point x="604" y="610"/>
      <point x="703" y="600"/>
      <point x="703" y="540" type="curve" smooth="yes"/>
      <point x="703" y="532"/>
      <point x="702" y="513"/>
      <point x="693" y="513" type="curve" smooth="yes"/>
      <point x="689" y="513"/>
      <point x="687" y="515"/>
      <point x="678" y="524" type="curve" smooth="yes"/>
      <point x="653" y="549"/>
      <point x="607" y="560"/>
      <point x="528" y="560" type="curve" smooth="yes"/>
      <point x="238" y="560"/>
      <point x="137" y="256"/>
    </contour>
  </outline>
</glyph>
<glyph name="F" format="1">
  <advance width="667"/>
  <unicode hex="0046"/>
  <outline>
    <contour>
      <point x="149" y="581" type="curve"/>
      <point x="149" y="616" type="line" smooth="yes"/>
      <point x="149" y="621"/>
      <point x="149" y="624"/>
      <point x="153" y="624" type="curve" smooth="yes"/>
      <point x="169" y="624"/>
      <point x="209" y="610"/>
      <point x="211" y="579" type="curve"/>
      <point x="421" y="579"/>
      <point x="628" y="599"/>
      <point x="660" y="599" type="curve" smooth="yes"/>
      <point x="667" y="599"/>
      <point x="670" y="594"/>
      <point x="670" y="587" type="curve" smooth="yes"/>
      <point x="670" y="578"/>
      <point x="664" y="527"/>
      <point x="600" y="527" type="curve" smooth="yes"/>
      <point x="566" y="527"/>
      <point x="390" y="552"/>
      <point x="208" y="552" type="curve"/>
      <point x="203" y="498"/>
      <point x="202" y="391"/>
      <point x="202" y="336" type="curve" smooth="yes"/>
      <point x="202" y="196"/>
      <point x="219" y="21"/>
      <point x="219" y="3" type="curve" smooth="yes"/>
      <point x="219" y="-9"/>
      <point x="211" y="-14"/>
      <point x="202" y="-14" type="curve" smooth="yes"/>
      <point x="180" y="-14"/>
      <point x="128" y="-6"/>
      <point x="128" y="29" type="curve" smooth="yes"/>
      <point x="128" y="168"/>
      <point x="147" y="377"/>
      <point x="147" y="552" type="curve"/>
      <point x="119" y="550"/>
      <point x="76" y="542"/>
      <point x="53" y="542" type="curve" smooth="yes"/>
      <point x="39" y="542"/>
      <point x="25" y="562"/>
      <point x="25" y="570" type="curve" smooth="yes"/>
      <point x="25" y="578"/>
      <point x="27" y="586"/>
      <point x="50" y="586" type="curve" smooth="yes"/>
      <point x="79" y="586"/>
      <point x="110" y="584"/>
    </contour>
    <contour>
      <point x="230" y="285" type="curve"/>
      <point x="233" y="303" type="line"/>
      <point x="362" y="303"/>
      <point x="570" y="327"/>
      <point x="596" y="327" type="curve" smooth="yes"/>
      <point x="604" y="327"/>
      <point x="604" y="320"/>
      <point x="604" y="313" type="curve" smooth="yes"/>
      <point x="604" y="302"/>
      <point x="592" y="267"/>
      <point x="565" y="267" type="curve" smooth="yes"/>
      <point x="525" y="267"/>
      <point x="394" y="284"/>
    </contour>
  </outline>
</glyph>
<glyph name="G" format="1">
  <advance width="833"/>
  <unicode hex="0047"/>
  <outline>
    <contour>
      <point x="743" y="298" type="curve" smooth="yes"/>
      <point x="787" y="14" type="line" smooth="yes"/>
      <point x="795" y="-37"/>
      <point x="803" y="-49"/>
      <point x="803" y="-57" type="curve" smooth="yes"/>
      <point x="803" y="-61"/>
      <point x="797" y="-62"/>
      <point x="789" y="-62" type="curve" smooth="yes"/>
      <point x="750" y="-62"/>
      <point x="735" y="-36"/>
      <point x="709" y="68" type="curve" smooth="yes"/>
      <point x="684" y="168" type="line"/>
      <point x="553" y="70"/>
      <point x="413" y="-14"/>
      <point x="244" y="-14" type="curve" smooth="yes"/>
      <point x="139" y="-14"/>
      <point x="24" y="20"/>
      <point x="24" y="147" type="curve" smooth="yes"/>
      <point x="24" y="386"/>
      <point x="398" y="610"/>
      <point x="606" y="610" type="curve" smooth="yes"/>
      <point x="668" y="610"/>
      <point x="783" y="595"/>
      <point x="783" y="520" type="curve" smooth="yes"/>
      <point x="783" y="507"/>
      <point x="780" y="504"/>
      <point x="777" y="504" type="curve" smooth="yes"/>
      <point x="766" y="504"/>
      <point x="709" y="554"/>
      <point x="563" y="554" type="curve" smooth="yes"/>
      <point x="248" y="554"/>
      <point x="116" y="290"/>
      <point x="116" y="168" type="curve" smooth="yes"/>
      <point x="116" y="66"/>
      <point x="236" y="30"/>
      <point x="319" y="30" type="curve" smooth="yes"/>
      <point x="480" y="30"/>
      <point x="678" y="186"/>
      <point x="678" y="214" type="curve" smooth="yes"/>
      <point x="678" y="227"/>
      <point x="663" y="290"/>
      <point x="663" y="313" type="curve" smooth="yes"/>
      <point x="663" y="320"/>
      <point x="666" y="325"/>
      <point x="676" y="325" type="curve" smooth="yes"/>
      <point x="691" y="325"/>
      <point x="739" y="323"/>
    </contour>
  </outline>
</glyph>
<glyph name="H" format="1">
  <advance width="778"/>
  <unicode hex="0048"/>
  <outline>
    <contour>
      <point x="138" y="300" type="curve"/>
      <point x="135" y="399" type="line"/>
      <point x="135" y="593"/>
      <point x="118" y="599"/>
      <point x="118" y="603" type="curve" smooth="yes"/>
      <point x="118" y="610"/>
      <point x="126" y="610"/>
      <point x="134" y="610" type="curve" smooth="yes"/>
      <point x="153" y="610"/>
      <point x="212" y="598"/>
      <point x="212" y="569" type="curve" smooth="yes"/>
      <point x="212" y="522"/>
      <point x="197" y="405"/>
      <point x="197" y="315" type="curve" smooth="yes"/>
      <point x="197" y="300" type="line"/>
      <point x="284" y="300" type="line" smooth="yes"/>
      <point x="452" y="300"/>
      <point x="545" y="308"/>
      <point x="588" y="308" type="curve" smooth="yes"/>
      <point x="594" y="308"/>
      <point x="597" y="305"/>
      <point x="597" y="299" type="curve" smooth="yes"/>
      <point x="597" y="287"/>
      <point x="586" y="282"/>
      <point x="423" y="266" type="curve" smooth="yes"/>
      <point x="196" y="244" type="line"/>
      <point x="194" y="183"/>
      <point x="191" y="98"/>
      <point x="191" y="-29" type="curve" smooth="yes"/>
      <point x="191" y="-43"/>
      <point x="189" y="-52"/>
      <point x="178" y="-52" type="curve" smooth="yes"/>
      <point x="171" y="-52"/>
      <point x="133" y="-41"/>
      <point x="133" y="-28" type="curve" smooth="yes"/>
      <point x="133" y="-6"/>
      <point x="135" y="7"/>
      <point x="135" y="23" type="curve" smooth="yes"/>
      <point x="139" y="241" type="line"/>
      <point x="121" y="240"/>
      <point x="101" y="238"/>
      <point x="82" y="238" type="curve" smooth="yes"/>
      <point x="41" y="238"/>
      <point x="-1" y="260"/>
      <point x="-1" y="300" type="curve" smooth="yes"/>
      <point x="-1" y="308"/>
      <point x="0" y="316"/>
      <point x="2" y="324" type="curve"/>
      <point x="44" y="300"/>
      <point x="94" y="300"/>
    </contour>
    <contour>
      <point x="623" y="18" type="curve" smooth="yes"/>
      <point x="623" y="68"/>
      <point x="629" y="188"/>
      <point x="629" y="399" type="curve" smooth="yes"/>
      <point x="629" y="593"/>
      <point x="612" y="599"/>
      <point x="612" y="603" type="curve" smooth="yes"/>
      <point x="612" y="610"/>
      <point x="620" y="610"/>
      <point x="626" y="610" type="curve" smooth="yes"/>
      <point x="644" y="610"/>
      <point x="703" y="598"/>
      <point x="703" y="569" type="curve" smooth="yes"/>
      <point x="703" y="476"/>
      <point x="685" y="274"/>
      <point x="685" y="21" type="curve" smooth="yes"/>
      <point x="685" y="-4"/>
      <point x="681" y="-14"/>
      <point x="669" y="-14" type="curve" smooth="yes"/>
      <point x="652" y="-14"/>
      <point x="623" y="-1"/>
    </contour>
  </outline>
</glyph>
<glyph name="J" format="1">
  <advance width="667"/>
  <unicode hex="004A"/>
  <outline>
    <contour>
      <point x="588" y="575" type="line"/>
      <point x="576" y="286" type="line" smooth="yes"/>
      <point x="562" y="-56"/>
      <point x="360" y="-160"/>
      <point x="232" y="-160" type="curve" smooth="yes"/>
      <point x="150" y="-160"/>
      <point x="-16" y="-118"/>
      <point x="-16" y="-6" type="curve" smooth="yes"/>
      <point x="-16" y="13"/>
      <point x="-7" y="59"/>
      <point x="7" y="59" type="curve" smooth="yes"/>
      <point x="15" y="59"/>
      <point x="53" y="-116"/>
      <point x="261" y="-116" type="curve" smooth="yes"/>
      <point x="466" y="-116"/>
      <point x="514" y="46"/>
      <point x="514" y="394" type="curve" smooth="yes"/>
      <point x="514" y="572" type="line"/>
      <point x="415" y="566"/>
      <point x="290" y="550"/>
      <point x="198" y="550" type="curve" smooth="yes"/>
      <point x="132" y="550"/>
      <point x="101" y="574"/>
      <point x="101" y="616" type="curve" smooth="yes"/>
      <point x="101" y="622"/>
      <point x="101" y="630"/>
      <point x="109" y="630" type="curve" smooth="yes"/>
      <point x="120" y="630"/>
      <point x="174" y="596"/>
      <point x="514" y="596" type="curve"/>
      <point x="514" y="629" type="line" smooth="yes"/>
      <point x="514" y="636"/>
      <point x="516" y="640"/>
      <point x="521" y="640" type="curve" smooth="yes"/>
      <point x="542" y="640"/>
      <point x="588" y="630"/>
      <point x="588" y="596" type="curve"/>
      <point x="619" y="597"/>
      <point x="642" y="599"/>
      <point x="661" y="599" type="curve" smooth="yes"/>
      <point x="667" y="599"/>
      <point x="670" y="597"/>
      <point x="670" y="589" type="curve" smooth="yes"/>
      <point x="670" y="581"/>
      <point x="664" y="575"/>
      <point x="651" y="575" type="curve" smooth="yes"/>
    </contour>
    <contour>
      <point x="485" y="302" type="curve"/>
      <point x="481" y="286" type="line"/>
      <point x="404" y="273"/>
      <point x="316" y="260"/>
      <point x="258" y="260" type="curve" smooth="yes"/>
      <point x="212" y="260"/>
      <point x="194" y="279"/>
      <point x="194" y="322" type="curve" smooth="yes"/>
      <point x="194" y="327"/>
      <point x="195" y="330"/>
      <point x="199" y="330" type="curve" smooth="yes"/>
      <point x="216" y="330"/>
      <point x="256" y="303"/>
    </contour>
  </outline>
</glyph>
<glyph name="K" format="1">
  <advance width="722"/>
  <unicode hex="004B"/>
  <outline>
    <contour>
      <point x="293" y="250" type="line"/>
      <point x="174" y="171" type="line"/>
      <point x="174" y="-3" type="line" smooth="yes"/>
      <point x="174" y="-14"/>
      <point x="167" y="-14"/>
      <point x="154" y="-14" type="curve" smooth="yes"/>
      <point x="140" y="-14"/>
      <point x="110" y="-4"/>
      <point x="110" y="13" type="curve" smooth="yes"/>
      <point x="110" y="113"/>
      <point x="118" y="220"/>
      <point x="118" y="324" type="curve" smooth="yes"/>
      <point x="118" y="514"/>
      <point x="102" y="598"/>
      <point x="102" y="613" type="curve" smooth="yes"/>
      <point x="102" y="616"/>
      <point x="102" y="618"/>
      <point x="105" y="618" type="curve" smooth="yes"/>
      <point x="122" y="618"/>
      <point x="192" y="594"/>
      <point x="192" y="576" type="curve" smooth="yes"/>
      <point x="192" y="560"/>
      <point x="192" y="543"/>
      <point x="191" y="523" type="curve" smooth="yes"/>
      <point x="174" y="205" type="line"/>
      <point x="568" y="464"/>
      <point x="600" y="646"/>
      <point x="615" y="646" type="curve" smooth="yes"/>
      <point x="627" y="646"/>
      <point x="649" y="598"/>
      <point x="649" y="560" type="curve" smooth="yes"/>
      <point x="649" y="508"/>
      <point x="424" y="334"/>
      <point x="352" y="291" type="curve"/>
      <point x="473" y="178" type="line" smooth="yes"/>
      <point x="531" y="124"/>
      <point x="688" y="-10"/>
      <point x="715" y="-10" type="curve" smooth="yes"/>
      <point x="723" y="-10"/>
      <point x="730" y="-10"/>
      <point x="730" y="-16" type="curve" smooth="yes"/>
      <point x="730" y="-27"/>
      <point x="674" y="-57"/>
      <point x="656" y="-57" type="curve" smooth="yes"/>
      <point x="634" y="-57"/>
      <point x="601" y="-23"/>
      <point x="488" y="77" type="curve" smooth="yes"/>
    </contour>
  </outline>
</glyph>
<glyph name="L" format="1">
  <advance width="667"/>
  <unicode hex="004C"/>
  <outline>
    <contour>
      <point x="213" y="154" type="curve" smooth="yes"/>
      <point x="213" y="48" type="line"/>
      <point x="251" y="48" type="line" smooth="yes"/>
      <point x="599" y="48"/>
      <point x="644" y="59"/>
      <point x="654" y="59" type="curve" smooth="yes"/>
      <point x="658" y="59"/>
      <point x="662" y="56"/>
      <point x="662" y="49" type="curve" smooth="yes"/>
      <point x="662" y="41"/>
      <point x="656" y="39"/>
      <point x="646" y="38" type="curve" smooth="yes"/>
      <point x="524" y="15"/>
      <point x="220" y="-14"/>
      <point x="145" y="-14" type="curve" smooth="yes"/>
      <point x="67" y="-14"/>
      <point x="38" y="37"/>
      <point x="38" y="61" type="curve" smooth="yes"/>
      <point x="38" y="69"/>
      <point x="41" y="72"/>
      <point x="44" y="72" type="curve" smooth="yes"/>
      <point x="51" y="72"/>
      <point x="103" y="53"/>
      <point x="156" y="50" type="curve"/>
      <point x="161" y="118"/>
      <point x="163" y="198"/>
      <point x="163" y="245" type="curve" smooth="yes"/>
      <point x="163" y="571"/>
      <point x="132" y="597"/>
      <point x="132" y="604" type="curve" smooth="yes"/>
      <point x="132" y="610"/>
      <point x="138" y="610"/>
      <point x="144" y="610" type="curve" smooth="yes"/>
      <point x="169" y="610"/>
      <point x="237" y="586"/>
      <point x="237" y="548" type="curve" smooth="yes"/>
      <point x="237" y="502"/>
      <point x="213" y="224"/>
    </contour>
  </outline>
</glyph>
<glyph name="M" format="1">
  <advance width="944"/>
  <unicode hex="004D"/>
  <outline>
    <contour>
      <point x="236" y="466" type="line"/>
      <point x="191" y="243" type="line" smooth="yes"/>
      <point x="152" y="49"/>
      <point x="76" y="-116"/>
      <point x="39" y="-116" type="curve" smooth="yes"/>
      <point x="2" y="-116"/>
      <point x="-27" y="-57"/>
      <point x="-27" y="-50" type="curve" smooth="yes"/>
      <point x="-27" y="-47"/>
      <point x="-25" y="-43"/>
      <point x="-21" y="-43" type="curve" smooth="yes"/>
      <point x="-17" y="-43"/>
      <point x="-3" y="-48"/>
      <point x="2" y="-48" type="curve" smooth="yes"/>
      <point x="38" y="-48"/>
      <point x="132" y="128"/>
      <point x="196" y="399" type="curve" smooth="yes"/>
      <point x="220" y="500" type="line"/>
      <point x="191" y="551" type="line" smooth="yes"/>
      <point x="175" y="579"/>
      <point x="131" y="587"/>
      <point x="131" y="603" type="curve" smooth="yes"/>
      <point x="131" y="612"/>
      <point x="135" y="618"/>
      <point x="143" y="618" type="curve" smooth="yes"/>
      <point x="156" y="618"/>
      <point x="261" y="600"/>
      <point x="273" y="573" type="curve" smooth="yes"/>
      <point x="462" y="139" type="line" smooth="yes"/>
      <point x="475" y="109"/>
      <point x="479" y="101"/>
      <point x="487" y="101" type="curve" smooth="yes"/>
      <point x="494" y="101"/>
      <point x="502" y="115"/>
      <point x="514" y="139" type="curve" smooth="yes"/>
      <point x="744" y="590" type="line" smooth="yes"/>
      <point x="752" y="605"/>
      <point x="754" y="610"/>
      <point x="760" y="610" type="curve" smooth="yes"/>
      <point x="765" y="610" type="line" smooth="yes"/>
      <point x="770" y="610"/>
      <point x="816" y="602"/>
      <point x="817" y="593" type="curve" smooth="yes"/>
      <point x="862" y="206"/>
      <point x="870" y="104"/>
      <point x="903" y="37" type="curve"/>
      <point x="912" y="21"/>
      <point x="928" y="35"/>
      <point x="928" y="20" type="curve" smooth="yes"/>
      <point x="928" y="11"/>
      <point x="863" y="-14"/>
      <point x="848" y="-14" type="curve" smooth="yes"/>
      <point x="823" y="-14"/>
      <point x="823" y="30"/>
      <point x="816" y="67" type="curve"/>
      <point x="755" y="484" type="line" smooth="yes"/>
      <point x="752" y="506"/>
      <point x="751" y="512"/>
      <point x="746" y="512" type="curve" smooth="yes"/>
      <point x="742" y="512"/>
      <point x="732" y="495"/>
      <point x="718" y="468" type="curve" smooth="yes"/>
      <point x="486" y="15" type="line" smooth="yes"/>
      <point x="482" y="6"/>
      <point x="475" y="0"/>
      <point x="466" y="0" type="curve" smooth="yes"/>
      <point x="455" y="0"/>
      <point x="449" y="6"/>
      <point x="444" y="17" type="curve" smooth="yes"/>
      <point x="238" y="466" type="line"/>
    </contour>
  </outline>
</glyph>
<glyph name="N" format="1">
  <advance width="889"/>
  <unicode hex="004E"/>
  <outline>
    <contour>
      <point x="609" y="61" type="curve" smooth="yes"/>
      <point x="256" y="487" type="line"/>
      <point x="231" y="359" type="line" smooth="yes"/>
      <point x="223" y="320"/>
      <point x="123" y="-117"/>
      <point x="50" y="-117" type="curve" smooth="yes"/>
      <point x="31" y="-117"/>
      <point x="-29" y="-76"/>
      <point x="-29" y="-63" type="curve" smooth="yes"/>
      <point x="-29" y="-58"/>
      <point x="-26" y="-54"/>
      <point x="-20" y="-54" type="curve" smooth="yes"/>
      <point x="-10" y="-54"/>
      <point x="1" y="-61"/>
      <point x="13" y="-61" type="curve" smooth="yes"/>
      <point x="48" y="-61"/>
      <point x="188" y="226"/>
      <point x="235" y="509" type="curve"/>
      <point x="166" y="613"/>
      <point x="135" y="602"/>
      <point x="135" y="616" type="curve" smooth="yes"/>
      <point x="135" y="621"/>
      <point x="140" y="624"/>
      <point x="147" y="624" type="curve" smooth="yes"/>
      <point x="171" y="624"/>
      <point x="259" y="617"/>
      <point x="285" y="583" type="curve" smooth="yes"/>
      <point x="673" y="73" type="line" smooth="yes"/>
      <point x="687" y="54"/>
      <point x="694" y="48"/>
      <point x="709" y="48" type="curve" smooth="yes"/>
      <point x="731" y="48"/>
      <point x="750" y="102"/>
      <point x="750" y="184" type="curve" smooth="yes"/>
      <point x="750" y="574"/>
      <point x="686" y="585"/>
      <point x="686" y="600" type="curve" smooth="yes"/>
      <point x="686" y="607"/>
      <point x="692" y="610"/>
      <point x="704" y="610" type="curve" smooth="yes"/>
      <point x="720" y="610"/>
      <point x="786" y="590"/>
      <point x="786" y="550" type="curve" smooth="yes"/>
      <point x="786" y="170"/>
      <point x="777" y="-14"/>
      <point x="701" y="-14" type="curve" smooth="yes"/>
      <point x="685" y="-14"/>
      <point x="663" y="-4"/>
    </contour>
  </outline>
</glyph>
<glyph name="P" format="1">
  <advance width="722"/>
  <unicode hex="0050"/>
  <outline>
    <contour>
      <point x="162" y="587" type="curve"/>
      <point x="162" y="614" type="line" smooth="yes"/>
      <point x="162" y="632"/>
      <point x="164" y="640"/>
      <point x="172" y="640" type="curve" smooth="yes"/>
      <point x="185" y="640"/>
      <point x="220" y="624"/>
      <point x="223" y="594" type="curve"/>
      <point x="292" y="603"/>
      <point x="363" y="610"/>
      <point x="429" y="610" type="curve" smooth="yes"/>
      <point x="702" y="610"/>
      <point x="744" y="541"/>
      <point x="744" y="479" type="curve" smooth="yes"/>
      <point x="744" y="324"/>
      <point x="508" y="186"/>
      <point x="372" y="186" type="curve" smooth="yes"/>
      <point x="298" y="186"/>
      <point x="244" y="227"/>
      <point x="244" y="247" type="curve" smooth="yes"/>
      <point x="244" y="259"/>
      <point x="249" y="261"/>
      <point x="259" y="261" type="curve" smooth="yes"/>
      <point x="271" y="261"/>
      <point x="332" y="236"/>
      <point x="413" y="236" type="curve" smooth="yes"/>
      <point x="636" y="236"/>
      <point x="652" y="404"/>
      <point x="652" y="448" type="curve" smooth="yes"/>
      <point x="652" y="573"/>
      <point x="494" y="586"/>
      <point x="402" y="586" type="curve" smooth="yes"/>
      <point x="351" y="586"/>
      <point x="280" y="577"/>
      <point x="219" y="565" type="curve"/>
      <point x="212" y="466"/>
      <point x="212" y="370"/>
      <point x="212" y="272" type="curve" smooth="yes"/>
      <point x="212" y="32"/>
      <point x="219" y="-11"/>
      <point x="219" y="-19" type="curve" smooth="yes"/>
      <point x="219" y="-25"/>
      <point x="215" y="-25"/>
      <point x="212" y="-25" type="curve" smooth="yes"/>
      <point x="183" y="-25"/>
      <point x="130" y="-3"/>
      <point x="130" y="9" type="curve" smooth="yes"/>
      <point x="130" y="19"/>
      <point x="159" y="367"/>
      <point x="162" y="551" type="curve"/>
      <point x="89" y="532"/>
      <point x="59" y="506"/>
      <point x="47" y="506" type="curve" smooth="yes"/>
      <point x="37" y="506"/>
      <point x="16" y="535"/>
      <point x="16" y="547" type="curve" smooth="yes"/>
      <point x="16" y="560"/>
      <point x="39" y="569"/>
    </contour>
  </outline>
</glyph>
<glyph name="Q" format="1">
  <advance width="889"/>
  <unicode hex="0051"/>
  <outline>
    <contour>
      <point x="706" y="-150" type="curve" smooth="yes"/>
      <point x="651" y="-150"/>
      <point x="592" y="-131"/>
      <point x="529" y="-112" type="curve" smooth="yes"/>
      <point x="467" y="-93"/>
      <point x="401" y="-74"/>
      <point x="332" y="-74" type="curve" smooth="yes"/>
      <point x="244" y="-74"/>
      <point x="229" y="-89"/>
      <point x="220" y="-89" type="curve" smooth="yes"/>
      <point x="215" y="-89"/>
      <point x="212" y="-85"/>
      <point x="212" y="-83" type="curve" smooth="yes"/>
      <point x="212" y="-66"/>
      <point x="298" y="-38"/>
      <point x="375" y="-38" type="curve" smooth="yes"/>
      <point x="437" y="-38"/>
      <point x="496" y="-51"/>
      <point x="551" y="-63" type="curve" smooth="yes"/>
      <point x="607" y="-75"/>
      <point x="658" y="-88"/>
      <point x="704" y="-88" type="curve" smooth="yes"/>
      <point x="815" y="-88"/>
      <point x="830" y="-36"/>
      <point x="845" y="-36" type="curve" smooth="yes"/>
      <point x="852" y="-36"/>
      <point x="853" y="-48"/>
      <point x="853" y="-59" type="curve" smooth="yes"/>
      <point x="853" y="-93"/>
      <point x="809" y="-150"/>
    </contour>
    <contour>
      <point x="853" y="396" type="curve" smooth="yes"/>
      <point x="853" y="203"/>
      <point x="626" y="-14"/>
      <point x="302" y="-14" type="curve" smooth="yes"/>
      <point x="146" y="-14"/>
      <point x="36" y="54"/>
      <point x="36" y="190" type="curve" smooth="yes"/>
      <point x="36" y="436"/>
      <point x="360" y="640"/>
      <point x="478" y="640" type="curve" smooth="yes"/>
      <point x="494" y="640"/>
      <point x="506" y="637"/>
      <point x="506" y="627" type="curve" smooth="yes"/>
      <point x="506" y="619"/>
      <point x="502" y="616"/>
      <point x="495" y="616" type="curve" smooth="yes"/>
      <point x="364" y="616"/>
      <point x="122" y="450"/>
      <point x="122" y="214" type="curve" smooth="yes"/>
      <point x="122" y="62"/>
      <point x="256" y="36"/>
      <point x="382" y="36" type="curve" smooth="yes"/>
      <point x="644" y="36"/>
      <point x="779" y="202"/>
      <point x="779" y="363" type="curve" smooth="yes"/>
      <point x="779" y="485"/>
      <point x="703" y="572"/>
      <point x="575" y="572" type="curve" smooth="yes"/>
      <point x="390" y="572"/>
      <point x="361" y="441"/>
      <point x="333" y="441" type="curve" smooth="yes"/>
      <point x="324" y="441"/>
      <point x="316" y="448"/>
      <point x="316" y="459" type="curve" smooth="yes"/>
      <point x="316" y="520"/>
      <point x="464" y="602"/>
      <point x="619" y="602" type="curve" smooth="yes"/>
      <point x="750" y="602"/>
      <point x="853" y="532"/>
    </contour>
  </outline>
</glyph>
<glyph name="R" format="1">
  <advance width="778"/>
  <unicode hex="0052"/>
  <outline>
    <contour>
      <point x="155" y="586" type="curve"/>
      <point x="155" y="620" type="line" smooth="yes"/>
      <point x="155" y="627"/>
      <point x="159" y="634"/>
      <point x="166" y="634" type="curve" smooth="yes"/>
      <point x="175" y="634"/>
      <point x="216" y="621"/>
      <point x="217" y="594" type="curve"/>
      <point x="280" y="601"/>
      <point x="343" y="610"/>
      <point x="437" y="610" type="curve" smooth="yes"/>
      <point x="629" y="610"/>
      <point x="721" y="576"/>
      <point x="721" y="494" type="curve" smooth="yes"/>
      <point x="721" y="404"/>
      <point x="618" y="279"/>
      <point x="345" y="279" type="curve"/>
      <point x="345" y="277" type="line"/>
      <point x="472" y="173" type="line" smooth="yes"/>
      <point x="628" y="45"/>
      <point x="704" y="-7"/>
      <point x="737" y="-7" type="curve" smooth="yes"/>
      <point x="752" y="-7"/>
      <point x="756" y="-7"/>
      <point x="756" y="-12" type="curve" smooth="yes"/>
      <point x="756" y="-20"/>
      <point x="711" y="-63"/>
      <point x="685" y="-63" type="curve" smooth="yes"/>
      <point x="675" y="-63"/>
      <point x="657" y="-52"/>
      <point x="621" y="-24" type="curve" smooth="yes"/>
      <point x="259" y="263" type="line" smooth="yes"/>
      <point x="243" y="276"/>
      <point x="234" y="285"/>
      <point x="234" y="287" type="curve" smooth="yes"/>
      <point x="234" y="292"/>
      <point x="256" y="316"/>
      <point x="279" y="316" type="curve" smooth="yes"/>
      <point x="291" y="316"/>
      <point x="333" y="303"/>
      <point x="378" y="303" type="curve" smooth="yes"/>
      <point x="555" y="303"/>
      <point x="635" y="393"/>
      <point x="635" y="469" type="curve" smooth="yes"/>
      <point x="635" y="563"/>
      <point x="478" y="586"/>
      <point x="406" y="586" type="curve" smooth="yes"/>
      <point x="342" y="586"/>
      <point x="279" y="576"/>
      <point x="216" y="563" type="curve"/>
      <point x="211" y="458"/>
      <point x="207" y="364"/>
      <point x="207" y="260" type="curve" smooth="yes"/>
      <point x="207" y="102"/>
      <point x="215" y="24"/>
      <point x="215" y="9" type="curve" smooth="yes"/>
      <point x="215" y="-4"/>
      <point x="213" y="-7"/>
      <point x="200" y="-7" type="curve" smooth="yes"/>
      <point x="171" y="-7"/>
      <point x="127" y="4"/>
      <point x="127" y="33" type="curve" smooth="yes"/>
      <point x="127" y="43"/>
      <point x="127" y="56"/>
      <point x="128" y="75" type="curve" smooth="yes"/>
      <point x="157" y="553" type="line"/>
      <point x="69" y="528"/>
      <point x="50" y="508"/>
      <point x="31" y="508" type="curve" smooth="yes"/>
      <point x="21" y="508"/>
      <point x="0" y="520"/>
      <point x="0" y="540" type="curve" smooth="yes"/>
      <point x="0" y="559"/>
      <point x="13" y="564"/>
    </contour>
  </outline>
</glyph>
<glyph name="T" format="1">
  <advance width="722"/>
  <unicode hex="0054"/>
  <outline>
    <contour>
      <point x="273" y="85" type="curve" smooth="yes"/>
      <point x="273" y="154"/>
      <point x="285" y="310"/>
      <point x="314" y="536" type="curve"/>
      <point x="288" y="534"/>
      <point x="137" y="532"/>
      <point x="62" y="532" type="curve" smooth="yes"/>
      <point x="29" y="532"/>
      <point x="-12" y="592"/>
      <point x="-12" y="604" type="curve" smooth="yes"/>
      <point x="-12" y="607"/>
      <point x="-10" y="610"/>
      <point x="-1" y="610" type="curve" smooth="yes"/>
      <point x="8" y="610"/>
      <point x="108" y="590"/>
      <point x="320" y="581" type="curve"/>
      <point x="324" y="619"/>
      <point x="329" y="624"/>
      <point x="335" y="624" type="curve" smooth="yes"/>
      <point x="347" y="624"/>
      <point x="376" y="618"/>
      <point x="376" y="581" type="curve"/>
      <point x="651" y="583"/>
      <point x="686" y="594"/>
      <point x="704" y="594" type="curve" smooth="yes"/>
      <point x="711" y="594"/>
      <point x="716" y="592"/>
      <point x="716" y="585" type="curve" smooth="yes"/>
      <point x="716" y="579"/>
      <point x="704" y="577"/>
      <point x="691" y="575" type="curve" smooth="yes"/>
      <point x="625" y="566"/>
      <point x="471" y="545"/>
      <point x="370" y="537" type="curve"/>
      <point x="354" y="388"/>
      <point x="347" y="300"/>
      <point x="347" y="248" type="curve" smooth="yes"/>
      <point x="347" y="210"/>
      <point x="338" y="22"/>
      <point x="407" y="22" type="curve" smooth="yes"/>
      <point x="489" y="22"/>
      <point x="580" y="108"/>
      <point x="610" y="108" type="curve" smooth="yes"/>
      <point x="617" y="108"/>
      <point x="628" y="106"/>
      <point x="628" y="95" type="curve" smooth="yes"/>
      <point x="628" y="90"/>
      <point x="626" y="87"/>
      <point x="617" y="81" type="curve" smooth="yes"/>
      <point x="574" y="53"/>
      <point x="432" y="-14"/>
      <point x="339" y="-14" type="curve" smooth="yes"/>
      <point x="285" y="-14"/>
      <point x="273" y="42"/>
    </contour>
  </outline>
</glyph>
<glyph name="U" format="1">
  <advance width="778"/>
  <unicode hex="0055"/>
  <outline>
    <contour>
      <point x="158" y="168" type="curve" smooth="yes"/>
      <point x="158" y="112"/>
      <point x="186" y="56"/>
      <point x="272" y="56" type="curve" smooth="yes"/>
      <point x="394" y="56"/>
      <point x="587" y="362"/>
      <point x="587" y="559" type="curve" smooth="yes"/>
      <point x="587" y="587"/>
      <point x="591" y="588"/>
      <point x="595" y="588" type="curve" smooth="yes"/>
      <point x="601" y="588"/>
      <point x="660" y="562"/>
      <point x="661" y="549" type="curve" smooth="yes"/>
      <point x="676" y="388"/>
      <point x="676" y="25"/>
      <point x="767" y="12" type="curve" smooth="yes"/>
      <point x="774" y="11"/>
      <point x="775" y="8"/>
      <point x="775" y="5" type="curve" smooth="yes"/>
      <point x="775" y="-14"/>
      <point x="707" y="-42"/>
      <point x="684" y="-42" type="curve" smooth="yes"/>
      <point x="658" y="-42"/>
      <point x="644" y="42"/>
      <point x="591" y="413" type="curve"/>
      <point x="589" y="413" type="line"/>
      <point x="543" y="273"/>
      <point x="404" y="-14"/>
      <point x="214" y="-14" type="curve" smooth="yes"/>
      <point x="128" y="-14"/>
      <point x="96" y="58"/>
      <point x="96" y="136" type="curve" smooth="yes"/>
      <point x="96" y="201"/>
      <point x="108" y="289"/>
      <point x="121" y="370" type="curve" smooth="yes"/>
      <point x="134" y="451"/>
      <point x="146" y="525"/>
      <point x="146" y="574" type="curve" smooth="yes"/>
      <point x="146" y="604"/>
      <point x="134" y="614"/>
      <point x="134" y="618" type="curve" smooth="yes"/>
      <point x="134" y="628"/>
      <point x="143" y="630"/>
      <point x="150" y="630" type="curve" smooth="yes"/>
      <point x="169" y="630"/>
      <point x="232" y="616"/>
      <point x="232" y="579" type="curve" smooth="yes"/>
      <point x="232" y="550"/>
      <point x="214" y="483"/>
      <point x="195" y="405" type="curve" smooth="yes"/>
      <point x="176" y="327"/>
      <point x="158" y="239"/>
    </contour>
  </outline>
</glyph>
<glyph name="V" format="1">
  <advance width="667"/>
  <unicode hex="0056"/>
  <outline>
    <contour>
      <point x="285" y="3" type="curve" smooth="yes"/>
      <point x="77" y="516" type="line" smooth="yes"/>
      <point x="37" y="614"/>
      <point x="-6" y="577"/>
      <point x="-6" y="607" type="curve" smooth="yes"/>
      <point x="-6" y="616"/>
      <point x="3" y="618"/>
      <point x="25" y="618" type="curve" smooth="yes"/>
      <point x="44" y="618"/>
      <point x="122" y="617"/>
      <point x="137" y="579" type="curve" smooth="yes"/>
      <point x="321" y="120" type="line" smooth="yes"/>
      <point x="335" y="84"/>
      <point x="344" y="72"/>
      <point x="356" y="72" type="curve" smooth="yes"/>
      <point x="392" y="72"/>
      <point x="608" y="438"/>
      <point x="608" y="570" type="curve" smooth="yes"/>
      <point x="608" y="638"/>
      <point x="591" y="645"/>
      <point x="591" y="657" type="curve" smooth="yes"/>
      <point x="591" y="664"/>
      <point x="596" y="664"/>
      <point x="601" y="664" type="curve" smooth="yes"/>
      <point x="624" y="664"/>
      <point x="688" y="599"/>
      <point x="688" y="564" type="curve" smooth="yes"/>
      <point x="688" y="480"/>
      <point x="370" y="-14"/>
      <point x="303" y="-14" type="curve" smooth="yes"/>
      <point x="296" y="-14"/>
      <point x="291" y="-11"/>
    </contour>
  </outline>
</glyph>
<glyph name="W" format="1">
  <advance width="1000"/>
  <unicode hex="0057"/>
  <outline>
    <contour>
      <point x="148" y="565" type="curve" smooth="yes"/>
      <point x="255" y="102" type="line" smooth="yes"/>
      <point x="257" y="93"/>
      <point x="261" y="90"/>
      <point x="265" y="90" type="curve" smooth="yes"/>
      <point x="269" y="90"/>
      <point x="271" y="91"/>
      <point x="276" y="101" type="curve" smooth="yes"/>
      <point x="484" y="500" type="line" smooth="yes"/>
      <point x="491" y="515"/>
      <point x="511" y="518"/>
      <point x="523" y="518" type="curve" smooth="yes"/>
      <point x="534" y="518"/>
      <point x="536" y="511"/>
      <point x="544" y="489" type="curve" smooth="yes"/>
      <point x="682" y="104" type="line" smooth="yes"/>
      <point x="692" y="76"/>
      <point x="704" y="66"/>
      <point x="716" y="66" type="curve" smooth="yes"/>
      <point x="759" y="66"/>
      <point x="890" y="266"/>
      <point x="890" y="470" type="curve" smooth="yes"/>
      <point x="890" y="573"/>
      <point x="872" y="622"/>
      <point x="872" y="632" type="curve" smooth="yes"/>
      <point x="872" y="643"/>
      <point x="878" y="645"/>
      <point x="887" y="645" type="curve" smooth="yes"/>
      <point x="945" y="645"/>
      <point x="964" y="564"/>
      <point x="964" y="515" type="curve" smooth="yes"/>
      <point x="964" y="304"/>
      <point x="727" y="-14"/>
      <point x="672" y="-14" type="curve" smooth="yes"/>
      <point x="655" y="-14"/>
      <point x="638" y="9"/>
      <point x="625" y="44" type="curve" smooth="yes"/>
      <point x="483" y="431" type="line"/>
      <point x="311" y="101" type="line" smooth="yes"/>
      <point x="268" y="17"/>
      <point x="246" y="-14"/>
      <point x="225" y="-14" type="curve" smooth="yes"/>
      <point x="210" y="-14"/>
      <point x="203" y="0"/>
      <point x="193" y="40" type="curve" smooth="yes"/>
      <point x="87" y="486" type="line" smooth="yes"/>
      <point x="57" y="610"/>
      <point x="8" y="585"/>
      <point x="8" y="610" type="curve" smooth="yes"/>
      <point x="8" y="617"/>
      <point x="20" y="618"/>
      <point x="27" y="618" type="curve" smooth="yes"/>
      <point x="53" y="618"/>
      <point x="137" y="611"/>
    </contour>
  </outline>
</glyph>
<glyph name="X" format="1">
  <advance width="722"/>
  <unicode hex="0058"/>
  <outline>
    <contour>
      <point x="326" y="321" type="line"/>
      <point x="184" y="493" type="line" smooth="yes"/>
      <point x="80" y="619"/>
      <point x="31" y="606"/>
      <point x="31" y="622" type="curve" smooth="yes"/>
      <point x="31" y="627"/>
      <point x="39" y="630"/>
      <point x="72" y="630" type="curve" smooth="yes"/>
      <point x="104" y="630"/>
      <point x="194" y="621"/>
      <point x="216" y="591" type="curve" smooth="yes"/>
      <point x="372" y="371" type="line"/>
      <point x="498" y="505" type="line" smooth="yes"/>
      <point x="565" y="576"/>
      <point x="626" y="640"/>
      <point x="650" y="640" type="curve" smooth="yes"/>
      <point x="687" y="640"/>
      <point x="717" y="588"/>
      <point x="717" y="582" type="curve" smooth="yes"/>
      <point x="717" y="578"/>
      <point x="709" y="578"/>
      <point x="705" y="578" type="curve" smooth="yes"/>
      <point x="616" y="577"/>
      <point x="455" y="408"/>
      <point x="388" y="349" type="curve"/>
      <point x="481" y="235" type="line" smooth="yes"/>
      <point x="621" y="63"/>
      <point x="675" y="32"/>
      <point x="700" y="26" type="curve" smooth="yes"/>
      <point x="710" y="24"/>
      <point x="712" y="23"/>
      <point x="712" y="20" type="curve" smooth="yes"/>
      <point x="712" y="12"/>
      <point x="664" y="-14"/>
      <point x="631" y="-14" type="curve" smooth="yes"/>
      <point x="603" y="-14"/>
      <point x="585" y="3"/>
      <point x="516" y="88" type="curve" smooth="yes"/>
      <point x="344" y="300" type="line"/>
      <point x="34" y="-46"/>
      <point x="16" y="-137"/>
      <point x="6" y="-137" type="curve" smooth="yes"/>
      <point x="-3" y="-137"/>
      <point x="-34" y="-84"/>
      <point x="-34" y="-71" type="curve" smooth="yes"/>
      <point x="-34" y="-61"/>
      <point x="-11" y="-31"/>
      <point x="51" y="34" type="curve" smooth="yes"/>
    </contour>
  </outline>
</glyph>
<glyph name="Y" format="1">
  <advance width="667"/>
  <unicode hex="0059"/>
  <outline>
    <contour>
      <point x="136" y="-153" type="curve" smooth="yes"/>
      <point x="284" y="-5" type="line"/>
      <point x="178" y="249" type="line"/>
      <point x="127" y="373" type="line"/>
      <point x="83" y="474"/>
      <point x="27" y="587"/>
      <point x="-12" y="594" type="curve" smooth="yes"/>
      <point x="-21" y="596"/>
      <point x="-23" y="601"/>
      <point x="-23" y="605" type="curve" smooth="yes"/>
      <point x="-23" y="618"/>
      <point x="-4" y="618"/>
      <point x="16" y="618" type="curve" smooth="yes"/>
      <point x="40" y="618"/>
      <point x="111" y="617"/>
      <point x="130" y="569" type="curve" smooth="yes"/>
      <point x="196" y="399"/>
      <point x="258" y="238"/>
      <point x="330" y="80" type="curve" smooth="yes"/>
      <point x="340" y="58" type="line"/>
      <point x="352" y="73" type="line" smooth="yes"/>
      <point x="500" y="258"/>
      <point x="602" y="496"/>
      <point x="602" y="576" type="curve" smooth="yes"/>
      <point x="602" y="613"/>
      <point x="590" y="636"/>
      <point x="589" y="647" type="curve" smooth="yes"/>
      <point x="589" y="650"/>
      <point x="589" y="655"/>
      <point x="596" y="655" type="curve" smooth="yes"/>
      <point x="616" y="655"/>
      <point x="682" y="593"/>
      <point x="682" y="550" type="curve" smooth="yes"/>
      <point x="682" y="408"/>
      <point x="236" y="-91"/>
      <point x="236" y="-112" type="curve" smooth="yes"/>
      <point x="236" y="-121"/>
      <point x="243" y="-122"/>
      <point x="258" y="-122" type="curve" smooth="yes"/>
      <point x="288" y="-122"/>
      <point x="398" y="-107"/>
      <point x="487" y="-93" type="curve" smooth="yes"/>
      <point x="537" y="-85" type="line" smooth="yes"/>
      <point x="555" y="-82"/>
      <point x="560" y="-81"/>
      <point x="563" y="-81" type="curve" smooth="yes"/>
      <point x="568" y="-81"/>
      <point x="573" y="-83"/>
      <point x="573" y="-89" type="curve" smooth="yes"/>
      <point x="573" y="-101"/>
      <point x="566" y="-103"/>
      <point x="422" y="-137" type="curve" smooth="yes"/>
      <point x="307" y="-164"/>
      <point x="168" y="-208"/>
      <point x="149" y="-208" type="curve" smooth="yes"/>
      <point x="134" y="-208"/>
      <point x="122" y="-195"/>
      <point x="122" y="-181" type="curve" smooth="yes"/>
      <point x="122" y="-171"/>
      <point x="125" y="-165"/>
    </contour>
  </outline>
</glyph>
<glyph name="bracketleft" format="1">
  <advance width="278"/>
  <unicode hex="005B"/>
  <outline>
    <contour>
      <point x="113" y="630" type="line"/>
      <point x="259" y="630" type="line"/>
      <point x="259" y="606" type="line"/>
      <point x="157" y="606" type="line"/>
      <point x="157" y="-116" type="line"/>
      <point x="259" y="-116" type="line"/>
      <point x="259" y="-140" type="line"/>
      <point x="113" y="-140" type="line"/>
    </contour>
  </outline>
</glyph>
<glyph name="backslash" format="1">
  <advance width="389"/>
  <unicode hex="005C"/>
  <outline>
    <contour>
      <point x="29" y="613" type="curve" smooth="yes"/>
      <point x="29" y="626"/>
      <point x="46" y="640"/>
      <point x="62" y="640" type="curve" smooth="yes"/>
      <point x="81" y="640"/>
      <point x="145" y="470"/>
      <point x="210" y="325" type="curve" smooth="yes"/>
      <point x="306" y="110"/>
      <point x="360" y="28"/>
      <point x="360" y="18" type="curve" smooth="yes"/>
      <point x="360" y="9"/>
      <point x="345" y="-14"/>
      <point x="329" y="-14" type="curve" smooth="yes"/>
      <point x="314" y="-14"/>
      <point x="241" y="152"/>
      <point x="173" y="306" type="curve" smooth="yes"/>
      <point x="104" y="462"/>
      <point x="29" y="592"/>
    </contour>
  </outline>
</glyph>
<glyph name="bracketright" format="1">
  <advance width="278"/>
  <unicode hex="005D"/>
  <outline>
    <contour>
      <point x="19" y="630" type="line"/>
      <point x="165" y="630" type="line"/>
      <point x="165" y="-140" type="line"/>
      <point x="19" y="-140" type="line"/>
      <point x="19" y="-116" type="line"/>
      <point x="121" y="-116" type="line"/>
      <point x="121" y="606" type="line"/>
      <point x="19" y="606" type="line"/>
    </contour>
  </outline>
</glyph>
<glyph name="asciicircum" format="1">
  <advance width="600"/>
  <unicode hex="005E"/>
  <outline>
    <contour>
      <point x="148" y="150" type="line"/>
      <point x="93" y="150" type="line"/>
      <point x="277" y="513" type="line"/>
      <point x="323" y="513" type="line"/>
      <point x="507" y="150" type="line"/>
      <point x="452" y="150" type="line"/>
      <point x="300" y="451" type="line"/>
    </contour>
  </outline>
</glyph>
<glyph name="grave" format="1">
  <advance width="222"/>
  <unicode hex="0060"/>
  <outline>
    <contour>
      <point x="71" y="551" type="curve" smooth="yes"/>
      <point x="90" y="551"/>
      <point x="116" y="446"/>
      <point x="186" y="399" type="curve" smooth="yes"/>
      <point x="189" y="397"/>
      <point x="190" y="394"/>
      <point x="190" y="389" type="curve" smooth="yes"/>
      <point x="190" y="384"/>
      <point x="184" y="378"/>
      <point x="175" y="378" type="curve" smooth="yes"/>
      <point x="144" y="378"/>
      <point x="42" y="471"/>
      <point x="42" y="507" type="curve" smooth="yes"/>
      <point x="42" y="521"/>
      <point x="56" y="551"/>
    </contour>
  </outline>
</glyph>
<glyph name="a" format="1">
  <advance width="556"/>
  <unicode hex="0061"/>
  <outline>
    <contour>
      <point x="45" y="79" type="curve" smooth="yes"/>
      <point x="45" y="190"/>
      <point x="202" y="316"/>
      <point x="310" y="316" type="curve" smooth="yes"/>
      <point x="349" y="316"/>
      <point x="380" y="296"/>
      <point x="403" y="266" type="curve"/>
      <point x="422" y="270"/>
      <point x="440" y="276"/>
      <point x="454" y="284" type="curve"/>
      <point x="463" y="196" type="line" smooth="yes"/>
      <point x="473" y="103"/>
      <point x="491" y="19"/>
      <point x="513" y="19" type="curve" smooth="yes"/>
      <point x="520" y="19"/>
      <point x="521" y="16"/>
      <point x="521" y="11" type="curve" smooth="yes"/>
      <point x="521" y="1"/>
      <point x="466" y="-23"/>
      <point x="454" y="-23" type="curve" smooth="yes"/>
      <point x="445" y="-23"/>
      <point x="440" y="-21"/>
      <point x="418" y="98" type="curve"/>
      <point x="355" y="31"/>
      <point x="262" y="-7"/>
      <point x="171" y="-7" type="curve" smooth="yes"/>
      <point x="114" y="-7"/>
      <point x="45" y="8"/>
    </contour>
    <contour>
      <point x="409" y="157" type="curve" smooth="yes"/>
      <point x="409" y="177"/>
      <point x="394" y="250"/>
      <point x="379" y="259" type="curve" smooth="yes"/>
      <point x="342" y="281"/>
      <point x="313" y="286"/>
      <point x="287" y="286" type="curve" smooth="yes"/>
      <point x="191" y="286"/>
      <point x="119" y="197"/>
      <point x="119" y="104" type="curve" smooth="yes"/>
      <point x="119" y="46"/>
      <point x="176" y="23"/>
      <point x="212" y="23" type="curve" smooth="yes"/>
      <point x="305" y="23"/>
      <point x="394" y="91"/>
      <point x="405" y="118" type="curve" smooth="yes"/>
      <point x="408" y="125"/>
      <point x="409" y="144"/>
    </contour>
  </outline>
</glyph>
<glyph name="b" format="1">
  <advance width="500"/>
  <unicode hex="0062"/>
  <outline>
    <contour>
      <point x="461" y="207" type="curve" smooth="yes"/>
      <point x="461" y="79"/>
      <point x="277" y="-14"/>
      <point x="164" y="-14" type="curve" smooth="yes"/>
      <point x="115" y="-14"/>
      <point x="60" y="-4"/>
      <point x="60" y="202" type="curve" smooth="yes"/>
      <point x="60" y="296"/>
      <point x="75" y="532"/>
      <point x="75" y="647" type="curve" smooth="yes"/>
      <point x="75" y="652"/>
      <point x="78" y="654"/>
      <point x="86" y="654" type="curve" smooth="yes"/>
      <point x="99" y="654"/>
      <point x="143" y="647"/>
      <point x="143" y="606" type="curve" smooth="yes"/>
      <point x="143" y="556"/>
      <point x="106" y="388"/>
      <point x="104" y="198" type="curve"/>
      <point x="106" y="198" type="line"/>
      <point x="160" y="247"/>
      <point x="256" y="303"/>
      <point x="339" y="303" type="curve" smooth="yes"/>
      <point x="399" y="303"/>
      <point x="461" y="276"/>
    </contour>
    <contour>
      <point x="387" y="179" type="curve" smooth="yes"/>
      <point x="387" y="225"/>
      <point x="362" y="273"/>
      <point x="304" y="273" type="curve" smooth="yes"/>
      <point x="235" y="273"/>
      <point x="146" y="218"/>
      <point x="104" y="174" type="curve"/>
      <point x="107" y="84"/>
      <point x="136" y="30"/>
      <point x="243" y="30" type="curve" smooth="yes"/>
      <point x="328" y="30"/>
      <point x="387" y="98"/>
    </contour>
  </outline>
</glyph>
<glyph name="c" format="1">
  <advance width="500"/>
  <unicode hex="0063"/>
  <outline>
    <contour>
      <point x="113" y="122" type="curve" smooth="yes"/>
      <point x="113" y="32"/>
      <point x="209" y="16"/>
      <point x="276" y="16" type="curve" smooth="yes"/>
      <point x="383" y="16"/>
      <point x="460" y="77"/>
      <point x="476" y="77" type="curve" smooth="yes"/>
      <point x="479" y="77"/>
      <point x="484" y="76"/>
      <point x="484" y="69" type="curve" smooth="yes"/>
      <point x="484" y="40"/>
      <point x="341" y="-14"/>
      <point x="201" y="-14" type="curve" smooth="yes"/>
      <point x="113" y="-14"/>
      <point x="39" y="8"/>
      <point x="39" y="85" type="curve" smooth="yes"/>
      <point x="39" y="219"/>
      <point x="229" y="324"/>
      <point x="345" y="324" type="curve" smooth="yes"/>
      <point x="376" y="324"/>
      <point x="437" y="317"/>
      <point x="437" y="274" type="curve" smooth="yes"/>
      <point x="437" y="265"/>
      <point x="436" y="255"/>
      <point x="429" y="255" type="curve" smooth="yes"/>
      <point x="423" y="255"/>
      <point x="368" y="280"/>
      <point x="288" y="280" type="curve" smooth="yes"/>
      <point x="202" y="280"/>
      <point x="113" y="217"/>
    </contour>
  </outline>
</glyph>
<glyph name="d" format="1">
  <advance width="556"/>
  <unicode hex="0064"/>
  <outline>
    <contour>
      <point x="427" y="260" type="curve"/>
      <point x="427" y="390" type="line" smooth="yes"/>
      <point x="427" y="530"/>
      <point x="416" y="633"/>
      <point x="416" y="646" type="curve" smooth="yes"/>
      <point x="416" y="651"/>
      <point x="419" y="654"/>
      <point x="426" y="654" type="curve" smooth="yes"/>
      <point x="447" y="654"/>
      <point x="493" y="643"/>
      <point x="496" y="617" type="curve" smooth="yes"/>
      <point x="497" y="606"/>
      <point x="471" y="356"/>
      <point x="471" y="210" type="curve" smooth="yes"/>
      <point x="471" y="100"/>
      <point x="475" y="37"/>
      <point x="475" y="-41" type="curve" smooth="yes"/>
      <point x="475" y="-43"/>
      <point x="474" y="-45"/>
      <point x="471" y="-45" type="curve" smooth="yes"/>
      <point x="464" y="-45"/>
      <point x="421" y="-37"/>
      <point x="421" y="-5" type="curve" smooth="yes"/>
      <point x="421" y="41"/>
      <point x="422" y="56"/>
      <point x="422" y="72" type="curve"/>
      <point x="345" y="29"/>
      <point x="237" y="-7"/>
      <point x="148" y="-7" type="curve" smooth="yes"/>
      <point x="92" y="-7"/>
      <point x="39" y="10"/>
      <point x="39" y="78" type="curve" smooth="yes"/>
      <point x="39" y="168"/>
      <point x="161" y="316"/>
      <point x="300" y="316" type="curve" smooth="yes"/>
      <point x="348" y="316"/>
      <point x="393" y="293"/>
    </contour>
    <contour>
      <point x="218" y="29" type="curve" smooth="yes"/>
      <point x="266" y="29"/>
      <point x="346" y="51"/>
      <point x="422" y="95" type="curve"/>
      <point x="424" y="142"/>
      <point x="427" y="188"/>
      <point x="427" y="235" type="curve"/>
      <point x="386" y="278"/>
      <point x="312" y="286"/>
      <point x="269" y="286" type="curve" smooth="yes"/>
      <point x="177" y="286"/>
      <point x="113" y="206"/>
      <point x="113" y="117" type="curve" smooth="yes"/>
      <point x="113" y="48"/>
      <point x="161" y="29"/>
    </contour>
  </outline>
</glyph>
<glyph name="f" format="1">
  <advance width="278"/>
  <unicode hex="0066"/>
  <outline>
    <contour>
      <point x="101" y="244" type="curve"/>
      <point x="47" y="244" type="line" smooth="yes"/>
      <point x="29" y="244"/>
      <point x="10" y="262"/>
      <point x="10" y="280" type="curve" smooth="yes"/>
      <point x="10" y="286"/>
      <point x="12" y="294"/>
      <point x="20" y="294" type="curve" smooth="yes"/>
      <point x="29" y="294"/>
      <point x="70" y="287"/>
      <point x="102" y="287" type="curve"/>
      <point x="101" y="315"/>
      <point x="99" y="354"/>
      <point x="99" y="408" type="curve" smooth="yes"/>
      <point x="99" y="606"/>
      <point x="256" y="660"/>
      <point x="289" y="660" type="curve" smooth="yes"/>
      <point x="311" y="660"/>
      <point x="333" y="654"/>
      <point x="333" y="628" type="curve" smooth="yes"/>
      <point x="333" y="616"/>
      <point x="330" y="600"/>
      <point x="321" y="600" type="curve" smooth="yes"/>
      <point x="304" y="600"/>
      <point x="287" y="624"/>
      <point x="247" y="624" type="curve" smooth="yes"/>
      <point x="184" y="624"/>
      <point x="161" y="552"/>
      <point x="161" y="284" type="curve"/>
      <point x="170" y="283"/>
      <point x="193" y="283"/>
      <point x="222" y="283" type="curve" smooth="yes"/>
      <point x="259" y="283"/>
      <point x="297" y="288"/>
      <point x="299" y="288" type="curve" smooth="yes"/>
      <point x="302" y="288"/>
      <point x="304" y="286"/>
      <point x="304" y="282" type="curve" smooth="yes"/>
      <point x="304" y="267"/>
      <point x="239" y="255"/>
      <point x="156" y="247" type="curve"/>
      <point x="148" y="85"/>
      <point x="141" y="-74"/>
      <point x="141" y="-269" type="curve" smooth="yes"/>
      <point x="141" y="-278"/>
      <point x="118" y="-286"/>
      <point x="114" y="-286" type="curve" smooth="yes"/>
      <point x="109" y="-286"/>
      <point x="102" y="-284"/>
      <point x="102" y="-273" type="curve" smooth="yes"/>
      <point x="102" y="-258"/>
      <point x="105" y="-217"/>
      <point x="105" y="-145" type="curve" smooth="yes"/>
      <point x="105" y="44"/>
      <point x="105" y="143"/>
    </contour>
  </outline>
</glyph>
<glyph name="g" format="1">
  <advance width="556"/>
  <unicode hex="0067"/>
  <outline>
    <contour>
      <point x="45" y="93" type="curve" smooth="yes"/>
      <point x="45" y="186"/>
      <point x="184" y="310"/>
      <point x="271" y="310" type="curve" smooth="yes"/>
      <point x="331" y="310"/>
      <point x="369" y="292"/>
      <point x="415" y="254" type="curve"/>
      <point x="456" y="279"/>
      <point x="475" y="290"/>
      <point x="483" y="290" type="curve" smooth="yes"/>
      <point x="486" y="290"/>
      <point x="486" y="286"/>
      <point x="486" y="277" type="curve" smooth="yes"/>
      <point x="486" y="260"/>
      <point x="483" y="216"/>
      <point x="483" y="82" type="curve" smooth="yes"/>
      <point x="483" y="-8"/>
      <point x="460" y="-266"/>
      <point x="211" y="-266" type="curve" smooth="yes"/>
      <point x="125" y="-266"/>
      <point x="51" y="-201"/>
      <point x="51" y="-161" type="curve" smooth="yes"/>
      <point x="51" y="-140"/>
      <point x="84" y="-92"/>
      <point x="97" y="-92" type="curve" smooth="yes"/>
      <point x="100" y="-92"/>
      <point x="102" y="-93"/>
      <point x="102" y="-96" type="curve" smooth="yes"/>
      <point x="102" y="-98"/>
      <point x="101" y="-100"/>
      <point x="101" y="-113" type="curve" smooth="yes"/>
      <point x="101" y="-178"/>
      <point x="158" y="-231"/>
      <point x="254" y="-236" type="curve" smooth="yes"/>
      <point x="378" y="-242"/>
      <point x="421" y="-114"/>
      <point x="421" y="8" type="curve" smooth="yes"/>
      <point x="421" y="50"/>
      <point x="421" y="78"/>
      <point x="419" y="100" type="curve"/>
      <point x="361" y="41"/>
      <point x="247" y="-7"/>
      <point x="162" y="-7" type="curve" smooth="yes"/>
      <point x="94" y="-7"/>
      <point x="45" y="22"/>
    </contour>
    <contour>
      <point x="266" y="274" type="curve" smooth="yes"/>
      <point x="192" y="274"/>
      <point x="107" y="226"/>
      <point x="107" y="144" type="curve" smooth="yes"/>
      <point x="107" y="74"/>
      <point x="153" y="37"/>
      <point x="225" y="37" type="curve" smooth="yes"/>
      <point x="280" y="37"/>
      <point x="369" y="62"/>
      <point x="417" y="134" type="curve" smooth="yes"/>
      <point x="421" y="140"/>
      <point x="422" y="156"/>
      <point x="422" y="165" type="curve" smooth="yes"/>
      <point x="422" y="195"/>
      <point x="415" y="230"/>
      <point x="406" y="238" type="curve" smooth="yes"/>
      <point x="377" y="264"/>
      <point x="297" y="274"/>
    </contour>
  </outline>
</glyph>
<glyph name="h" format="1">
  <advance width="500"/>
  <unicode hex="0068"/>
  <outline>
    <contour>
      <point x="120" y="205" type="curve" smooth="yes"/>
      <point x="114" y="77" type="line"/>
      <point x="116" y="75" type="line"/>
      <point x="145" y="152"/>
      <point x="243" y="310"/>
      <point x="324" y="310" type="curve" smooth="yes"/>
      <point x="379" y="310"/>
      <point x="387" y="273"/>
      <point x="413" y="140" type="curve" smooth="yes"/>
      <point x="437" y="17"/>
      <point x="458" y="-16"/>
      <point x="480" y="-21" type="curve" smooth="yes"/>
      <point x="484" y="-22"/>
      <point x="487" y="-26"/>
      <point x="487" y="-30" type="curve" smooth="yes"/>
      <point x="487" y="-41"/>
      <point x="442" y="-75"/>
      <point x="421" y="-75" type="curve" smooth="yes"/>
      <point x="411" y="-75"/>
      <point x="405" y="-67"/>
      <point x="397" y="-37" type="curve" smooth="yes"/>
      <point x="348" y="144" type="line" smooth="yes"/>
      <point x="325" y="227"/>
      <point x="316" y="266"/>
      <point x="291" y="266" type="curve" smooth="yes"/>
      <point x="249" y="266"/>
      <point x="133" y="111"/>
      <point x="113" y="-14" type="curve"/>
      <point x="95" y="-13"/>
      <point x="75" y="-9"/>
      <point x="60" y="2" type="curve"/>
      <point x="66" y="85"/>
      <point x="67" y="155"/>
      <point x="67" y="446" type="curve" smooth="yes"/>
      <point x="67" y="580"/>
      <point x="54" y="626"/>
      <point x="54" y="646" type="curve" smooth="yes"/>
      <point x="54" y="650"/>
      <point x="57" y="654"/>
      <point x="63" y="654" type="curve" smooth="yes"/>
      <point x="82" y="654"/>
      <point x="136" y="634"/>
      <point x="136" y="614" type="curve" smooth="yes"/>
      <point x="136" y="592"/>
      <point x="133" y="480"/>
    </contour>
  </outline>
</glyph>
<glyph name="i" format="1">
  <advance width="222"/>
  <unicode hex="0069"/>
  <outline>
    <contour>
      <point x="85" y="13" type="curve" smooth="yes"/>
      <point x="85" y="203" type="line" smooth="yes"/>
      <point x="85" y="301"/>
      <point x="70" y="310"/>
      <point x="70" y="319" type="curve" smooth="yes"/>
      <point x="70" y="322"/>
      <point x="71" y="324"/>
      <point x="77" y="324" type="curve" smooth="yes"/>
      <point x="86" y="324"/>
      <point x="152" y="311"/>
      <point x="152" y="289" type="curve" smooth="yes"/>
      <point x="152" y="243"/>
      <point x="141" y="126"/>
      <point x="141" y="64" type="curve" smooth="yes"/>
      <point x="141" y="37"/>
      <point x="143" y="15"/>
      <point x="143" y="-5" type="curve" smooth="yes"/>
      <point x="143" y="-12"/>
      <point x="138" y="-14"/>
      <point x="133" y="-14" type="curve" smooth="yes"/>
      <point x="125" y="-14"/>
      <point x="85" y="-6"/>
    </contour>
    <contour>
      <point x="146" y="440" type="curve" smooth="yes"/>
      <point x="146" y="415"/>
      <point x="145" y="411"/>
      <point x="138" y="411" type="curve" smooth="yes"/>
      <point x="125" y="411"/>
      <point x="90" y="421"/>
      <point x="89" y="438" type="curve" smooth="yes"/>
      <point x="87" y="466"/>
      <point x="84" y="494"/>
      <point x="84" y="522" type="curve" smooth="yes"/>
      <point x="84" y="527"/>
      <point x="87" y="527"/>
      <point x="92" y="527" type="curve" smooth="yes"/>
      <point x="109" y="527"/>
      <point x="142" y="510"/>
      <point x="144" y="506" type="curve" smooth="yes"/>
      <point x="146" y="503"/>
      <point x="146" y="465"/>
    </contour>
  </outline>
</glyph>
<glyph name="j" format="1">
  <advance width="222"/>
  <unicode hex="006A"/>
  <outline>
    <contour>
      <point x="84" y="94" type="curve" smooth="yes"/>
      <point x="84" y="253" type="line" smooth="yes"/>
      <point x="84" y="296"/>
      <point x="50" y="303"/>
      <point x="50" y="317" type="curve" smooth="yes"/>
      <point x="50" y="322"/>
      <point x="56" y="324"/>
      <point x="65" y="324" type="curve" smooth="yes"/>
      <point x="78" y="324"/>
      <point x="152" y="310"/>
      <point x="152" y="287" type="curve" smooth="yes"/>
      <point x="152" y="207"/>
      <point x="134" y="-266"/>
      <point x="-13" y="-266" type="curve" smooth="yes"/>
      <point x="-37" y="-266"/>
      <point x="-50" y="-257"/>
      <point x="-50" y="-243" type="curve" smooth="yes"/>
      <point x="-50" y="-232"/>
      <point x="-46" y="-224"/>
      <point x="-12" y="-224" type="curve" smooth="yes"/>
      <point x="48" y="-224"/>
      <point x="84" y="-219"/>
    </contour>
    <contour>
      <point x="146" y="440" type="curve" smooth="yes"/>
      <point x="146" y="415"/>
      <point x="145" y="411"/>
      <point x="138" y="411" type="curve" smooth="yes"/>
      <point x="125" y="411"/>
      <point x="90" y="421"/>
      <point x="89" y="438" type="curve" smooth="yes"/>
      <point x="87" y="466"/>
      <point x="84" y="494"/>
      <point x="84" y="522" type="curve" smooth="yes"/>
      <point x="84" y="527"/>
      <point x="87" y="527"/>
      <point x="92" y="527" type="curve" smooth="yes"/>
      <point x="109" y="527"/>
      <point x="142" y="510"/>
      <point x="144" y="506" type="curve" smooth="yes"/>
      <point x="146" y="503"/>
      <point x="146" y="465"/>
    </contour>
  </outline>
</glyph>
<glyph name="k" format="1">
  <advance width="500"/>
  <unicode hex="006B"/>
  <outline>
    <contour>
      <point x="194" y="119" type="curve"/>
      <point x="114" y="84" type="line"/>
      <point x="114" y="-5" type="line" smooth="yes"/>
      <point x="114" y="-10"/>
      <point x="114" y="-14"/>
      <point x="107" y="-14" type="curve" smooth="yes"/>
      <point x="102" y="-14"/>
      <point x="64" y="-9"/>
      <point x="64" y="13" type="curve" smooth="yes"/>
      <point x="64" y="446" type="line" smooth="yes"/>
      <point x="64" y="580"/>
      <point x="51" y="631"/>
      <point x="51" y="646" type="curve" smooth="yes"/>
      <point x="51" y="651"/>
      <point x="53" y="654"/>
      <point x="57" y="654" type="curve" smooth="yes"/>
      <point x="76" y="654"/>
      <point x="130" y="634"/>
      <point x="130" y="614" type="curve" smooth="yes"/>
      <point x="130" y="552"/>
      <point x="114" y="250"/>
      <point x="114" y="106" type="curve"/>
      <point x="314" y="207"/>
      <point x="378" y="346"/>
      <point x="401" y="346" type="curve" smooth="yes"/>
      <point x="415" y="346"/>
      <point x="422" y="305"/>
      <point x="422" y="295" type="curve" smooth="yes"/>
      <point x="422" y="265"/>
      <point x="351" y="213"/>
      <point x="255" y="157" type="curve"/>
      <point x="363" y="67" type="line" smooth="yes"/>
      <point x="425" y="15"/>
      <point x="442" y="6"/>
      <point x="484" y="4" type="curve"/>
      <point x="480" y="-16"/>
      <point x="455" y="-52"/>
      <point x="429" y="-52" type="curve" smooth="yes"/>
      <point x="408" y="-52"/>
      <point x="368" y="-20"/>
    </contour>
  </outline>
</glyph>
<glyph name="l" format="1">
  <advance width="222"/>
  <unicode hex="006C"/>
  <outline>
    <contour>
      <point x="83" y="13" type="curve" smooth="yes"/>
      <point x="83" y="446" type="line" smooth="yes"/>
      <point x="83" y="580"/>
      <point x="70" y="626"/>
      <point x="70" y="646" type="curve" smooth="yes"/>
      <point x="70" y="650"/>
      <point x="73" y="654"/>
      <point x="79" y="654" type="curve" smooth="yes"/>
      <point x="98" y="654"/>
      <point x="152" y="634"/>
      <point x="152" y="614" type="curve" smooth="yes"/>
      <point x="152" y="470"/>
      <point x="139" y="378"/>
      <point x="139" y="162" type="curve" smooth="yes"/>
      <point x="139" y="30"/>
      <point x="144" y="2"/>
      <point x="144" y="-6" type="curve" smooth="yes"/>
      <point x="144" y="-11"/>
      <point x="141" y="-14"/>
      <point x="132" y="-14" type="curve" smooth="yes"/>
      <point x="123" y="-14"/>
      <point x="83" y="-10"/>
    </contour>
  </outline>
</glyph>
<glyph name="m" format="1">
  <advance width="722"/>
  <unicode hex="006D"/>
  <outline>
    <contour>
      <point x="78" y="209" type="curve" smooth="yes"/>
      <point x="78" y="287"/>
      <point x="73" y="293"/>
      <point x="73" y="302" type="curve" smooth="yes"/>
      <point x="73" y="307"/>
      <point x="75" y="310"/>
      <point x="81" y="310" type="curve" smooth="yes"/>
      <point x="106" y="310"/>
      <point x="146" y="296"/>
      <point x="146" y="273" type="curve" smooth="yes"/>
      <point x="146" y="266"/>
      <point x="143" y="234"/>
      <point x="130" y="166" type="curve" smooth="yes"/>
      <point x="114" y="80" type="line"/>
      <point x="116" y="80" type="line"/>
      <point x="148" y="168"/>
      <point x="264" y="283"/>
      <point x="322" y="283" type="curve" smooth="yes"/>
      <point x="347" y="283"/>
      <point x="368" y="274"/>
      <point x="366" y="214" type="curve" smooth="yes"/>
      <point x="364" y="145"/>
      <point x="361" y="115"/>
      <point x="358" y="80" type="curve"/>
      <point x="360" y="80" type="line"/>
      <point x="382" y="140"/>
      <point x="488" y="297"/>
      <point x="567" y="297" type="curve" smooth="yes"/>
      <point x="595" y="297"/>
      <point x="613" y="285"/>
      <point x="622" y="244" type="curve" smooth="yes"/>
      <point x="662" y="65" type="line" smooth="yes"/>
      <point x="668" y="39"/>
      <point x="675" y="26"/>
      <point x="685" y="25" type="curve" smooth="yes"/>
      <point x="694" y="24"/>
      <point x="696" y="22"/>
      <point x="696" y="16" type="curve" smooth="yes"/>
      <point x="696" y="6"/>
      <point x="648" y="-25"/>
      <point x="627" y="-25" type="curve" smooth="yes"/>
      <point x="616" y="-25"/>
      <point x="615" y="-18"/>
      <point x="599" y="57" type="curve" smooth="yes"/>
      <point x="565" y="215"/>
      <point x="549" y="241"/>
      <point x="521" y="241" type="curve" smooth="yes"/>
      <point x="470" y="241"/>
      <point x="368" y="76"/>
      <point x="356" y="24" type="curve" smooth="yes"/>
      <point x="351" y="0"/>
      <point x="347" y="0"/>
      <point x="340" y="0" type="curve" smooth="yes"/>
      <point x="332" y="0"/>
      <point x="304" y="6"/>
      <point x="304" y="21" type="curve" smooth="yes"/>
      <point x="304" y="38"/>
      <point x="316" y="93"/>
      <point x="316" y="169" type="curve" smooth="yes"/>
      <point x="316" y="226"/>
      <point x="304" y="233"/>
      <point x="281" y="233" type="curve" smooth="yes"/>
      <point x="234" y="233"/>
      <point x="144" y="130"/>
      <point x="113" y="16" type="curve" smooth="yes"/>
      <point x="110" y="7"/>
      <point x="108" y="0"/>
      <point x="103" y="0" type="curve" smooth="yes"/>
      <point x="92" y="0"/>
      <point x="67" y="3"/>
      <point x="67" y="19" type="curve" smooth="yes"/>
      <point x="67" y="32"/>
      <point x="78" y="122"/>
    </contour>
  </outline>
</glyph>
<glyph name="n" format="1">
  <advance width="500"/>
  <unicode hex="006E"/>
  <outline>
    <contour>
      <point x="386" y="27" type="curve" smooth="yes"/>
      <point x="355" y="159" type="line" smooth="yes"/>
      <point x="338" y="232"/>
      <point x="327" y="260"/>
      <point x="295" y="260" type="curve" smooth="yes"/>
      <point x="249" y="260"/>
      <point x="163" y="156"/>
      <point x="119" y="26" type="curve" smooth="yes"/>
      <point x="116" y="15"/>
      <point x="114" y="12"/>
      <point x="109" y="12" type="curve" smooth="yes"/>
      <point x="102" y="12"/>
      <point x="67" y="17"/>
      <point x="67" y="37" type="curve" smooth="yes"/>
      <point x="67" y="57"/>
      <point x="77" y="101"/>
      <point x="77" y="218" type="curve" smooth="yes"/>
      <point x="77" y="293"/>
      <point x="69" y="312"/>
      <point x="69" y="323" type="curve" smooth="yes"/>
      <point x="69" y="327"/>
      <point x="71" y="330"/>
      <point x="75" y="330" type="curve" smooth="yes"/>
      <point x="81" y="330"/>
      <point x="139" y="313"/>
      <point x="139" y="299" type="curve" smooth="yes"/>
      <point x="139" y="283"/>
      <point x="133" y="227"/>
      <point x="127" y="183" type="curve" smooth="yes"/>
      <point x="114" y="83" type="line"/>
      <point x="116" y="83" type="line"/>
      <point x="154" y="166"/>
      <point x="247" y="310"/>
      <point x="342" y="310" type="curve" smooth="yes"/>
      <point x="385" y="310"/>
      <point x="395" y="280"/>
      <point x="407" y="227" type="curve" smooth="yes"/>
      <point x="443" y="67" type="line" smooth="yes"/>
      <point x="445" y="57"/>
      <point x="452" y="30"/>
      <point x="469" y="30" type="curve" smooth="yes"/>
      <point x="472" y="30"/>
      <point x="474" y="29"/>
      <point x="474" y="25" type="curve" smooth="yes"/>
      <point x="473" y="8"/>
      <point x="423" y="-14"/>
      <point x="409" y="-14" type="curve" smooth="yes"/>
      <point x="398" y="-14"/>
      <point x="393" y="-1"/>
    </contour>
  </outline>
</glyph>
<glyph name="o" format="1">
  <advance width="500"/>
  <unicode hex="006F"/>
  <outline>
    <contour>
      <point x="461" y="186" type="curve" smooth="yes"/>
      <point x="461" y="125"/>
      <point x="400" y="-7"/>
      <point x="198" y="-7" type="curve" smooth="yes"/>
      <point x="90" y="-7"/>
      <point x="39" y="34"/>
      <point x="39" y="112" type="curve" smooth="yes"/>
      <point x="39" y="228"/>
      <point x="174" y="303"/>
      <point x="294" y="303" type="curve" smooth="yes"/>
      <point x="372" y="303"/>
      <point x="461" y="279"/>
    </contour>
    <contour>
      <point x="101" y="149" type="curve" smooth="yes"/>
      <point x="101" y="70"/>
      <point x="185" y="23"/>
      <point x="256" y="23" type="curve" smooth="yes"/>
      <point x="332" y="23"/>
      <point x="399" y="72"/>
      <point x="399" y="149" type="curve" smooth="yes"/>
      <point x="399" y="232"/>
      <point x="336" y="273"/>
      <point x="250" y="273" type="curve" smooth="yes"/>
      <point x="182" y="273"/>
      <point x="101" y="227"/>
    </contour>
  </outline>
</glyph>
<glyph name="p" format="1">
  <advance width="556"/>
  <unicode hex="0070"/>
  <outline>
    <contour>
      <point x="89" y="-14" type="curve" smooth="yes"/>
      <point x="89" y="208" type="line" smooth="yes"/>
      <point x="89" y="275"/>
      <point x="89" y="241"/>
      <point x="84" y="313" type="curve" smooth="yes"/>
      <point x="84" y="319"/>
      <point x="87" y="324"/>
      <point x="93" y="324" type="curve" smooth="yes"/>
      <point x="105" y="324"/>
      <point x="157" y="305"/>
      <point x="157" y="279" type="curve" smooth="yes"/>
      <point x="157" y="259"/>
      <point x="154" y="240"/>
      <point x="152" y="222" type="curve"/>
      <point x="154" y="222" type="line"/>
      <point x="212" y="287"/>
      <point x="306" y="330"/>
      <point x="396" y="330" type="curve" smooth="yes"/>
      <point x="466" y="330"/>
      <point x="517" y="298"/>
      <point x="517" y="226" type="curve" smooth="yes"/>
      <point x="517" y="121"/>
      <point x="380" y="-14"/>
      <point x="276" y="-14" type="curve" smooth="yes"/>
      <point x="235" y="-14"/>
      <point x="168" y="-1"/>
      <point x="168" y="37" type="curve" smooth="yes"/>
      <point x="168" y="41"/>
      <point x="172" y="46"/>
      <point x="176" y="46" type="curve" smooth="yes"/>
      <point x="186" y="46"/>
      <point x="200" y="22"/>
      <point x="287" y="22" type="curve" smooth="yes"/>
      <point x="391" y="22"/>
      <point x="443" y="87"/>
      <point x="443" y="188" type="curve" smooth="yes"/>
      <point x="443" y="265"/>
      <point x="396" y="294"/>
      <point x="347" y="294" type="curve" smooth="yes"/>
      <point x="293" y="294"/>
      <point x="152" y="268"/>
      <point x="146" y="98" type="curve" smooth="yes"/>
      <point x="133" y="-251" type="line" smooth="yes"/>
      <point x="133" y="-264"/>
      <point x="131" y="-266"/>
      <point x="124" y="-266" type="curve" smooth="yes"/>
      <point x="114" y="-266"/>
      <point x="81" y="-253"/>
      <point x="81" y="-238" type="curve" smooth="yes"/>
      <point x="81" y="-233"/>
      <point x="89" y="-189"/>
    </contour>
  </outline>
</glyph>
<glyph name="q" format="1">
  <advance width="556"/>
  <unicode hex="0071"/>
  <outline>
    <contour>
      <point x="404" y="259" type="curve"/>
      <point x="407" y="300" type="line" smooth="yes"/>
      <point x="407" y="308"/>
      <point x="409" y="310"/>
      <point x="413" y="310" type="curve" smooth="yes"/>
      <point x="430" y="310"/>
      <point x="475" y="295"/>
      <point x="475" y="273" type="curve" smooth="yes"/>
      <point x="475" y="248"/>
      <point x="466" y="179"/>
      <point x="463" y="137" type="curve" smooth="yes"/>
      <point x="454" y="19"/>
      <point x="444" y="-81"/>
      <point x="444" y="-176" type="curve" smooth="yes"/>
      <point x="444" y="-198"/>
      <point x="445" y="-221"/>
      <point x="445" y="-240" type="curve" smooth="yes"/>
      <point x="445" y="-247"/>
      <point x="443" y="-250"/>
      <point x="435" y="-250" type="curve" smooth="yes"/>
      <point x="428" y="-250"/>
      <point x="391" y="-234"/>
      <point x="391" y="-221" type="curve" smooth="yes"/>
      <point x="391" y="-125"/>
      <point x="402" y="28"/>
      <point x="402" y="72" type="curve"/>
      <point x="340" y="17"/>
      <point x="242" y="-7"/>
      <point x="161" y="-7" type="curve" smooth="yes"/>
      <point x="99" y="-7"/>
      <point x="39" y="19"/>
      <point x="39" y="91" type="curve" smooth="yes"/>
      <point x="39" y="190"/>
      <point x="192" y="324"/>
      <point x="294" y="324" type="curve" smooth="yes"/>
      <point x="343" y="324"/>
      <point x="374" y="294"/>
    </contour>
    <contour>
      <point x="401" y="107" type="curve" smooth="yes"/>
      <point x="401" y="225" type="line" smooth="yes"/>
      <point x="401" y="247"/>
      <point x="345" y="294"/>
      <point x="270" y="294" type="curve" smooth="yes"/>
      <point x="181" y="294"/>
      <point x="113" y="200"/>
      <point x="113" y="124" type="curve" smooth="yes"/>
      <point x="113" y="55"/>
      <point x="168" y="23"/>
      <point x="225" y="23" type="curve" smooth="yes"/>
      <point x="308" y="23"/>
      <point x="401" y="86"/>
    </contour>
  </outline>
</glyph>
<glyph name="r" format="1">
  <advance width="389"/>
  <unicode hex="0072"/>
  <outline>
    <contour>
      <point x="256" y="266" type="curve"/>
      <point x="259" y="271" type="line"/>
      <point x="259" y="308"/>
      <point x="285" y="347"/>
      <point x="312" y="347" type="curve" smooth="yes"/>
      <point x="316" y="347"/>
      <point x="319" y="346"/>
      <point x="319" y="340" type="curve" smooth="yes"/>
      <point x="319" y="339"/>
      <point x="331" y="229"/>
      <point x="382" y="220" type="curve" smooth="yes"/>
      <point x="393" y="218"/>
      <point x="395" y="217"/>
      <point x="395" y="214" type="curve" smooth="yes"/>
      <point x="395" y="203"/>
      <point x="369" y="196"/>
      <point x="347" y="196" type="curve" smooth="yes"/>
      <point x="309" y="196"/>
      <point x="277" y="216"/>
      <point x="266" y="247" type="curve"/>
      <point x="209" y="166" type="line" smooth="yes"/>
      <point x="192" y="142"/>
      <point x="139" y="70"/>
      <point x="130" y="15" type="curve" smooth="yes"/>
      <point x="128" y="3"/>
      <point x="126" y="0"/>
      <point x="121" y="0" type="curve" smooth="yes"/>
      <point x="111" y="0"/>
      <point x="83" y="4"/>
      <point x="83" y="19" type="curve" smooth="yes"/>
      <point x="83" y="28"/>
      <point x="94" y="118"/>
      <point x="94" y="172" type="curve" smooth="yes"/>
      <point x="94" y="236"/>
      <point x="88" y="275"/>
      <point x="88" y="288" type="curve" smooth="yes"/>
      <point x="88" y="300"/>
      <point x="96" y="303"/>
      <point x="107" y="303" type="curve" smooth="yes"/>
      <point x="122" y="303"/>
      <point x="156" y="289"/>
      <point x="156" y="270" type="curve" smooth="yes"/>
      <point x="156" y="240"/>
      <point x="141" y="147"/>
      <point x="133" y="90" type="curve"/>
      <point x="135" y="88" type="line"/>
      <point x="164" y="155"/>
      <point x="211" y="210"/>
    </contour>
  </outline>
</glyph>
<glyph name="s" format="1">
  <advance width="444"/>
  <unicode hex="0073"/>
  <outline>
    <contour>
      <point x="49" y="46" type="curve" smooth="yes"/>
      <point x="49" y="62"/>
      <point x="52" y="67"/>
      <point x="55" y="67" type="curve" smooth="yes"/>
      <point x="60" y="67"/>
      <point x="146" y="16"/>
      <point x="238" y="16" type="curve" smooth="yes"/>
      <point x="280" y="16"/>
      <point x="329" y="22"/>
      <point x="329" y="92" type="curve" smooth="yes"/>
      <point x="329" y="137"/>
      <point x="261" y="139"/>
      <point x="192" y="143" type="curve" smooth="yes"/>
      <point x="123" y="147"/>
      <point x="55" y="153"/>
      <point x="55" y="205" type="curve" smooth="yes"/>
      <point x="55" y="299"/>
      <point x="222" y="324"/>
      <point x="292" y="324" type="curve" smooth="yes"/>
      <point x="353" y="324"/>
      <point x="390" y="309"/>
      <point x="390" y="277" type="curve" smooth="yes"/>
      <point x="390" y="269"/>
      <point x="386" y="252"/>
      <point x="379" y="252" type="curve" smooth="yes"/>
      <point x="370" y="252"/>
      <point x="330" y="294"/>
      <point x="227" y="294" type="curve" smooth="yes"/>
      <point x="188" y="294"/>
      <point x="121" y="285"/>
      <point x="121" y="235" type="curve" smooth="yes"/>
      <point x="121" y="198"/>
      <point x="190" y="194"/>
      <point x="254" y="187" type="curve" smooth="yes"/>
      <point x="329" y="179"/>
      <point x="395" y="167"/>
      <point x="395" y="116" type="curve" smooth="yes"/>
      <point x="395" y="14"/>
      <point x="251" y="-14"/>
      <point x="177" y="-14" type="curve" smooth="yes"/>
      <point x="78" y="-14"/>
      <point x="49" y="4"/>
    </contour>
  </outline>
</glyph>
<glyph name="t" format="1">
  <advance width="278"/>
  <unicode hex="0074"/>
  <outline>
    <contour>
      <point x="117" y="250" type="line"/>
      <point x="41" y="250" type="line" smooth="yes"/>
      <point x="24" y="250"/>
      <point x="13" y="280"/>
      <point x="13" y="287" type="curve" smooth="yes"/>
      <point x="13" y="290"/>
      <point x="15" y="294"/>
      <point x="21" y="294" type="curve" smooth="yes"/>
      <point x="33" y="294"/>
      <point x="61" y="288"/>
      <point x="118" y="285" type="curve"/>
      <point x="119" y="400"/>
      <point x="113" y="455"/>
      <point x="113" y="475" type="curve" smooth="yes"/>
      <point x="113" y="486"/>
      <point x="117" y="492"/>
      <point x="123" y="492" type="curve" smooth="yes"/>
      <point x="134" y="492"/>
      <point x="184" y="478"/>
      <point x="184" y="455" type="curve" smooth="yes"/>
      <point x="184" y="443"/>
      <point x="174" y="427"/>
      <point x="165" y="283" type="curve"/>
      <point x="264" y="285"/>
      <point x="284" y="288"/>
      <point x="288" y="288" type="curve" smooth="yes"/>
      <point x="295" y="288"/>
      <point x="297" y="285"/>
      <point x="297" y="279" type="curve" smooth="yes"/>
      <point x="297" y="265"/>
      <point x="260" y="259"/>
      <point x="167" y="252" type="curve"/>
      <point x="164" y="222"/>
      <point x="161" y="174"/>
      <point x="161" y="119" type="curve" smooth="yes"/>
      <point x="161" y="49"/>
      <point x="163" y="21"/>
      <point x="163" y="-2" type="curve" smooth="yes"/>
      <point x="163" y="-14"/>
      <point x="154" y="-14"/>
      <point x="147" y="-14" type="curve" smooth="yes"/>
      <point x="128" y="-14"/>
      <point x="104" y="-6"/>
      <point x="104" y="6" type="curve" smooth="yes"/>
      <point x="104" y="25"/>
      <point x="117" y="117"/>
      <point x="117" y="193" type="curve" smooth="yes"/>
    </contour>
  </outline>
</glyph>
<glyph name="v" format="1">
  <advance width="444"/>
  <unicode hex="0076"/>
  <outline>
    <contour>
      <point x="424" y="262" type="curve" smooth="yes"/>
      <point x="424" y="191"/>
      <point x="215" y="-25"/>
      <point x="183" y="-25" type="curve" smooth="yes"/>
      <point x="148" y="-25"/>
      <point x="84" y="252"/>
      <point x="18" y="285" type="curve" smooth="yes"/>
      <point x="12" y="288"/>
      <point x="10" y="291"/>
      <point x="10" y="295" type="curve" smooth="yes"/>
      <point x="10" y="301"/>
      <point x="15" y="303"/>
      <point x="26" y="303" type="curve" smooth="yes"/>
      <point x="59" y="303"/>
      <point x="103" y="302"/>
      <point x="110" y="284" type="curve" smooth="yes"/>
      <point x="178" y="110" type="line" smooth="yes"/>
      <point x="182" y="100"/>
      <point x="209" y="31"/>
      <point x="221" y="31" type="curve" smooth="yes"/>
      <point x="248" y="31"/>
      <point x="368" y="197"/>
      <point x="368" y="315" type="curve" smooth="yes"/>
      <point x="368" y="333"/>
      <point x="368" y="338"/>
      <point x="374" y="338" type="curve" smooth="yes"/>
      <point x="389" y="338"/>
      <point x="424" y="282"/>
    </contour>
  </outline>
</glyph>
<glyph name="w" format="1">
  <advance width="722"/>
  <unicode hex="0077"/>
  <outline>
    <contour>
      <point x="685" y="273" type="curve" smooth="yes"/>
      <point x="685" y="154"/>
      <point x="522" y="-14"/>
      <point x="483" y="-14" type="curve" smooth="yes"/>
      <point x="441" y="-14"/>
      <point x="368" y="211"/>
      <point x="350" y="211" type="curve" smooth="yes"/>
      <point x="340" y="211"/>
      <point x="219" y="-25"/>
      <point x="185" y="-25" type="curve" smooth="yes"/>
      <point x="160" y="-25"/>
      <point x="100" y="235"/>
      <point x="24" y="311" type="curve" smooth="yes"/>
      <point x="21" y="314"/>
      <point x="20" y="316"/>
      <point x="20" y="318" type="curve" smooth="yes"/>
      <point x="20" y="324"/>
      <point x="25" y="324"/>
      <point x="42" y="324" type="curve" smooth="yes"/>
      <point x="60" y="324"/>
      <point x="110" y="324"/>
      <point x="120" y="297" type="curve" smooth="yes"/>
      <point x="200" y="89" type="line" smooth="yes"/>
      <point x="211" y="59"/>
      <point x="214" y="55"/>
      <point x="221" y="55" type="curve" smooth="yes"/>
      <point x="248" y="55"/>
      <point x="362" y="303"/>
      <point x="375" y="303" type="curve" smooth="yes"/>
      <point x="398" y="303"/>
      <point x="476" y="42"/>
      <point x="524" y="42" type="curve" smooth="yes"/>
      <point x="566" y="42"/>
      <point x="623" y="176"/>
      <point x="623" y="258" type="curve" smooth="yes"/>
      <point x="623" y="310"/>
      <point x="613" y="333"/>
      <point x="613" y="339" type="curve" smooth="yes"/>
      <point x="613" y="343"/>
      <point x="615" y="344"/>
      <point x="620" y="344" type="curve" smooth="yes"/>
      <point x="628" y="344"/>
      <point x="685" y="324"/>
    </contour>
  </outline>
</glyph>
<glyph name="x" format="1">
  <advance width="500"/>
  <unicode hex="0078"/>
  <outline>
    <contour>
      <point x="441" y="295" type="curve" smooth="yes"/>
      <point x="441" y="276"/>
      <point x="338" y="266"/>
      <point x="255" y="183" type="curve"/>
      <point x="386" y="20"/>
      <point x="440" y="20"/>
      <point x="440" y="2" type="curve" smooth="yes"/>
      <point x="440" y="-9"/>
      <point x="393" y="-25"/>
      <point x="375" y="-25" type="curve" smooth="yes"/>
      <point x="350" y="-25"/>
      <point x="292" y="46"/>
      <point x="218" y="144" type="curve"/>
      <point x="133" y="33"/>
      <point x="86" y="-94"/>
      <point x="62" y="-94" type="curve" smooth="yes"/>
      <point x="52" y="-94"/>
      <point x="32" y="-68"/>
      <point x="32" y="-58" type="curve" smooth="yes"/>
      <point x="32" y="-45"/>
      <point x="72" y="12"/>
      <point x="204" y="159" type="curve"/>
      <point x="114" y="265"/>
      <point x="32" y="296"/>
      <point x="32" y="313" type="curve" smooth="yes"/>
      <point x="32" y="321"/>
      <point x="66" y="324"/>
      <point x="82" y="324" type="curve" smooth="yes"/>
      <point x="99" y="324"/>
      <point x="134" y="324"/>
      <point x="152" y="304" type="curve" smooth="yes"/>
      <point x="243" y="200" type="line"/>
      <point x="328" y="294"/>
      <point x="386" y="330"/>
      <point x="409" y="330" type="curve" smooth="yes"/>
      <point x="424" y="330"/>
      <point x="441" y="308"/>
    </contour>
  </outline>
</glyph>
<glyph name="z" format="1">
  <advance width="500"/>
  <unicode hex="007A"/>
  <outline>
    <contour>
      <point x="354" y="182" type="curve" smooth="yes"/>
      <point x="222" y="114" type="line" smooth="yes"/>
      <point x="132" y="67"/>
      <point x="124" y="63"/>
      <point x="124" y="56" type="curve" smooth="yes"/>
      <point x="124" y="30"/>
      <point x="295" y="30"/>
      <point x="328" y="30" type="curve" smooth="yes"/>
      <point x="369" y="30"/>
      <point x="454" y="39"/>
      <point x="472" y="39" type="curve" smooth="yes"/>
      <point x="477" y="39"/>
      <point x="478" y="36"/>
      <point x="478" y="32" type="curve" smooth="yes"/>
      <point x="478" y="22"/>
      <point x="343" y="-14"/>
      <point x="155" y="-14" type="curve" smooth="yes"/>
      <point x="91" y="-14"/>
      <point x="32" y="-11"/>
      <point x="32" y="16" type="curve" smooth="yes"/>
      <point x="32" y="60"/>
      <point x="365" y="199"/>
      <point x="365" y="273" type="curve" smooth="yes"/>
      <point x="365" y="292"/>
      <point x="337" y="292"/>
      <point x="323" y="292" type="curve" smooth="yes"/>
      <point x="226" y="292"/>
      <point x="86" y="240"/>
      <point x="72" y="240" type="curve" smooth="yes"/>
      <point x="63" y="240"/>
      <point x="63" y="248"/>
      <point x="63" y="252" type="curve" smooth="yes"/>
      <point x="63" y="265"/>
      <point x="102" y="304"/>
      <point x="116" y="307" type="curve" smooth="yes"/>
      <point x="155" y="316"/>
      <point x="185" y="316"/>
      <point x="211" y="316" type="curve" smooth="yes"/>
      <point x="384" y="316"/>
      <point x="445" y="303"/>
      <point x="445" y="265" type="curve" smooth="yes"/>
      <point x="445" y="234"/>
      <point x="423" y="218"/>
    </contour>
  </outline>
</glyph>
<glyph name="braceleft" format="1">
  <advance width="278"/>
  <unicode hex="007B"/>
  <outline>
    <contour>
      <point x="138" y="-15" type="curve" smooth="yes"/>
      <point x="138" y="143" type="line" smooth="yes"/>
      <point x="138" y="201"/>
      <point x="124" y="229"/>
      <point x="62" y="245" type="curve"/>
      <point x="124" y="261"/>
      <point x="138" y="289"/>
      <point x="138" y="347" type="curve" smooth="yes"/>
      <point x="138" y="505" type="line" smooth="yes"/>
      <point x="138" y="612"/>
      <point x="193" y="630"/>
      <point x="271" y="630" type="curve"/>
      <point x="271" y="618" type="line"/>
      <point x="200" y="606"/>
      <point x="182" y="572"/>
      <point x="182" y="510" type="curve" smooth="yes"/>
      <point x="182" y="360" type="line" smooth="yes"/>
      <point x="182" y="297"/>
      <point x="170" y="261"/>
      <point x="107" y="246" type="curve"/>
      <point x="107" y="244" type="line"/>
      <point x="170" y="229"/>
      <point x="182" y="193"/>
      <point x="182" y="130" type="curve" smooth="yes"/>
      <point x="182" y="-20" type="line" smooth="yes"/>
      <point x="182" y="-82"/>
      <point x="200" y="-116"/>
      <point x="271" y="-128" type="curve"/>
      <point x="271" y="-140" type="line"/>
      <point x="193" y="-140"/>
      <point x="138" y="-122"/>
    </contour>
  </outline>
</glyph>
<glyph name="braceright" format="1">
  <advance width="278"/>
  <unicode hex="007D"/>
  <outline>
    <contour>
      <point x="140" y="505" type="curve" smooth="yes"/>
      <point x="140" y="347" type="line" smooth="yes"/>
      <point x="140" y="289"/>
      <point x="154" y="261"/>
      <point x="216" y="245" type="curve"/>
      <point x="154" y="229"/>
      <point x="140" y="201"/>
      <point x="140" y="143" type="curve" smooth="yes"/>
      <point x="140" y="-15" type="line" smooth="yes"/>
      <point x="140" y="-122"/>
      <point x="85" y="-140"/>
      <point x="7" y="-140" type="curve"/>
      <point x="7" y="-128" type="line"/>
      <point x="78" y="-116"/>
      <point x="96" y="-82"/>
      <point x="96" y="-20" type="curve" smooth="yes"/>
      <point x="96" y="130" type="line" smooth="yes"/>
      <point x="96" y="193"/>
      <point x="108" y="229"/>
      <point x="171" y="244" type="curve"/>
      <point x="171" y="246" type="line"/>
      <point x="108" y="261"/>
      <point x="96" y="297"/>
      <point x="96" y="360" type="curve" smooth="yes"/>
      <point x="96" y="510" type="line" smooth="yes"/>
      <point x="96" y="572"/>
      <point x="78" y="606"/>
      <point x="7" y="618" type="curve"/>
      <point x="7" y="630" type="line"/>
      <point x="85" y="630"/>
      <point x="140" y="612"/>
    </contour>
  </outline>
</glyph>
<glyph name="asciitilde" format="1">
  <advance width="600"/>
  <unicode hex="007E"/>
  <outline>
    <contour>
      <point x="495" y="316" type="curve"/>
      <point x="531" y="280" type="line"/>
      <point x="501" y="238"/>
      <point x="468" y="194"/>
      <point x="406" y="194" type="curve" smooth="yes"/>
      <point x="366" y="194"/>
      <point x="331" y="213"/>
      <point x="302" y="228" type="curve" smooth="yes"/>
      <point x="261" y="249"/>
      <point x="235" y="262"/>
      <point x="196" y="262" type="curve" smooth="yes"/>
      <point x="145" y="262"/>
      <point x="121" y="225"/>
      <point x="105" y="190" type="curve"/>
      <point x="69" y="226" type="line"/>
      <point x="91" y="268"/>
      <point x="127" y="312"/>
      <point x="194" y="312" type="curve" smooth="yes"/>
      <point x="228" y="312"/>
      <point x="267" y="297"/>
      <point x="305" y="280" type="curve" smooth="yes"/>
      <point x="342" y="264"/>
      <point x="380" y="244"/>
      <point x="407" y="244" type="curve" smooth="yes"/>
      <point x="447" y="244"/>
      <point x="472" y="281"/>
    </contour>
  </outline>
</glyph>
<glyph name="exclamdown" format="1">
  <advance width="278"/>
  <unicode hex="00A1"/>
  <outline>
    <contour>
      <point x="86" y="-219" type="curve" smooth="yes"/>
      <point x="86" y="-188"/>
      <point x="112" y="-126"/>
      <point x="112" y="188" type="curve" smooth="yes"/>
      <point x="112" y="194"/>
      <point x="116" y="195"/>
      <point x="120" y="195" type="curve" smooth="yes"/>
      <point x="126" y="195"/>
      <point x="159" y="181"/>
      <point x="159" y="171" type="curve" smooth="yes"/>
      <point x="159" y="126"/>
      <point x="154" y="81"/>
      <point x="154" y="36" type="curve" smooth="yes"/>
      <point x="154" y="-58"/>
      <point x="160" y="-153"/>
      <point x="160" y="-247" type="curve" smooth="yes"/>
      <point x="160" y="-261"/>
      <point x="155" y="-266"/>
      <point x="145" y="-266" type="curve" smooth="yes"/>
      <point x="136" y="-266"/>
      <point x="86" y="-246"/>
    </contour>
    <contour>
      <point x="134" y="239" type="curve" smooth="yes"/>
      <point x="113" y="245" type="line" smooth="yes"/>
      <point x="106" y="247"/>
      <point x="106" y="249"/>
      <point x="106" y="311" type="curve" smooth="yes"/>
      <point x="106" y="348"/>
      <point x="107" y="350"/>
      <point x="116" y="350" type="curve" smooth="yes"/>
      <point x="122" y="350"/>
      <point x="165" y="345"/>
      <point x="166" y="328" type="curve" smooth="yes"/>
      <point x="168" y="304"/>
      <point x="168" y="282"/>
      <point x="168" y="255" type="curve" smooth="yes"/>
      <point x="168" y="241"/>
      <point x="168" y="234"/>
      <point x="159" y="234" type="curve" smooth="yes"/>
      <point x="155" y="234"/>
      <point x="151" y="234"/>
    </contour>
  </outline>
</glyph>
<glyph name="cent" format="1">
  <advance width="556"/>
  <unicode hex="00A2"/>
  <outline>
    <contour>
      <point x="328" y="280" type="curve"/>
      <point x="260" y="19" type="line"/>
      <point x="275" y="16"/>
      <point x="289" y="16"/>
      <point x="301" y="16" type="curve" smooth="yes"/>
      <point x="408" y="16"/>
      <point x="485" y="77"/>
      <point x="501" y="77" type="curve" smooth="yes"/>
      <point x="504" y="77"/>
      <point x="509" y="76"/>
      <point x="509" y="69" type="curve" smooth="yes"/>
      <point x="509" y="42"/>
      <point x="383" y="-7"/>
      <point x="251" y="-14" type="curve"/>
      <point x="237" y="-69" type="line" smooth="yes"/>
      <point x="235" y="-78"/>
      <point x="224" y="-81"/>
      <point x="217" y="-81" type="curve" smooth="yes"/>
      <point x="215" y="-81"/>
      <point x="213" y="-80"/>
      <point x="213" y="-77" type="curve" smooth="yes"/>
      <point x="213" y="-74"/>
      <point x="223" y="-40"/>
      <point x="224" y="-34" type="curve" smooth="yes"/>
      <point x="229" y="-14" type="line"/>
      <point x="161" y="-14"/>
      <point x="64" y="-3"/>
      <point x="64" y="85" type="curve" smooth="yes"/>
      <point x="64" y="200"/>
      <point x="204" y="294"/>
      <point x="316" y="316" type="curve"/>
      <point x="330" y="372" type="line" smooth="yes"/>
      <point x="331" y="377"/>
      <point x="347" y="380"/>
      <point x="350" y="380" type="curve" smooth="yes"/>
      <point x="352" y="380"/>
      <point x="353" y="379"/>
      <point x="353" y="378" type="curve" smooth="yes"/>
      <point x="353" y="376"/>
      <point x="348" y="355"/>
      <point x="347" y="353" type="curve" smooth="yes"/>
      <point x="339" y="321" type="line"/>
      <point x="349" y="323"/>
      <point x="360" y="324"/>
      <point x="370" y="324" type="curve" smooth="yes"/>
      <point x="401" y="324"/>
      <point x="462" y="317"/>
      <point x="462" y="274" type="curve" smooth="yes"/>
      <point x="462" y="265"/>
      <point x="461" y="254"/>
      <point x="454" y="254" type="curve" smooth="yes"/>
      <point x="448" y="254"/>
      <point x="401" y="277"/>
    </contour>
    <contour>
      <point x="238" y="22" type="curve"/>
      <point x="306" y="280" type="line"/>
      <point x="223" y="277"/>
      <point x="138" y="215"/>
      <point x="138" y="122" type="curve" smooth="yes"/>
      <point x="138" y="58"/>
      <point x="187" y="31"/>
    </contour>
  </outline>
</glyph>
<glyph name="sterling" format="1">
  <advance width="556"/>
  <unicode hex="00A3"/>
  <outline>
    <contour>
      <point x="336" y="276" type="curve" smooth="yes"/>
      <point x="227" y="268" type="line"/>
      <point x="234" y="234"/>
      <point x="239" y="206"/>
      <point x="239" y="181" type="curve" smooth="yes"/>
      <point x="239" y="119"/>
      <point x="162" y="53"/>
      <point x="140" y="44" type="curve"/>
      <point x="140" y="42" type="line"/>
      <point x="219" y="38"/>
      <point x="291" y="36"/>
      <point x="367" y="36" type="curve" smooth="yes"/>
      <point x="425" y="36"/>
      <point x="488" y="41"/>
      <point x="539" y="41" type="curve" smooth="yes"/>
      <point x="541" y="41"/>
      <point x="542" y="39"/>
      <point x="542" y="36" type="curve" smooth="yes"/>
      <point x="542" y="32"/>
      <point x="540" y="19"/>
      <point x="516" y="16" type="curve" smooth="yes"/>
      <point x="398" y="0"/>
      <point x="220" y="-14"/>
      <point x="120" y="-14" type="curve" smooth="yes"/>
      <point x="49" y="-14"/>
      <point x="38" y="31"/>
      <point x="38" y="41" type="curve" smooth="yes"/>
      <point x="38" y="48"/>
      <point x="44" y="48"/>
      <point x="54" y="48" type="curve" smooth="yes"/>
      <point x="130" y="48"/>
      <point x="189" y="100"/>
      <point x="189" y="140" type="curve" smooth="yes"/>
      <point x="189" y="168"/>
      <point x="171" y="237"/>
      <point x="162" y="265" type="curve"/>
      <point x="136" y="263"/>
      <point x="108" y="261"/>
      <point x="86" y="261" type="curve" smooth="yes"/>
      <point x="68" y="261"/>
      <point x="54" y="303"/>
      <point x="54" y="314" type="curve" smooth="yes"/>
      <point x="54" y="320"/>
      <point x="57" y="323"/>
      <point x="64" y="323" type="curve" smooth="yes"/>
      <point x="75" y="323"/>
      <point x="113" y="315"/>
      <point x="151" y="313" type="curve"/>
      <point x="147" y="335"/>
      <point x="144" y="369"/>
      <point x="144" y="389" type="curve" smooth="yes"/>
      <point x="144" y="529"/>
      <point x="292" y="600"/>
      <point x="405" y="600" type="curve" smooth="yes"/>
      <point x="433" y="600"/>
      <point x="518" y="588"/>
      <point x="518" y="489" type="curve" smooth="yes"/>
      <point x="518" y="453"/>
      <point x="501" y="430"/>
      <point x="486" y="430" type="curve" smooth="yes"/>
      <point x="443" y="430"/>
      <point x="492" y="570"/>
      <point x="367" y="570" type="curve" smooth="yes"/>
      <point x="254" y="570"/>
      <point x="218" y="444"/>
      <point x="218" y="354" type="curve" smooth="yes"/>
      <point x="218" y="339"/>
      <point x="219" y="323"/>
      <point x="221" y="309" type="curve"/>
      <point x="284" y="309"/>
      <point x="388" y="308"/>
      <point x="411" y="308" type="curve" smooth="yes"/>
      <point x="419" y="308"/>
      <point x="422" y="302"/>
      <point x="422" y="298" type="curve" smooth="yes"/>
      <point x="422" y="288"/>
      <point x="418" y="282"/>
    </contour>
  </outline>
</glyph>
<glyph name="currency" format="1">
  <advance width="556"/>
  <unicode hex="00A4"/>
  <outline>
    <contour>
      <point x="526" y="256" type="curve" smooth="yes"/>
      <point x="526" y="200"/>
      <point x="510" y="144"/>
      <point x="472" y="100" type="curve"/>
      <point x="526" y="46" type="line"/>
      <point x="488" y="8" type="line"/>
      <point x="432" y="63" type="line"/>
      <point x="388" y="26"/>
      <point x="334" y="8"/>
      <point x="278" y="8" type="curve" smooth="yes"/>
      <point x="222" y="8"/>
      <point x="168" y="26"/>
      <point x="124" y="63" type="curve"/>
      <point x="68" y="8" type="line"/>
      <point x="30" y="46" type="line"/>
      <point x="84" y="100" type="line"/>
      <point x="46" y="144"/>
      <point x="30" y="200"/>
      <point x="30" y="256" type="curve" smooth="yes"/>
      <point x="30" y="312"/>
      <point x="46" y="368"/>
      <point x="84" y="412" type="curve"/>
      <point x="30" y="466" type="line"/>
      <point x="68" y="504" type="line"/>
      <point x="124" y="449" type="line"/>
      <point x="168" y="486"/>
      <point x="222" y="504"/>
      <point x="278" y="504" type="curve" smooth="yes"/>
      <point x="334" y="504"/>
      <point x="388" y="486"/>
      <point x="432" y="449" type="curve"/>
      <point x="488" y="504" type="line"/>
      <point x="526" y="466" type="line"/>
      <point x="472" y="412" type="line"/>
      <point x="510" y="368"/>
      <point x="526" y="312"/>
    </contour>
    <contour>
      <point x="470" y="256" type="curve" smooth="yes"/>
      <point x="470" y="362"/>
      <point x="386" y="454"/>
      <point x="278" y="454" type="curve" smooth="yes"/>
      <point x="170" y="454"/>
      <point x="86" y="362"/>
      <point x="86" y="256" type="curve" smooth="yes"/>
      <point x="86" y="150"/>
      <point x="170" y="58"/>
      <point x="278" y="58" type="curve" smooth="yes"/>
      <point x="386" y="58"/>
      <point x="470" y="150"/>
    </contour>
  </outline>
</glyph>
<glyph name="yen" format="1">
  <advance width="556"/>
  <unicode hex="00A5"/>
  <outline>
    <contour>
      <point x="395" y="210" type="line"/>
      <point x="337" y="102" type="line"/>
      <point x="504" y="102" type="line" smooth="yes"/>
      <point x="515" y="102"/>
      <point x="519" y="99"/>
      <point x="519" y="92" type="curve" smooth="yes"/>
      <point x="519" y="84"/>
      <point x="511" y="72"/>
      <point x="492" y="72" type="curve" smooth="yes"/>
      <point x="320" y="72" type="line"/>
      <point x="231" y="-79" type="line" smooth="yes"/>
      <point x="190" y="-149"/>
      <point x="175" y="-167"/>
      <point x="155" y="-167" type="curve" smooth="yes"/>
      <point x="120" y="-167"/>
      <point x="109" y="-151"/>
      <point x="109" y="-144" type="curve" smooth="yes"/>
      <point x="109" y="-137"/>
      <point x="114" y="-137"/>
      <point x="123" y="-137" type="curve" smooth="yes"/>
      <point x="146" y="-137"/>
      <point x="180" y="-97"/>
      <point x="262" y="35" type="curve"/>
      <point x="242" y="72" type="line"/>
      <point x="53" y="72" type="line" smooth="yes"/>
      <point x="42" y="72"/>
      <point x="38" y="75"/>
      <point x="38" y="82" type="curve" smooth="yes"/>
      <point x="38" y="90"/>
      <point x="46" y="102"/>
      <point x="65" y="102" type="curve" smooth="yes"/>
      <point x="226" y="102" type="line"/>
      <point x="168" y="210" type="line"/>
      <point x="53" y="210" type="line" smooth="yes"/>
      <point x="42" y="210"/>
      <point x="38" y="213"/>
      <point x="38" y="220" type="curve" smooth="yes"/>
      <point x="38" y="228"/>
      <point x="46" y="240"/>
      <point x="65" y="240" type="curve" smooth="yes"/>
      <point x="152" y="240" type="line"/>
      <point x="77" y="381" type="line" smooth="yes"/>
      <point x="53" y="426"/>
      <point x="-18" y="547"/>
      <point x="-56" y="552" type="curve" smooth="yes"/>
      <point x="-69" y="554"/>
      <point x="-69" y="558"/>
      <point x="-69" y="561" type="curve" smooth="yes"/>
      <point x="-69" y="570"/>
      <point x="-51" y="570"/>
      <point x="-36" y="570" type="curve" smooth="yes"/>
      <point x="40" y="570"/>
      <point x="66" y="560"/>
      <point x="86" y="520" type="curve" smooth="yes"/>
      <point x="225" y="240" type="line"/>
      <point x="378" y="240" type="line"/>
      <point x="408" y="306"/>
      <point x="456" y="439"/>
      <point x="456" y="508" type="curve" smooth="yes"/>
      <point x="456" y="563"/>
      <point x="437" y="588"/>
      <point x="437" y="594" type="curve" smooth="yes"/>
      <point x="437" y="598"/>
      <point x="438" y="600"/>
      <point x="443" y="600" type="curve" smooth="yes"/>
      <point x="460" y="600"/>
      <point x="530" y="550"/>
      <point x="530" y="514" type="curve" smooth="yes"/>
      <point x="530" y="500"/>
      <point x="504" y="419"/>
      <point x="411" y="240" type="curve"/>
      <point x="504" y="240" type="line" smooth="yes"/>
      <point x="515" y="240"/>
      <point x="519" y="237"/>
      <point x="519" y="230" type="curve" smooth="yes"/>
      <point x="519" y="222"/>
      <point x="511" y="210"/>
      <point x="492" y="210" type="curve" smooth="yes"/>
    </contour>
    <contour>
      <point x="364" y="210" type="curve"/>
      <point x="237" y="210" type="line"/>
      <point x="293" y="102" type="line"/>
      <point x="304" y="102" type="line"/>
      <point x="328" y="139"/>
      <point x="349" y="175"/>
    </contour>
  </outline>
</glyph>
<glyph name="brokenbar" format="1">
  <advance width="222"/>
  <unicode hex="00A6"/>
  <outline>
    <contour>
      <point x="86" y="-175" type="line"/>
      <point x="86" y="175" type="line"/>
      <point x="136" y="175" type="line"/>
      <point x="136" y="-175" type="line"/>
    </contour>
    <contour>
      <point x="86" y="325" type="line"/>
      <point x="86" y="675" type="line"/>
      <point x="136" y="675" type="line"/>
      <point x="136" y="325" type="line"/>
    </contour>
  </outline>
</glyph>
<glyph name="section" format="1">
  <advance width="556"/>
  <unicode hex="00A7"/>
  <outline>
    <contour>
      <point x="191" y="511" type="curve" smooth="yes"/>
      <point x="191" y="397"/>
      <point x="482" y="410"/>
      <point x="482" y="282" type="curve" smooth="yes"/>
      <point x="482" y="198"/>
      <point x="409" y="156"/>
      <point x="343" y="125" type="curve"/>
      <point x="343" y="126" type="line"/>
      <point x="343" y="124" type="line"/>
      <point x="396" y="118"/>
      <point x="459" y="90"/>
      <point x="459" y="28" type="curve" smooth="yes"/>
      <point x="459" y="-43"/>
      <point x="349" y="-121"/>
      <point x="246" y="-121" type="curve" smooth="yes"/>
      <point x="179" y="-121"/>
      <point x="79" y="-101"/>
      <point x="79" y="-23" type="curve" smooth="yes"/>
      <point x="79" y="18"/>
      <point x="115" y="44"/>
      <point x="122" y="44" type="curve" smooth="yes"/>
      <point x="127" y="44"/>
      <point x="129" y="40"/>
      <point x="129" y="33" type="curve" smooth="yes"/>
      <point x="129" y="-41"/>
      <point x="185" y="-91"/>
      <point x="262" y="-91" type="curve" smooth="yes"/>
      <point x="317" y="-91"/>
      <point x="391" y="-68"/>
      <point x="391" y="8" type="curve" smooth="yes"/>
      <point x="391" y="81"/>
      <point x="342" y="102"/>
      <point x="255" y="102" type="curve" smooth="yes"/>
      <point x="169" y="102"/>
      <point x="74" y="118"/>
      <point x="74" y="219" type="curve" smooth="yes"/>
      <point x="74" y="344"/>
      <point x="230" y="384"/>
      <point x="255" y="380" type="curve"/>
      <point x="255" y="382" type="line"/>
      <point x="211" y="397"/>
      <point x="129" y="417"/>
      <point x="129" y="479" type="curve" smooth="yes"/>
      <point x="129" y="567"/>
      <point x="249" y="624"/>
      <point x="331" y="624" type="curve" smooth="yes"/>
      <point x="403" y="624"/>
      <point x="440" y="596"/>
      <point x="440" y="540" type="curve" smooth="yes"/>
      <point x="440" y="511"/>
      <point x="431" y="479"/>
      <point x="414" y="479" type="curve" smooth="yes"/>
      <point x="400" y="479"/>
      <point x="393" y="600"/>
      <point x="307" y="600" type="curve" smooth="yes"/>
      <point x="256" y="600"/>
      <point x="191" y="562"/>
    </contour>
    <contour>
      <point x="414" y="253" type="curve" smooth="yes"/>
      <point x="414" y="325"/>
      <point x="341" y="362"/>
      <point x="277" y="362" type="curve" smooth="yes"/>
      <point x="216" y="362"/>
      <point x="148" y="325"/>
      <point x="148" y="245" type="curve" smooth="yes"/>
      <point x="148" y="177"/>
      <point x="189" y="132"/>
      <point x="267" y="132" type="curve" smooth="yes"/>
      <point x="341" y="132"/>
      <point x="414" y="172"/>
    </contour>
  </outline>
</glyph>
<glyph name="copyright" format="1">
  <advance width="724"/>
  <unicode hex="00A9"/>
  <outline>
    <contour>
      <point x="503" y="224" type="curve"/>
      <point x="517" y="224" type="line"/>
      <point x="502" y="161" type="line" smooth="yes"/>
      <point x="500" y="151"/>
      <point x="494" y="149"/>
      <point x="479" y="144" type="curve" smooth="yes"/>
      <point x="460" y="138"/>
      <point x="425" y="129"/>
      <point x="381" y="129" type="curve" smooth="yes"/>
      <point x="279" y="129"/>
      <point x="185" y="178"/>
      <point x="185" y="312" type="curve" smooth="yes"/>
      <point x="185" y="389"/>
      <point x="252" y="490"/>
      <point x="386" y="489" type="curve" smooth="yes"/>
      <point x="435" y="488"/>
      <point x="458" y="482"/>
      <point x="483" y="473" type="curve" smooth="yes"/>
      <point x="496" y="469"/>
      <point x="501" y="462"/>
      <point x="501" y="454" type="curve" smooth="yes"/>
      <point x="501" y="390" type="line"/>
      <point x="489" y="390" type="line"/>
      <point x="487" y="429"/>
      <point x="462" y="471"/>
      <point x="382" y="471" type="curve" smooth="yes"/>
      <point x="287" y="472"/>
      <point x="242" y="404"/>
      <point x="241" y="316" type="curve" smooth="yes"/>
      <point x="240" y="218"/>
      <point x="286" y="147"/>
      <point x="390" y="147" type="curve"/>
      <point x="457" y="146"/>
      <point x="488" y="185"/>
    </contour>
    <contour>
      <point x="43" y="305" type="curve" smooth="yes"/>
      <point x="43" y="481"/>
      <point x="186" y="624"/>
      <point x="362" y="624" type="curve" smooth="yes"/>
      <point x="538" y="624"/>
      <point x="681" y="481"/>
      <point x="681" y="305" type="curve" smooth="yes"/>
      <point x="681" y="129"/>
      <point x="538" y="-14"/>
      <point x="362" y="-14" type="curve" smooth="yes"/>
      <point x="186" y="-14"/>
      <point x="43" y="129"/>
    </contour>
    <contour>
      <point x="87" y="305" type="curve" smooth="yes"/>
      <point x="87" y="149"/>
      <point x="214" y="22"/>
      <point x="362" y="22" type="curve" smooth="yes"/>
      <point x="510" y="22"/>
      <point x="637" y="149"/>
      <point x="637" y="305" type="curve" smooth="yes"/>
      <point x="637" y="461"/>
      <point x="510" y="588"/>
      <point x="362" y="588" type="curve" smooth="yes"/>
      <point x="214" y="588"/>
      <point x="87" y="461"/>
    </contour>
  </outline>
</glyph>
<glyph name="ordfeminine" format="1">
  <advance width="361"/>
  <unicode hex="00AA"/>
  <outline>
    <contour>
      <point x="45" y="384" type="curve" smooth="yes"/>
      <point x="45" y="451"/>
      <point x="147" y="527"/>
      <point x="218" y="527" type="curve" smooth="yes"/>
      <point x="245" y="527"/>
      <point x="265" y="515"/>
      <point x="279" y="497" type="curve"/>
      <point x="293" y="499"/>
      <point x="304" y="502"/>
      <point x="315" y="507" type="curve"/>
      <point x="318" y="436"/>
      <point x="332" y="347"/>
      <point x="352" y="347" type="curve" smooth="yes"/>
      <point x="355" y="347"/>
      <point x="357" y="346"/>
      <point x="357" y="344" type="curve" smooth="yes"/>
      <point x="357" y="338"/>
      <point x="321" y="323"/>
      <point x="313" y="323" type="curve" smooth="yes"/>
      <point x="308" y="323"/>
      <point x="302" y="332"/>
      <point x="290" y="396" type="curve"/>
      <point x="257" y="358"/>
      <point x="189" y="333"/>
      <point x="129" y="333" type="curve" smooth="yes"/>
      <point x="90" y="333"/>
      <point x="45" y="342"/>
    </contour>
    <contour>
      <point x="101" y="398" type="curve" smooth="yes"/>
      <point x="101" y="374"/>
      <point x="135" y="357"/>
      <point x="158" y="357" type="curve" smooth="yes"/>
      <point x="216" y="357"/>
      <point x="272" y="397"/>
      <point x="276" y="407" type="curve" smooth="yes"/>
      <point x="278" y="413"/>
      <point x="279" y="420"/>
      <point x="279" y="429" type="curve" smooth="yes"/>
      <point x="279" y="444"/>
      <point x="272" y="485"/>
      <point x="257" y="494" type="curve" smooth="yes"/>
      <point x="244" y="502"/>
      <point x="231" y="503"/>
      <point x="214" y="503" type="curve" smooth="yes"/>
      <point x="146" y="503"/>
      <point x="101" y="446"/>
    </contour>
  </outline>
</glyph>
<glyph name="guillemotleft" format="1">
  <advance width="444"/>
  <unicode hex="00AB"/>
  <outline>
    <contour>
      <point x="231" y="173" type="line"/>
      <point x="376" y="33" type="line"/>
      <point x="350" y="10" type="line"/>
      <point x="181" y="175" type="line"/>
      <point x="362" y="320" type="line"/>
      <point x="386" y="296" type="line"/>
    </contour>
    <contour>
      <point x="93" y="173" type="line"/>
      <point x="238" y="33" type="line"/>
      <point x="212" y="10" type="line"/>
      <point x="43" y="175" type="line"/>
      <point x="224" y="320" type="line"/>
      <point x="248" y="296" type="line"/>
    </contour>
  </outline>
</glyph>
<glyph name="logicalnot" format="1">
  <advance width="600"/>
  <unicode hex="00AC"/>
  <outline>
    <contour>
      <point x="503" y="108" type="line"/>
      <point x="503" y="325" type="line"/>
      <point x="47" y="325" type="line"/>
      <point x="47" y="375" type="line"/>
      <point x="553" y="375" type="line"/>
      <point x="553" y="108" type="line"/>
    </contour>
  </outline>
</glyph>
<glyph name="registered" format="1">
  <advance width="724"/>
  <unicode hex="00AE"/>
  <outline>
    <contour>
      <point x="360" y="149" type="curve"/>
      <point x="360" y="137" type="line"/>
      <point x="214" y="137" type="line"/>
      <point x="214" y="149" type="line"/>
      <point x="244" y="155"/>
      <point x="260" y="158"/>
      <point x="261" y="198" type="curve"/>
      <point x="261" y="418" type="line" smooth="yes"/>
      <point x="261" y="457"/>
      <point x="245" y="460"/>
      <point x="214" y="467" type="curve"/>
      <point x="214" y="479" type="line"/>
      <point x="371" y="479" type="line" smooth="yes"/>
      <point x="425" y="479"/>
      <point x="480" y="453"/>
      <point x="480" y="396" type="curve" smooth="yes"/>
      <point x="480" y="345"/>
      <point x="446" y="311"/>
      <point x="404" y="297" type="curve"/>
      <point x="459" y="223" type="line" smooth="yes"/>
      <point x="485" y="188"/>
      <point x="516" y="154"/>
      <point x="535" y="144" type="curve"/>
      <point x="535" y="137" type="line"/>
      <point x="491" y="137" type="line" smooth="yes"/>
      <point x="465" y="137"/>
      <point x="461" y="140"/>
      <point x="364" y="289" type="curve"/>
      <point x="311" y="289" type="line"/>
      <point x="311" y="198" type="line" smooth="yes"/>
      <point x="311" y="158"/>
      <point x="327" y="155"/>
    </contour>
    <contour>
      <point x="311" y="461" type="line"/>
      <point x="311" y="307" type="line"/>
      <point x="357" y="307" type="line" smooth="yes"/>
      <point x="406" y="307"/>
      <point x="430" y="336"/>
      <point x="430" y="392" type="curve" smooth="yes"/>
      <point x="430" y="444"/>
      <point x="396" y="461"/>
      <point x="354" y="461" type="curve" smooth="yes"/>
    </contour>
    <contour>
      <point x="43" y="305" type="curve" smooth="yes"/>
      <point x="43" y="481"/>
      <point x="186" y="624"/>
      <point x="362" y="624" type="curve" smooth="yes"/>
      <point x="538" y="624"/>
      <point x="681" y="481"/>
      <point x="681" y="305" type="curve" smooth="yes"/>
      <point x="681" y="129"/>
      <point x="538" y="-14"/>
      <point x="362" y="-14" type="curve" smooth="yes"/>
      <point x="186" y="-14"/>
      <point x="43" y="129"/>
    </contour>
    <contour>
      <point x="362" y="22" type="curve" smooth="yes"/>
      <point x="510" y="22"/>
      <point x="637" y="149"/>
      <point x="637" y="305" type="curve" smooth="yes"/>
      <point x="637" y="461"/>
      <point x="510" y="588"/>
      <point x="362" y="588" type="curve" smooth="yes"/>
      <point x="214" y="588"/>
      <point x="87" y="461"/>
      <point x="87" y="305" type="curve" smooth="yes"/>
      <point x="87" y="149"/>
      <point x="214" y="22"/>
    </contour>
  </outline>
</glyph>
<glyph name="macron" format="1">
  <advance width="222"/>
  <unicode hex="00AF"/>
  <outline>
    <contour>
      <point x="250" y="422" type="curve" smooth="yes"/>
      <point x="-1" y="422" type="line" smooth="yes"/>
      <point x="-17" y="422"/>
      <point x="-34" y="448"/>
      <point x="-34" y="463" type="curve" smooth="yes"/>
      <point x="-34" y="471"/>
      <point x="-28" y="471"/>
      <point x="-16" y="471" type="curve" smooth="yes"/>
      <point x="1" y="471"/>
      <point x="72" y="466"/>
      <point x="105" y="466" type="curve" smooth="yes"/>
      <point x="136" y="466"/>
      <point x="207" y="468"/>
      <point x="223" y="468" type="curve" smooth="yes"/>
      <point x="250" y="468"/>
      <point x="256" y="438"/>
      <point x="256" y="431" type="curve" smooth="yes"/>
      <point x="256" y="426"/>
      <point x="255" y="422"/>
    </contour>
  </outline>
</glyph>
<glyph name="degree" format="1">
  <advance width="400"/>
  <unicode hex="00B0"/>
  <outline>
    <contour>
      <point x="57" y="481" type="curve" smooth="yes"/>
      <point x="57" y="560"/>
      <point x="121" y="624"/>
      <point x="200" y="624" type="curve" smooth="yes"/>
      <point x="279" y="624"/>
      <point x="343" y="560"/>
      <point x="343" y="481" type="curve" smooth="yes"/>
      <point x="343" y="402"/>
      <point x="279" y="338"/>
      <point x="200" y="338" type="curve" smooth="yes"/>
      <point x="121" y="338"/>
      <point x="57" y="402"/>
    </contour>
    <contour>
      <point x="93" y="481" type="curve" smooth="yes"/>
      <point x="93" y="422"/>
      <point x="141" y="374"/>
      <point x="200" y="374" type="curve" smooth="yes"/>
      <point x="259" y="374"/>
      <point x="307" y="422"/>
      <point x="307" y="481" type="curve" smooth="yes"/>
      <point x="307" y="540"/>
      <point x="259" y="588"/>
      <point x="200" y="588" type="curve" smooth="yes"/>
      <point x="141" y="588"/>
      <point x="93" y="540"/>
    </contour>
  </outline>
</glyph>
<glyph name="plusminus" format="1">
  <advance width="600"/>
  <unicode hex="00B1"/>
  <outline>
    <contour>
      <point x="275" y="323" type="line"/>
      <point x="275" y="506" type="line"/>
      <point x="325" y="506" type="line"/>
      <point x="325" y="323" type="line"/>
      <point x="553" y="323" type="line"/>
      <point x="553" y="273" type="line"/>
      <point x="325" y="273" type="line"/>
      <point x="325" y="90" type="line"/>
      <point x="275" y="90" type="line"/>
      <point x="275" y="273" type="line"/>
      <point x="47" y="273" type="line"/>
      <point x="47" y="323" type="line"/>
    </contour>
    <contour>
      <point x="47" y="0" type="line"/>
      <point x="47" y="50" type="line"/>
      <point x="553" y="50" type="line"/>
      <point x="553" y="0" type="line"/>
    </contour>
  </outline>
</glyph>
<glyph name="twosuperior" format="1">
  <advance width="361"/>
  <unicode hex="00B2"/>
  <outline>
    <contour>
      <point x="58" y="207" type="curve" smooth="yes"/>
      <point x="23" y="207"/>
      <point x="17" y="224"/>
      <point x="17" y="231" type="curve" smooth="yes"/>
      <point x="17" y="235"/>
      <point x="19" y="237"/>
      <point x="40" y="246" type="curve" smooth="yes"/>
      <point x="164" y="299"/>
      <point x="264" y="353"/>
      <point x="264" y="430" type="curve" smooth="yes"/>
      <point x="264" y="472"/>
      <point x="236" y="509"/>
      <point x="188" y="509" type="curve" smooth="yes"/>
      <point x="149" y="509"/>
      <point x="96" y="466"/>
      <point x="96" y="414" type="curve" smooth="yes"/>
      <point x="96" y="386"/>
      <point x="118" y="375"/>
      <point x="145" y="375" type="curve" smooth="yes"/>
      <point x="147" y="375"/>
      <point x="148" y="373"/>
      <point x="148" y="370" type="curve" smooth="yes"/>
      <point x="148" y="363"/>
      <point x="120" y="351"/>
      <point x="100" y="351" type="curve" smooth="yes"/>
      <point x="64" y="351"/>
      <point x="40" y="372"/>
      <point x="40" y="402" type="curve" smooth="yes"/>
      <point x="40" y="480"/>
      <point x="128" y="527"/>
      <point x="209" y="527" type="curve" smooth="yes"/>
      <point x="279" y="527"/>
      <point x="326" y="500"/>
      <point x="326" y="442" type="curve" smooth="yes"/>
      <point x="326" y="338"/>
      <point x="98" y="257"/>
      <point x="98" y="244" type="curve" smooth="yes"/>
      <point x="98" y="238"/>
      <point x="114" y="237"/>
      <point x="196" y="237" type="curve" smooth="yes"/>
      <point x="278" y="237"/>
      <point x="336" y="242"/>
      <point x="340" y="242" type="curve" smooth="yes"/>
      <point x="342" y="242"/>
      <point x="344" y="240"/>
      <point x="344" y="237" type="curve" smooth="yes"/>
      <point x="344" y="214"/>
      <point x="143" y="207"/>
    </contour>
  </outline>
</glyph>
<glyph name="threesuperior" format="1">
  <advance width="361"/>
  <unicode hex="00B3"/>
  <outline>
    <contour>
      <point x="309" y="462" type="curve" smooth="yes"/>
      <point x="309" y="409"/>
      <point x="252" y="389"/>
      <point x="203" y="375" type="curve"/>
      <point x="203" y="373" type="line"/>
      <point x="249" y="372"/>
      <point x="313" y="371"/>
      <point x="313" y="320" type="curve" smooth="yes"/>
      <point x="313" y="232"/>
      <point x="168" y="168"/>
      <point x="90" y="168" type="curve" smooth="yes"/>
      <point x="43" y="168"/>
      <point x="11" y="191"/>
      <point x="11" y="218" type="curve" smooth="yes"/>
      <point x="11" y="225"/>
      <point x="12" y="230"/>
      <point x="15" y="230" type="curve" smooth="yes"/>
      <point x="25" y="230"/>
      <point x="54" y="204"/>
      <point x="122" y="204" type="curve" smooth="yes"/>
      <point x="198" y="204"/>
      <point x="257" y="248"/>
      <point x="257" y="316" type="curve" smooth="yes"/>
      <point x="257" y="339"/>
      <point x="233" y="361"/>
      <point x="193" y="361" type="curve" smooth="yes"/>
      <point x="169" y="361"/>
      <point x="126" y="354"/>
      <point x="98" y="349" type="curve"/>
      <point x="89" y="354"/>
      <point x="87" y="364"/>
      <point x="87" y="381" type="curve"/>
      <point x="148" y="382"/>
      <point x="257" y="384"/>
      <point x="257" y="460" type="curve" smooth="yes"/>
      <point x="257" y="490"/>
      <point x="236" y="509"/>
      <point x="199" y="509" type="curve" smooth="yes"/>
      <point x="106" y="509"/>
      <point x="88" y="428"/>
      <point x="66" y="428" type="curve" smooth="yes"/>
      <point x="54" y="428"/>
      <point x="45" y="436"/>
      <point x="45" y="454" type="curve" smooth="yes"/>
      <point x="45" y="479"/>
      <point x="122" y="527"/>
      <point x="196" y="527" type="curve" smooth="yes"/>
      <point x="243" y="527"/>
      <point x="309" y="513"/>
    </contour>
  </outline>
</glyph>
<glyph name="acute" format="1">
  <advance width="222"/>
  <unicode hex="00B4"/>
  <outline>
    <contour>
      <point x="175" y="551" type="curve" smooth="yes"/>
      <point x="190" y="551"/>
      <point x="204" y="521"/>
      <point x="204" y="507" type="curve" smooth="yes"/>
      <point x="204" y="471"/>
      <point x="102" y="378"/>
      <point x="71" y="378" type="curve" smooth="yes"/>
      <point x="62" y="378"/>
      <point x="56" y="384"/>
      <point x="56" y="389" type="curve" smooth="yes"/>
      <point x="56" y="394"/>
      <point x="57" y="397"/>
      <point x="60" y="399" type="curve" smooth="yes"/>
      <point x="130" y="446"/>
      <point x="156" y="551"/>
    </contour>
  </outline>
</glyph>
<glyph name="paragraph" format="1">
  <advance width="600"/>
  <unicode hex="00B6"/>
  <outline>
    <contour>
      <point x="255" y="233" type="curve"/>
      <point x="255" y="580" type="line"/>
      <point x="167" y="580"/>
      <point x="122" y="545"/>
      <point x="122" y="410" type="curve" smooth="yes"/>
      <point x="122" y="282"/>
      <point x="186" y="233"/>
    </contour>
    <contour>
      <point x="364" y="-107" type="line"/>
      <point x="364" y="580" type="line"/>
      <point x="305" y="580" type="line"/>
      <point x="305" y="-107" type="line"/>
      <point x="170" y="-107" type="line"/>
      <point x="170" y="-83" type="line"/>
      <point x="229" y="-79"/>
      <point x="255" y="-74"/>
      <point x="255" y="-37" type="curve" smooth="yes"/>
      <point x="255" y="203" type="line"/>
      <point x="109" y="203"/>
      <point x="48" y="290"/>
      <point x="48" y="412" type="curve" smooth="yes"/>
      <point x="48" y="551"/>
      <point x="107" y="610"/>
      <point x="259" y="610" type="curve" smooth="yes"/>
      <point x="499" y="610" type="line"/>
      <point x="499" y="586" type="line"/>
      <point x="421" y="583"/>
      <point x="414" y="571"/>
      <point x="414" y="517" type="curve" smooth="yes"/>
      <point x="414" y="-37" type="line" smooth="yes"/>
      <point x="414" y="-74"/>
      <point x="440" y="-79"/>
      <point x="499" y="-83" type="curve"/>
      <point x="499" y="-107" type="line"/>
    </contour>
  </outline>
</glyph>
<glyph name="periodcentered" format="1">
  <advance width="278"/>
  <unicode hex="00B7"/>
  <outline>
    <contour>
      <point x="84" y="218" type="curve" smooth="yes"/>
      <point x="84" y="249"/>
      <point x="109" y="274"/>
      <point x="140" y="274" type="curve" smooth="yes"/>
      <point x="171" y="274"/>
      <point x="196" y="249"/>
      <point x="196" y="218" type="curve" smooth="yes"/>
      <point x="196" y="187"/>
      <point x="171" y="162"/>
      <point x="140" y="162" type="curve" smooth="yes"/>
      <point x="109" y="162"/>
      <point x="84" y="187"/>
    </contour>
  </outline>
</glyph>
<glyph name="cedilla" format="1">
  <advance width="222"/>
  <unicode hex="00B8"/>
  <outline>
    <contour>
      <point x="37" y="-161" type="curve"/>
      <point x="29" y="-147" type="line"/>
      <point x="83" y="-119"/>
      <point x="88" y="-109"/>
      <point x="88" y="-101" type="curve" smooth="yes"/>
      <point x="88" y="-89"/>
      <point x="44" y="-71"/>
      <point x="44" y="-51" type="curve" smooth="yes"/>
      <point x="44" y="-40"/>
      <point x="56" y="-23"/>
      <point x="93" y="16" type="curve"/>
      <point x="116" y="16" type="line"/>
      <point x="98" y="1"/>
      <point x="88" y="-14"/>
      <point x="88" y="-24" type="curve" smooth="yes"/>
      <point x="88" y="-51"/>
      <point x="132" y="-52"/>
      <point x="132" y="-83" type="curve" smooth="yes"/>
      <point x="132" y="-101"/>
      <point x="108" y="-125"/>
    </contour>
  </outline>
</glyph>
<glyph name="onesuperior" format="1">
  <advance width="361"/>
  <unicode hex="00B9"/>
  <outline>
    <contour>
      <point x="219" y="485" type="curve"/>
      <point x="158" y="436" type="line" smooth="yes"/>
      <point x="145" y="425"/>
      <point x="92" y="385"/>
      <point x="76" y="385" type="curve" smooth="yes"/>
      <point x="65" y="385"/>
      <point x="37" y="410"/>
      <point x="37" y="416" type="curve" smooth="yes"/>
      <point x="37" y="419"/>
      <point x="63" y="423"/>
      <point x="96" y="440" type="curve" smooth="yes"/>
      <point x="246" y="516"/>
      <point x="254" y="532"/>
      <point x="261" y="532" type="curve" smooth="yes"/>
      <point x="264" y="532"/>
      <point x="270" y="530"/>
      <point x="270" y="527" type="curve" smooth="yes"/>
      <point x="270" y="520"/>
      <point x="254" y="491"/>
      <point x="254" y="266" type="curve" smooth="yes"/>
      <point x="254" y="218"/>
      <point x="259" y="212"/>
      <point x="259" y="207" type="curve" smooth="yes"/>
      <point x="259" y="203"/>
      <point x="255" y="203"/>
      <point x="253" y="203" type="curve" smooth="yes"/>
      <point x="249" y="203"/>
      <point x="204" y="209"/>
      <point x="204" y="221" type="curve" smooth="yes"/>
      <point x="204" y="231"/>
      <point x="217" y="413"/>
    </contour>
  </outline>
</glyph>
<glyph name="ordmasculine" format="1">
  <advance width="325"/>
  <unicode hex="00BA"/>
  <outline>
    <contour>
      <point x="50" y="410" type="curve" smooth="yes"/>
      <point x="50" y="482"/>
      <point x="137" y="527"/>
      <point x="215" y="527" type="curve" smooth="yes"/>
      <point x="266" y="527"/>
      <point x="324" y="512"/>
      <point x="324" y="455" type="curve" smooth="yes"/>
      <point x="324" y="412"/>
      <point x="291" y="333"/>
      <point x="143" y="333" type="curve" smooth="yes"/>
      <point x="87" y="333"/>
      <point x="50" y="357"/>
    </contour>
    <contour>
      <point x="94" y="432" type="curve" smooth="yes"/>
      <point x="94" y="385"/>
      <point x="149" y="357"/>
      <point x="191" y="357" type="curve" smooth="yes"/>
      <point x="236" y="357"/>
      <point x="280" y="386"/>
      <point x="280" y="432" type="curve" smooth="yes"/>
      <point x="280" y="479"/>
      <point x="234" y="503"/>
      <point x="187" y="503" type="curve" smooth="yes"/>
      <point x="147" y="503"/>
      <point x="94" y="475"/>
    </contour>
  </outline>
</glyph>
<glyph name="guillemotright" format="1">
  <advance width="444"/>
  <unicode hex="00BB"/>
  <outline>
    <contour>
      <point x="196" y="34" type="line"/>
      <point x="351" y="157" type="line"/>
      <point x="206" y="297" type="line"/>
      <point x="232" y="320" type="line"/>
      <point x="401" y="155" type="line"/>
      <point x="220" y="10" type="line"/>
    </contour>
    <contour>
      <point x="58" y="34" type="line"/>
      <point x="213" y="157" type="line"/>
      <point x="68" y="297" type="line"/>
      <point x="94" y="320" type="line"/>
      <point x="263" y="155" type="line"/>
      <point x="82" y="10" type="line"/>
    </contour>
  </outline>
</glyph>
<glyph name="onequarter" format="1">
  <advance width="834"/>
  <unicode hex="00BC"/>
  <outline>
    <contour>
      <point x="533" y="533" type="curve" smooth="yes"/>
      <point x="266" y="-46" type="line" smooth="yes"/>
      <point x="258" y="-64"/>
      <point x="255" y="-67"/>
      <point x="252" y="-67" type="curve" smooth="yes"/>
      <point x="246" y="-67"/>
      <point x="224" y="-49"/>
      <point x="224" y="-42" type="curve" smooth="yes"/>
      <point x="224" y="-39"/>
      <point x="225" y="-36"/>
      <point x="238" y="-9" type="curve" smooth="yes"/>
      <point x="504" y="567" type="line" smooth="yes"/>
      <point x="508" y="575"/>
      <point x="511" y="580"/>
      <point x="516" y="580" type="curve" smooth="yes"/>
      <point x="528" y="580"/>
      <point x="541" y="564"/>
      <point x="541" y="557" type="curve" smooth="yes"/>
      <point x="541" y="552"/>
      <point x="540" y="548"/>
    </contour>
    <contour>
      <point x="184" y="485" type="curve"/>
      <point x="123" y="436" type="line" smooth="yes"/>
      <point x="110" y="425"/>
      <point x="57" y="385"/>
      <point x="41" y="385" type="curve" smooth="yes"/>
      <point x="30" y="385"/>
      <point x="2" y="410"/>
      <point x="2" y="416" type="curve" smooth="yes"/>
      <point x="2" y="419"/>
      <point x="28" y="423"/>
      <point x="61" y="440" type="curve" smooth="yes"/>
      <point x="211" y="516"/>
      <point x="219" y="532"/>
      <point x="226" y="532" type="curve" smooth="yes"/>
      <point x="229" y="532"/>
      <point x="235" y="530"/>
      <point x="235" y="527" type="curve" smooth="yes"/>
      <point x="235" y="520"/>
      <point x="219" y="491"/>
      <point x="219" y="266" type="curve" smooth="yes"/>
      <point x="219" y="218"/>
      <point x="224" y="212"/>
      <point x="224" y="207" type="curve" smooth="yes"/>
      <point x="224" y="203"/>
      <point x="220" y="203"/>
      <point x="218" y="203" type="curve" smooth="yes"/>
      <point x="214" y="203"/>
      <point x="169" y="209"/>
      <point x="169" y="221" type="curve" smooth="yes"/>
      <point x="169" y="231"/>
      <point x="182" y="413"/>
    </contour>
    <contour>
      <point x="671" y="114" type="curve"/>
      <point x="675" y="235" type="line" smooth="yes"/>
      <point x="675" y="243"/>
      <point x="679" y="243"/>
      <point x="686" y="243" type="curve" smooth="yes"/>
      <point x="691" y="243"/>
      <point x="719" y="236"/>
      <point x="719" y="221" type="curve" smooth="yes"/>
      <point x="719" y="209"/>
      <point x="713" y="168"/>
      <point x="712" y="114" type="curve"/>
      <point x="727" y="114" type="line" smooth="yes"/>
      <point x="762" y="114"/>
      <point x="784" y="120"/>
      <point x="788" y="120" type="curve" smooth="yes"/>
      <point x="790" y="120"/>
      <point x="791" y="119"/>
      <point x="791" y="116" type="curve" smooth="yes"/>
      <point x="791" y="98"/>
      <point x="750" y="95"/>
      <point x="712" y="92" type="curve"/>
      <point x="712" y="3" type="line" smooth="yes"/>
      <point x="712" y="-4"/>
      <point x="709" y="-7"/>
      <point x="705" y="-7" type="curve" smooth="yes"/>
      <point x="700" y="-7"/>
      <point x="666" y="-1"/>
      <point x="666" y="6" type="curve" smooth="yes"/>
      <point x="666" y="12"/>
      <point x="668" y="39"/>
      <point x="668" y="46" type="curve" smooth="yes"/>
      <point x="668" y="91" type="line"/>
      <point x="632" y="87"/>
      <point x="558" y="84"/>
      <point x="535" y="84" type="curve" smooth="yes"/>
      <point x="508" y="84"/>
      <point x="478" y="93"/>
      <point x="478" y="113" type="curve" smooth="yes"/>
      <point x="478" y="121"/>
      <point x="482" y="127"/>
      <point x="493" y="147" type="curve" smooth="yes"/>
      <point x="590" y="315" type="line" smooth="yes"/>
      <point x="595" y="323"/>
      <point x="598" y="327"/>
      <point x="609" y="327" type="curve" smooth="yes"/>
      <point x="615" y="327"/>
      <point x="633" y="315"/>
      <point x="633" y="300" type="curve" smooth="yes"/>
      <point x="633" y="290"/>
      <point x="631" y="285"/>
      <point x="626" y="279" type="curve" smooth="yes"/>
      <point x="528" y="155" type="line" smooth="yes"/>
      <point x="519" y="143"/>
      <point x="514" y="137"/>
      <point x="514" y="132" type="curve" smooth="yes"/>
      <point x="514" y="123"/>
      <point x="537" y="116"/>
    </contour>
  </outline>
</glyph>
<glyph name="onehalf" format="1">
  <advance width="834"/>
  <unicode hex="00BD"/>
  <outline>
    <contour>
      <point x="533" y="533" type="curve" smooth="yes"/>
      <point x="266" y="-46" type="line" smooth="yes"/>
      <point x="258" y="-64"/>
      <point x="255" y="-67"/>
      <point x="252" y="-67" type="curve" smooth="yes"/>
      <point x="246" y="-67"/>
      <point x="224" y="-49"/>
      <point x="224" y="-42" type="curve" smooth="yes"/>
      <point x="224" y="-39"/>
      <point x="225" y="-36"/>
      <point x="238" y="-9" type="curve" smooth="yes"/>
      <point x="504" y="567" type="line" smooth="yes"/>
      <point x="508" y="575"/>
      <point x="511" y="580"/>
      <point x="516" y="580" type="curve" smooth="yes"/>
      <point x="528" y="580"/>
      <point x="541" y="564"/>
      <point x="541" y="557" type="curve" smooth="yes"/>
      <point x="541" y="552"/>
      <point x="540" y="548"/>
    </contour>
    <contour>
      <point x="184" y="485" type="curve"/>
      <point x="123" y="436" type="line" smooth="yes"/>
      <point x="110" y="425"/>
      <point x="57" y="385"/>
      <point x="41" y="385" type="curve" smooth="yes"/>
      <point x="30" y="385"/>
      <point x="2" y="410"/>
      <point x="2" y="416" type="curve" smooth="yes"/>
      <point x="2" y="419"/>
      <point x="28" y="423"/>
      <point x="61" y="440" type="curve" smooth="yes"/>
      <point x="211" y="516"/>
      <point x="219" y="532"/>
      <point x="226" y="532" type="curve" smooth="yes"/>
      <point x="229" y="532"/>
      <point x="235" y="530"/>
      <point x="235" y="527" type="curve" smooth="yes"/>
      <point x="235" y="520"/>
      <point x="219" y="491"/>
      <point x="219" y="266" type="curve" smooth="yes"/>
      <point x="219" y="218"/>
      <point x="224" y="212"/>
      <point x="224" y="207" type="curve" smooth="yes"/>
      <point x="224" y="203"/>
      <point x="220" y="203"/>
      <point x="218" y="203" type="curve" smooth="yes"/>
      <point x="214" y="203"/>
      <point x="169" y="209"/>
      <point x="169" y="221" type="curve" smooth="yes"/>
      <point x="169" y="231"/>
      <point x="182" y="413"/>
    </contour>
    <contour>
      <point x="496" y="-7" type="curve" smooth="yes"/>
      <point x="461" y="-7"/>
      <point x="455" y="10"/>
      <point x="455" y="17" type="curve" smooth="yes"/>
      <point x="455" y="21"/>
      <point x="457" y="23"/>
      <point x="478" y="32" type="curve" smooth="yes"/>
      <point x="602" y="85"/>
      <point x="702" y="139"/>
      <point x="702" y="216" type="curve" smooth="yes"/>
      <point x="702" y="258"/>
      <point x="674" y="295"/>
      <point x="626" y="295" type="curve" smooth="yes"/>
      <point x="587" y="295"/>
      <point x="534" y="252"/>
      <point x="534" y="200" type="curve" smooth="yes"/>
      <point x="534" y="172"/>
      <point x="556" y="161"/>
      <point x="583" y="161" type="curve" smooth="yes"/>
      <point x="585" y="161"/>
      <point x="586" y="159"/>
      <point x="586" y="156" type="curve" smooth="yes"/>
      <point x="586" y="149"/>
      <point x="558" y="137"/>
      <point x="538" y="137" type="curve" smooth="yes"/>
      <point x="502" y="137"/>
      <point x="478" y="158"/>
      <point x="478" y="188" type="curve" smooth="yes"/>
      <point x="478" y="266"/>
      <point x="566" y="313"/>
      <point x="647" y="313" type="curve" smooth="yes"/>
      <point x="717" y="313"/>
      <point x="764" y="286"/>
      <point x="764" y="228" type="curve" smooth="yes"/>
      <point x="764" y="124"/>
      <point x="536" y="43"/>
      <point x="536" y="30" type="curve" smooth="yes"/>
      <point x="536" y="24"/>
      <point x="552" y="23"/>
      <point x="634" y="23" type="curve" smooth="yes"/>
      <point x="716" y="23"/>
      <point x="774" y="28"/>
      <point x="778" y="28" type="curve" smooth="yes"/>
      <point x="780" y="28"/>
      <point x="782" y="26"/>
      <point x="782" y="23" type="curve" smooth="yes"/>
      <point x="782" y="0"/>
      <point x="581" y="-7"/>
    </contour>
  </outline>
</glyph>
<glyph name="threequarters" format="1">
  <advance width="834"/>
  <unicode hex="00BE"/>
  <outline>
    <contour>
      <point x="578" y="533" type="curve" smooth="yes"/>
      <point x="311" y="-46" type="line" smooth="yes"/>
      <point x="303" y="-64"/>
      <point x="300" y="-67"/>
      <point x="297" y="-67" type="curve" smooth="yes"/>
      <point x="291" y="-67"/>
      <point x="269" y="-49"/>
      <point x="269" y="-42" type="curve" smooth="yes"/>
      <point x="269" y="-39"/>
      <point x="270" y="-36"/>
      <point x="283" y="-9" type="curve" smooth="yes"/>
      <point x="549" y="567" type="line" smooth="yes"/>
      <point x="553" y="575"/>
      <point x="556" y="580"/>
      <point x="561" y="580" type="curve" smooth="yes"/>
      <point x="573" y="580"/>
      <point x="586" y="564"/>
      <point x="586" y="557" type="curve" smooth="yes"/>
      <point x="586" y="552"/>
      <point x="585" y="548"/>
    </contour>
    <contour>
      <point x="319" y="462" type="curve" smooth="yes"/>
      <point x="319" y="409"/>
      <point x="262" y="389"/>
      <point x="213" y="375" type="curve"/>
      <point x="213" y="373" type="line"/>
      <point x="259" y="372"/>
      <point x="323" y="371"/>
      <point x="323" y="320" type="curve" smooth="yes"/>
      <point x="323" y="232"/>
      <point x="178" y="168"/>
      <point x="100" y="168" type="curve" smooth="yes"/>
      <point x="53" y="168"/>
      <point x="21" y="191"/>
      <point x="21" y="218" type="curve" smooth="yes"/>
      <point x="21" y="225"/>
      <point x="22" y="230"/>
      <point x="25" y="230" type="curve" smooth="yes"/>
      <point x="35" y="230"/>
      <point x="64" y="204"/>
      <point x="132" y="204" type="curve" smooth="yes"/>
      <point x="208" y="204"/>
      <point x="267" y="248"/>
      <point x="267" y="316" type="curve" smooth="yes"/>
      <point x="267" y="339"/>
      <point x="243" y="361"/>
      <point x="203" y="361" type="curve" smooth="yes"/>
      <point x="179" y="361"/>
      <point x="136" y="354"/>
      <point x="108" y="349" type="curve"/>
      <point x="99" y="354"/>
      <point x="97" y="364"/>
      <point x="97" y="381" type="curve"/>
      <point x="158" y="382"/>
      <point x="267" y="384"/>
      <point x="267" y="460" type="curve" smooth="yes"/>
      <point x="267" y="490"/>
      <point x="246" y="509"/>
      <point x="209" y="509" type="curve" smooth="yes"/>
      <point x="116" y="509"/>
      <point x="98" y="428"/>
      <point x="76" y="428" type="curve" smooth="yes"/>
      <point x="64" y="428"/>
      <point x="55" y="436"/>
      <point x="55" y="454" type="curve" smooth="yes"/>
      <point x="55" y="479"/>
      <point x="132" y="527"/>
      <point x="206" y="527" type="curve" smooth="yes"/>
      <point x="253" y="527"/>
      <point x="319" y="513"/>
    </contour>
    <contour>
      <point x="716" y="114" type="curve"/>
      <point x="720" y="235" type="line" smooth="yes"/>
      <point x="720" y="243"/>
      <point x="724" y="243"/>
      <point x="731" y="243" type="curve" smooth="yes"/>
      <point x="736" y="243"/>
      <point x="764" y="236"/>
      <point x="764" y="221" type="curve" smooth="yes"/>
      <point x="764" y="209"/>
      <point x="758" y="168"/>
      <point x="757" y="114" type="curve"/>
      <point x="772" y="114" type="line" smooth="yes"/>
      <point x="807" y="114"/>
      <point x="829" y="120"/>
      <point x="833" y="120" type="curve" smooth="yes"/>
      <point x="835" y="120"/>
      <point x="836" y="119"/>
      <point x="836" y="116" type="curve" smooth="yes"/>
      <point x="836" y="98"/>
      <point x="795" y="95"/>
      <point x="757" y="92" type="curve"/>
      <point x="757" y="3" type="line" smooth="yes"/>
      <point x="757" y="-4"/>
      <point x="754" y="-7"/>
      <point x="750" y="-7" type="curve" smooth="yes"/>
      <point x="745" y="-7"/>
      <point x="711" y="-1"/>
      <point x="711" y="6" type="curve" smooth="yes"/>
      <point x="711" y="12"/>
      <point x="713" y="39"/>
      <point x="713" y="46" type="curve" smooth="yes"/>
      <point x="713" y="91" type="line"/>
      <point x="677" y="87"/>
      <point x="603" y="84"/>
      <point x="580" y="84" type="curve" smooth="yes"/>
      <point x="553" y="84"/>
      <point x="523" y="93"/>
      <point x="523" y="113" type="curve" smooth="yes"/>
      <point x="523" y="121"/>
      <point x="527" y="127"/>
      <point x="538" y="147" type="curve" smooth="yes"/>
      <point x="635" y="315" type="line" smooth="yes"/>
      <point x="640" y="323"/>
      <point x="643" y="327"/>
      <point x="654" y="327" type="curve" smooth="yes"/>
      <point x="660" y="327"/>
      <point x="678" y="315"/>
      <point x="678" y="300" type="curve" smooth="yes"/>
      <point x="678" y="290"/>
      <point x="676" y="285"/>
      <point x="671" y="279" type="curve" smooth="yes"/>
      <point x="573" y="155" type="line" smooth="yes"/>
      <point x="564" y="143"/>
      <point x="559" y="137"/>
      <point x="559" y="132" type="curve" smooth="yes"/>
      <point x="559" y="123"/>
      <point x="582" y="116"/>
    </contour>
  </outline>
</glyph>
